<ttFont>
          <CharString index="0">
            447 695 rmoveto
            4 -36 3 1 -36 hhcurveto
            -30 -22 -1 -4 -26 hvcurveto
            -15 -3 -193 -501 -9 -55 rrcurveto
            5 -14 3 -17 -31 callsubr
            vhcurveto
            -106 callgsubr
            return
          </CharString>
          <CharString index="1">
            -103 callgsubr
            -107 callgsubr
            return
          </CharString>
          <CharString index="2">
            119 74 callsubr
            -66 callgsubr
            -14 -2 -14 38 callgsubr
            -52 callgsubr
            -16 -1 55 -7 65 hhcurveto
            34 36 2 3 34 -64 callgsubr
            -16 -67 callgsubr
            -85 callgsubr
            6 -36 -37 3 -34 hhcurveto
            -65 -52 -11 -16 1 hvcurveto
            -53 callsubr
            7 -4 15 -3 13 -22 callgsubr
            return
          </CharString>
          <CharString index="3">
            -20 hstem
            -107 callsubr
            return
          </CharString>
          <CharString index="4">
            rmoveto
            50 -27 -94 105 -51 hhcurveto
            -53 -94 -116 -39 -23 hvcurveto
            -78 callgsubr
            76 56 23 29 21 -31 80 -85 callsubr
          </CharString>
          <CharString index="5">
            255 -20 callgsubr
            101 5 rlineto
            -13 2 -8 7 -9 vhcurveto
            -5 4 21 -2 20 hhcurveto
            20 -92 callgsubr
            -70 -57 callsubr
            5 2 91 -45 callsubr
            return
          </CharString>
          <CharString index="6">
            296 30 callsubr
            -135 -129 -151 -150 -137 109 -84 121 53 56 16 33 50 hvcurveto
            -53 callgsubr
            -26 44 -72 callsubr
            -29 -23 -34 -15 -34 hhcurveto
            -54 -54 37 68 -2 hvcurveto
            -15 19 37 -2 21 hhcurveto
            133 80 81 91 84 -70 53 -80 hvcurveto
            return
          </CharString>
          <CharString index="7">
            -3 8 8 -2 8 hhcurveto
            7 7 2 4 7 hvcurveto
            12 16 7 21 21 vvcurveto
            24 -8 24 -16 19 vhcurveto
            14 -42 -41 7 -41 hhcurveto
            -41 -40 -7 -16 -42 hvcurveto
            -13 -20 -8 -24 -24 vvcurveto
            -21 6 -22 14 -19 vhcurveto
            -5 5 15 -3 15 59 callsubr
            4 5 hvcurveto
            -18 -1 -9 -24 vvcurveto
            -308 167 -188 159 146 140 160 288 42 -3 38 -7 38 vhcurveto
            return
          </CharString>
          <CharString index="8">
            -71 callgsubr
            -70 callsubr
            -41 callsubr
            17 -2 25 hhcurveto
            17 3 1 5 2 hvcurveto
            10 19 1 22 31 -79 callgsubr
            return
          </CharString>
          <CharString index="9">
            -36 callgsubr
            -200 -169 122 -107 171 255 116 240 189 151 -75 132 -179 hvcurveto
            -120 -83 callgsubr
            return
          </CharString>
          <CharString index="10">
            -107 callgsubr
            endchar
          </CharString>
          <CharString index="11">
            301 30 callsubr
            -162 -104 -136 -161 -98 38 -125 169 143 111 90 192 122 -45 116 -150 hvcurveto
            -2 -139 rmoveto
            56 39 -53 -59 -51 -30 -109 -81 -58 -47 56 66 69 52 81 69 hvcurveto
            return
          </CharString>
          <CharString index="12">
            -91 callgsubr
            -2 -13 20 -107 -48 -25 -4 -24 -28 vhcurveto
            1 -17 0 -37 -17 vvcurveto
            return
          </CharString>
          <CharString index="13">
            144 -52 rmoveto
            13 -19 -29 11 -26 hhcurveto
            -10 -10 -2 -4 -9 hvcurveto
            -23 -25 -16 -85 -55 vvcurveto
            -13 1 -12 2 -9 vhcurveto
            -8 3 28 -9 28 hhcurveto
            19 19 4 10 12 hvcurveto
            3 4 18 15 4 hvcurveto
            -43 85 80 -4 43 hhcurveto
            188 104 75 351 69 -4 67 -2 56 hvcurveto
            -3 11 13 -7 15 hhcurveto
            8 7 2 7 7 hvcurveto
            9 12 3 24 24 vvcurveto
            19 -2 18 -2 13 vhcurveto
            10 -20 -72 14 -66 hhcurveto
            -53 -49 -9 -26 -16 hvcurveto
            -11 -7 -6 -27 -28 vvcurveto
            -27 6 -26 11 -7 -19 callsubr
            return
          </CharString>
          <CharString index="14">
            4 -18 -14 2 -12 hhcurveto
            -24 -18 -8 -16 -30 hvcurveto
            -32 -77 -6 -57 -1 -77 rrcurveto
            10 18 2 18 18 hvcurveto
            52 64 41 61 16 84 rrcurveto
            return
          </CharString>
          <CharString index="15">
            -21 46 130 -16 129 hhcurveto
            108 108 -87 callgsubr
            return
          </CharString>
          <CharString index="16">
            rmoveto
            17 -24 -27 9 -30 hhcurveto
            -10 -8 0 -2 -9 -59 callgsubr
            return
          </CharString>
          <CharString index="17">
            -13 callsubr
            266 -104 callsubr
            return
          </CharString>
          <CharString index="18">
            -91 callsubr
            -77 callsubr
          </CharString>
          <CharString index="19">
            rmoveto
            -2 -40 -1 -40 -41 vvcurveto
            -41 1 -43 2 -43 vhcurveto
            -8 -21 -3 -3 -6 hvcurveto
            -6 -6 -2 -9 -9 vvcurveto
            -13 4 -15 4 -10 vhcurveto
            -13 13 25 -5 26 hhcurveto
            29 32 6 4 19 hvcurveto
            8 11 4 16 16 83 callgsubr
            8 -2 8 vhcurveto
            4 -6 -9 3 -8 hhcurveto
            -3 -2 0 -1 -3 hvcurveto
            8 41 4 59 59 vvcurveto
            59 -4 59 -8 42 vhcurveto
            7 -13 -17 3 -16 hhcurveto
            -39 -43 -17 -24 -28 hvcurveto
            return
          </CharString>
          <CharString index="20">
            -20 hstem
            608 534 -98 callgsubr
            return
          </CharString>
          <CharString index="21">
            -2 10 73 67 callgsubr
            67 53 18 13 8 hvcurveto
            -79 callsubr
            return
          </CharString>
          <CharString index="22">
            -52 34 -18 rrcurveto
            -3 8 6 -1 5 hhcurveto
            5 5 1 3 75 callsubr
          </CharString>
          <CharString index="23">
            32 callsubr
            123 hintmask 11101000
            -97 callgsubr
            return
          </CharString>
          <CharString index="24">
            -21 32 20 -12 30 hhcurveto
            12 14 2 4 17 -71 callsubr
            return
          </CharString>
          <CharString index="25">
            rrcurveto
            19 callsubr
            -3 -8 -31 vvcurveto
            -25 2 -20 2 -5 vhcurveto
            -16 11 42 0 76 hhcurveto
            38 74 1 8 6 hvcurveto
            4 8 9 43 27 -18 callsubr
            3 vhcurveto
            8 -15 -13 6 -23 hhcurveto
            return
          </CharString>
          <CharString index="26">
            -69 callsubr
            -401 31 -88 callsubr
            return
          </CharString>
          <CharString index="27">
            14 25 7 24 25 vvcurveto
            return
          </CharString>
          <CharString index="28">
            -59 callsubr
            3 -14 -54 6 -18 hhcurveto
            -7 -5 -1 -2 -5 hvcurveto
            return
          </CharString>
          <CharString index="29">
            -20 -9 callgsubr
            hintmask 11111010
            -101 callsubr
            hintmask 11110110
            -67 callsubr
            return
          </CharString>
          <CharString index="30">
            -6 8 8 -2 9 hhcurveto
            56 81 79 56 32 hvcurveto
            endchar
          </CharString>
          <CharString index="31">
            -55 callgsubr
            -68 callgsubr
            return
          </CharString>
          <CharString index="32">
            -4 -15 98 -103 hhcurveto
            -135 -67 -169 -136 -112 46 -111 110 hvcurveto
            return
          </CharString>
          <CharString index="33">
            -63 callgsubr
            -39 -9 -17 -23 -18 hhcurveto
            return
          </CharString>
          <CharString index="34">
            -8 -64 -4 -63 -66 vvcurveto
            -66 4 -68 8 -67 vhcurveto
            return
          </CharString>
          <CharString index="35">
            -46 25 60 callsubr
            0 -5 hhcurveto
            -32 -40 -17 -19 -23 hvcurveto
            -2 -6 -1 -6 -5 vvcurveto
            return
          </CharString>
          <CharString index="36">
            hvcurveto
            17 22 6 27 28 vvcurveto
            25 -5 27 -5 25 vhcurveto
            18 -53 return
          </CharString>
          <CharString index="37">
            19 20 8 62 26 83 callgsubr
            6 -21 callgsubr
            -26 -67 callgsubr
            return
          </CharString>
          <CharString index="38">
            rmoveto
            7 -1 -3 9 -9 hhcurveto
            -3 -5 -1 -3 -5 hvcurveto
            -153 -157 -102 -194 -75 -213 rrcurveto
            -9 5 -7 9 3 4 1 2 5 vhcurveto
            157 164 106 189 67 212 rrcurveto
            return
          </CharString>
          <CharString index="39">
            2 9 18 hvcurveto
            2 3 1 6 8 vvcurveto
            29 -15 70 -8 13 vhcurveto
            return
          </CharString>
          <CharString index="40">
            -108 -184 rmoveto
            -70 callgsubr
            return
          </CharString>
          <CharString index="41">
            -48 callsubr
            9 52 callsubr
            return
          </CharString>
          <CharString index="42">
            -63 callsubr
            -83 -6 -56 callgsubr
            return
          </CharString>
          <CharString index="43">
            hvcurveto
            -19 9 14 -18 18 hhcurveto
            5 6 1 4 6 hvcurveto
            return
          </CharString>
          <CharString index="44">
            125 -72 74 -91 -91 -72 -74 -125 -124 72 -75 91 91 72 75 124 vhcurveto
            return
          </CharString>
          <CharString index="45">
            11 2 5 8 hvcurveto
            12 16 6 22 19 vvcurveto
            29 -13 52 -10 7 vhcurveto
            return
          </CharString>
          <CharString index="46">
            1 -7 -9 1 -9 hhcurveto
            -20 -20 -4 -11 -2 hvcurveto
            -2 -7 -1 -22 -14 vvcurveto
            -28 4 -35 6 -6 vhcurveto
            -31 79 62 -11 83 hhcurveto
            268 114 115 217 218 -116 161 -287 -81 -57 -13 -41 -72 hvcurveto
            -6 -7 -3 -12 -14 vvcurveto
            -17 4 -31 5 -21 vhcurveto
            -11 2 20 -4 20 hhcurveto
            10 10 1 2 7 hvcurveto
            return
          </CharString>
          <CharString index="47">
            -1 13 9 -1 24 hhcurveto
            33 43 2 32 40 hvcurveto
            4 31 3 25 23 vvcurveto
            38 -8 32 -29 36 vhcurveto
            3 -16 -7 2 -24 hhcurveto
            -47 -37 -8 -25 -38 hvcurveto
            3 -36 return
          </CharString>
          <CharString index="48">
            2 8 1 25 23 vvcurveto
            39 -3 42 -5 4 vhcurveto
            return
          </CharString>
          <CharString index="49">
            rmoveto
            43 59 41 15 47 37 callsubr
            -4 -5 vvcurveto
            return
          </CharString>
          <CharString index="50">
            0 -28 hhcurveto
            9 23 4 74 25 vvcurveto
            17 -2 18 -2 18 vhcurveto
            return
          </CharString>
          <CharString index="51">
            12 -34 -17 6 -39 hhcurveto
            -44 -41 -8 -12 -45 hvcurveto
            -7 -11 -3 -41 -33 vvcurveto
            return
          </CharString>
          <CharString index="52">
            144 154 rmoveto
            -16 callgsubr
            -18 1 -15 8 -10 vhcurveto
            -23 18 58 -5 37 hhcurveto
            65 77 -45 callgsubr
            return
          </CharString>
          <CharString index="53">
            -4 18 14 -2 12 hhcurveto
            24 18 8 16 30 hvcurveto
            32 77 6 57 1 77 rrcurveto
            -10 -18 -2 -18 -18 hvcurveto
            -52 -64 -41 -61 -16 -84 rrcurveto
            return
          </CharString>
          <CharString index="54">
            -4 -5 -2 -27 -27 vvcurveto
            -26 2 -24 4 -4 vhcurveto
            return
          </CharString>
          <CharString index="55">
            -42 -8 108 -95 -21 391 138 -1 -20 return
          </CharString>
          <CharString index="56">
            -75 rmoveto
            22 16 -28 -32 -39 -23 -24 -28 -16 -18 8 16 -16 hvcurveto
            8 vlineto
            2 -8 -8 81 callsubr
            -8 -8 -1 -2 -8 hvcurveto
            return
          </CharString>
          <CharString index="57">
            14 callsubr
            -30 41 39 -7 40 hhcurveto
            166 112 117 137 157 -152 3 -150 7 hvcurveto
            -66 3 -29 20 53 vvcurveto
            75 57 23 87 32 39 -3 -14 28 vhcurveto
            -10 0 -8 6 -15 vhcurveto
            return
          </CharString>
          <CharString index="58">
            vhcurveto
            -4 26 14 2 callsubr
            6 2 0 1 1 hvcurveto
            return
          </CharString>
          <CharString index="59">
            49 callgsubr
            9 12 vvcurveto
            7 -1 return
          </CharString>
          <CharString index="60">
            251 -49 callgsubr
            return
          </CharString>
          <CharString index="61">
            22 vvcurveto
            34 -8 6 -2 vhcurveto
            4 -3 -10 1 -9 hhcurveto
            -17 -9 -4 -3 -5 hvcurveto
            return
          </CharString>
          <CharString index="62">
            4 32 hhcurveto
            29 60 -3 -10 15 hvcurveto
            -3 -33 rlineto
            return
          </CharString>
          <CharString index="63">
            2 -4 -6 33 callgsubr
            -14 -16 -4 -5 -10 hvcurveto
            return
          </CharString>
          <CharString index="64">
            448 702 rmoveto
            -240 -170 return
          </CharString>
          <CharString index="65">
            25 -13 30 callgsubr
            203 77 -5 callgsubr
            return
          </CharString>
          <CharString index="66">
            -2 1 -1 7 40 vvcurveto
            90 5 54 6 38 vhcurveto
            -3 6 return
          </CharString>
          <CharString index="67">
            5 10 23 0 56 hhcurveto
            60 122 6 1 4 hvcurveto
            -112 -159 -371 -142 -247 vvcurveto
            -8 0 -7 1 -8 vhcurveto
            -2 4 32 -2 35 hhcurveto
            43 47 3 8 3 44 callgsubr
            return
          </CharString>
          <CharString index="68">
            -69 callgsubr
            5 48 callgsubr
            15 8 5 7 15 hvcurveto
            9 12 4 19 19 vvcurveto
            32 -11 34 -22 13 63 callgsubr
            -29 6 -44 hhcurveto
            -48 -45 -7 -21 -28 hvcurveto
            return
          </CharString>
          <CharString index="69">
            36 -8 40 -4 36 vhcurveto
            14 -19 -27 6 -28 hhcurveto
            -22 -23 -4 -7 -16 hvcurveto
            -17 -6 -3 -17 -1 -14 rrcurveto
            return
          </CharString>
          <CharString index="70">
            -20 47 callsubr
            184 -40 callgsubr
            return
          </CharString>
          <CharString index="71">
            24 -43 -48 12 -45 hhcurveto
            -136 -112 -110 -133 -164 170 -17 112 -5 hvcurveto
            52 -2 58 -9 -50 vvcurveto
            -52 -64 -53 -74 -35 -43 12 20 -30 vhcurveto
            -1 14 1 7 -7 17 rrcurveto
            return
          </CharString>
          <CharString index="72">
            -11 13 20 -5 22 hhcurveto
            29 31 9 16 20 hvcurveto
            4 36 9 40 37 vvcurveto
            35 -8 33 -28 25 vhcurveto
            return
          </CharString>
          <CharString index="73">
            -1 15 -2 39 19 vvcurveto
            116 72 35 48 71 50 -77 -81 vhcurveto
            -11 -47 callgsubr
            return
          </CharString>
          <CharString index="74">
            63 -3 18 -26 -24 vvcurveto
            -32 -30 -29 -53 -35 -36 13 21 -12 vhcurveto
            1 4 1 4 3 2 -1 3 2 vvcurveto
            26 -21 -28 9 -32 hhcurveto
            -7 -7 0 -1 -7 hvcurveto
            -53 -32 -15 -58 -3 -53 return
          </CharString>
          <CharString index="75">
            13 -35 -24 7 -23 hhcurveto
            -20 -19 -5 -12 -26 hvcurveto
            79 callsubr
            vvcurveto
            -5 2 -9 1 -6 vhcurveto
            return
          </CharString>
          <CharString index="76">
            -39 -8 -17 -58 -36 3 -17 8 -4 return
          </CharString>
          <CharString index="77">
            -7 vvcurveto
            -10 2 -12 2 -3 vhcurveto
            return
          </CharString>
          <CharString index="78">
            15 callsubr
            -50 callgsubr
            rrcurveto
            return
          </CharString>
          <CharString index="79">
            -8 8 39 -3 39 hhcurveto
            32 32 2 3 16 hvcurveto
            19 2 7 47 50 vvcurveto
            55 -9 60 -16 8 vhcurveto
            7 -12 -25 2 -26 hhcurveto
            -31 -33 -3 -6 -15 hvcurveto
            -7 -5 -6 -15 -29 vvcurveto
            return
          </CharString>
          <CharString index="80">
            -10 -19 -59 -8 -30 hhcurveto
            -30 -91 8 21 -25 hvcurveto
            return
          </CharString>
          <CharString index="81">
            -3 25 -8 6 vhcurveto
            4 -8 -7 33 callgsubr
            -2 -3 0 -1 -2 hvcurveto
            3 11 2 25 13 vvcurveto
            5 62 callsubr
            -1 2 4 -1 4 hhcurveto
            4 5 49 callgsubr
            hvcurveto
            return
          </CharString>
          <CharString index="82">
            -16 24 24 -8 22 hhcurveto
            63 30 60 59 55 -27 54 -51 -18 -18 -7 -16 -19 hvcurveto
            -2 return
          </CharString>
          <CharString index="83">
            -66 callsubr
            8 -33 -136 3 -33 hhcurveto
            -43 -126 -31 callgsubr
            return
          </CharString>
          <CharString index="84">
            hhcurveto
            10 11 7 15 8 hvcurveto
            -15 90 -38 81 -87 57 89 68 49 83 8 87 rrcurveto
            return
          </CharString>
          <CharString index="85">
            77 -10 -12 callgsubr
            return
          </CharString>
          <CharString index="86">
            -133 -10 109 272 139 return
          </CharString>
          <CharString index="87">
            -5 -10 -3 -14 -13 vvcurveto
            -14 3 -14 5 -10 vhcurveto
            24 2 31 26 14 9 rrcurveto
            return
          </CharString>
          <CharString index="88">
            vhcurveto
            -5 3 -12 callsubr
            14 15 4 4 7 hvcurveto
            return
          </CharString>
          <CharString index="89">
            vvcurveto
            10 -1 8 -3 return
          </CharString>
          <CharString index="90">
            -15 16 30 -8 29 hhcurveto
            28 27 8 15 14 hvcurveto
            28 25 8 33 36 vvcurveto
            return
          </CharString>
          <CharString index="91">
            33 -3 25 -6 7 vhcurveto
            4 -26 -14 81 callsubr
            -7 68 callgsubr
            hvcurveto
            3 return
          </CharString>
          <CharString index="92">
            12 -4 -7 4 -8 hhcurveto
            -14 -16 -13 -3 -3 hvcurveto
            -72 -71 -49 -82 -40 -85 return
          </CharString>
          <CharString index="93">
            -12 34 17 -6 39 hhcurveto
            44 41 -13 callgsubr
            return
          </CharString>
          <CharString index="94">
            -9 callsubr
            326 -20 return
          </CharString>
          <CharString index="95">
            7 2 callsubr
            return
          </CharString>
          <CharString index="96">
            -4 5 rlineto
            -13 -30 -6 -7 -2 hvcurveto
            -18 16 -49 9 -4 vhcurveto
            -1 5 6 2 callsubr
            11 12 3 9 5 hvcurveto
            -1 3 0 2 3 vvcurveto
            return
          </CharString>
          <CharString index="97">
            35 -21 3 -77 -64 -24 -7 -11 -18 -32 callgsubr
            return
          </CharString>
          <CharString index="98">
            82 0 144 107 123 return
          </CharString>
          <CharString index="99">
            hvcurveto
            10 10 4 8 29 vvcurveto
            32 -5 23 -9 12 vhcurveto
            3 -4 -8 1 -10 hhcurveto
            -14 -16 -2 -2 -8 hvcurveto
            -2 -5 -4 -13 -9 vvcurveto
            return
          </CharString>
          <CharString index="100">
            -1 157 -157 171 -149 -21 378 132 -10 -20 return
          </CharString>
          <CharString index="101">
            2 -10 65 callsubr
            -5 -8 hvcurveto
            return
          </CharString>
          <CharString index="102">
            74 callgsubr
            -2 -12 hvcurveto
            return
          </CharString>
          <CharString index="103">
            8 8 11 3 11 hhcurveto
            28 30 -20 -27 -10 -4 -19 -9 -11 hvcurveto
            2 -3 -8 1 -9 hhcurveto
            -13 -14 -2 -4 -2 hvcurveto
            return
          </CharString>
          <CharString index="104">
            50 16 -65 -44 -55 -35 -43 -42 -20 -108 18 9 hvcurveto
            3 77 0 40 2 23 rrcurveto
            18 1 96 22 37 hhcurveto
            return
          </CharString>
          <CharString index="105">
            38 149 377 138 return
          </CharString>
          <CharString index="106">
            -8 67 -49 -21 297 73 -49 80 220 74 4 -20 hstemhm
            30 86 159 81 162 84 159 83 return
          </CharString>
          <CharString index="107">
            -307 21 -21 373 138 return
          </CharString>
          <CharString index="108">
            171 -157 157 -1 -20 return
          </CharString>
          <CharString index="109">
            -1 7 hhcurveto
            return
          </CharString>
          <CharString index="110">
            5 -11 -21 3 -21 hhcurveto
            -22 -22 -3 -5 -12 hvcurveto
            -6 -11 -5 -11 -12 vvcurveto
            -3 0 -4 1 -4 vhcurveto
            return
          </CharString>
          <CharString index="111">
            -11 17 22 -4 23 hhcurveto
            19 19 3 5 17 hvcurveto
            2 3 1 2 9 83 callgsubr
            9 -2 6 vhcurveto
            return
          </CharString>
          <CharString index="112">
            12 -28 hhcurveto
            -8 -6 -1 -2 -5 hvcurveto
            -16 -10 -44 -122 -58 vvcurveto
            -9 1 -9 3 -1 vhcurveto
            -6 2 return
          </CharString>
          <CharString index="113">
            -7 5 32 -2 28 hhcurveto
            27 24 2 2 10 hvcurveto
            12 4 9 83 58 vvcurveto
            43 -5 9 -14 10 vhcurveto
            return
          </CharString>
          <CharString index="114">
            -11 -8 -4 -19 -20 vvcurveto
            -25 7 -27 8 -14 vhcurveto
            -10 11 4 -3 15 hhcurveto
            6 6 0 73 callgsubr
            return
          </CharString>
          <CharString index="115">
            vvcurveto
            -20 3 -17 8 -12 vhcurveto
            -3 7 10 -2 9 hhcurveto
            return
          </CharString>
          <CharString index="116">
            16 callgsubr
            -20 -29 -7 -11 -7 hvcurveto
            return
          </CharString>
          <CharString index="117">
            -119 119 return
          </CharString>
          <CharString index="118">
            -106 -12 125 88 92 113 104 return
          </CharString>
          <CharString index="119">
            rmoveto
            -63 callsubr
            return
          </CharString>
          <CharString index="120">
            43 41 11 34 50 hvcurveto
            -16 7 -18 14 -5 vhcurveto
            return
          </CharString>
          <CharString index="121">
            24 24 4 6 11 hvcurveto
            6 7 4 13 17 vvcurveto
            return
          </CharString>
          <CharString index="122">
            -10 15 23 -5 21 hhcurveto
            12 11 2 3 10 hvcurveto
            return
          </CharString>
          <CharString index="123">
            60 -3 60 -1 71 vhcurveto
            return
          </CharString>
          <CharString index="124">
            16 3 12 5 14 7 return
          </CharString>
          <CharString index="125">
            rmoveto
            83 69 65 63 52 31 -44 -51 -81 -79 -60 -60 -41 -35 29 59 vhcurveto
            endchar
          </CharString>
          <CharString index="126">
            -18 -23 47 callgsubr
            -5 -5 return
          </CharString>
          <CharString index="127">
            -21 235 -20 hstem
            return
          </CharString>
          <CharString index="128">
            hvcurveto
            3 7 1 return
          </CharString>
          <CharString index="129">
            vvcurveto
            15 -5 17 -8 11 vhcurveto
            1 -2 -2 0 -3 hhcurveto
            -4 -4 29 callsubr
            return
          </CharString>
          <CharString index="130">
            -3 42 33 -3 43 hhcurveto
            67 58 7 23 70 hvcurveto
            2 -21 2 -20 5 -1 rrcurveto
            return
          </CharString>
          <CharString index="131">
            rmoveto
            35 33 49 41 30 16 -26 -28 -43 -39 -39 -34 -28 -19 25 27 vhcurveto
            return
          </CharString>
          <CharString index="132">
            35 64 -23 -54 25 hvcurveto
            15 callgsubr
            return
          </CharString>
          <CharString index="133">
            224 -209 127 223 203 -143 113 hstemhm
            32 134 return
          </CharString>
          <CharString index="134">
            -309 25 -21 694 return
          </CharString>
          <CharString index="135">
            35 143 216 102 return
          </CharString>
          <CharString index="136">
            0 -1 -4 hvcurveto
            return
          </CharString>
          <CharString index="137">
            510 rmoveto
            return
          </CharString>
          <CharString index="138">
            34 callsubr
            -37 return
          </CharString>
          <CharString index="139">
            -20 78 callsubr
            -123 return
          </CharString>
          <CharString index="140">
            -10 133 -133 169 371 171 -131 131 hstemhm
            return
          </CharString>
          <CharString index="141">
            -47 callsubr
            8 return
          </CharString>
          <CharString index="142">
            -5 -8 -2 -4 -4 vvcurveto
            -5 3 -6 4 -9 vhcurveto
            4 -4 28 -3 return
          </CharString>
          <CharString index="143">
            245 21 callgsubr
            4 -20 hstemhm
            return
          </CharString>
          <CharString index="144">
            hvcurveto
            -2 -3 -1 return
          </CharString>
          <CharString index="145">
            vhcurveto
            -5 74 119 -8 87 hhcurveto
            61 199 4 9 6 hvcurveto
            return
          </CharString>
          <CharString index="146">
            45 callgsubr
            10 137 7 137 2 137 return
          </CharString>
          <CharString index="147">
            -4 65 callgsubr
            -6 -11 vvcurveto
            -12 1 -6 5 -3 vhcurveto
            return
          </CharString>
          <CharString index="148">
            39 -40 -69 5 -31 hhcurveto
            -178 -109 -165 -198 return
          </CharString>
          <CharString index="149">
            -15 -40 -79 -8 -74 hhcurveto
            -45 -19 3 6 -23 hvcurveto
            endchar
          </CharString>
          <CharString index="150">
            15 hhcurveto
            5 9 0 1 3 hvcurveto
            return
          </CharString>
          <CharString index="151">
            216 -187 187 -58 58 return
          </CharString>
          <CharString index="152">
            10 -21 504 -20 hstem
            return
          </CharString>
          <CharString index="153">
            -9 -1 -16 -5 -5 -7 return
          </CharString>
          <CharString index="154">
            hstemhm
            35 125 return
          </CharString>
          <CharString index="155">
            170 hmoveto
            return
          </CharString>
          <CharString index="156">
            -18 25 31 -8 33 hhcurveto
            94 104 68 104 76 -55 61 return
          </CharString>
          <CharString index="157">
            hvcurveto
            3 5 1 8 9 vvcurveto
            35 -15 54 -9 18 vhcurveto
            return
          </CharString>
          <CharString index="158">
            rmoveto
            9 26 1 27 15 vvcurveto
            31 -4 20 -9 12 vhcurveto
            return
          </CharString>
          <CharString index="159">
            -3 8 vhcurveto
            return
          </CharString>
          <CharString index="160">
            -5 -5 -2 -22 -23 vvcurveto
            -28 3 -28 4 -7 vhcurveto
            return
          </CharString>
          <CharString index="161">
            17 callgsubr
            14 33 8 35 6 38 return
          </CharString>
          <CharString index="162">
            11 -34 -59 7 -43 hhcurveto
            -112 -102 -47 -111 return
          </CharString>
          <CharString index="163">
            6 -3 -41 2 -33 hhcurveto
            -24 -19 -1 -2 -6 hvcurveto
            return
          </CharString>
          <CharString index="164">
            5 8 1 4 4 vvcurveto
            8 -3 7 -3 6 vhcurveto
            return
          </CharString>
          <CharString index="165">
            27 callsubr
            -20 return
          </CharString>
          <CharString index="166">
            hhcurveto
            8 8 1 return
          </CharString>
          <CharString index="167">
            31 callgsubr
            -5 return
          </CharString>
          <CharString index="168">
            22 3 12 19 hvcurveto
            1 -9 1 -8 -1 vvcurveto
            return
          </CharString>
          <CharString index="169">
            0 5 -1 5 vhcurveto
            return
          </CharString>
          <CharString index="170">
            65 -62 -21 66 60 callgsubr
            hintmask 10010000
            return
          </CharString>
          <CharString index="171">
            rmoveto
            77 438 165 12 318 vhcurveto
            return
          </CharString>
          <CharString index="172">
            hhcurveto
            -10 -11 -2 return
          </CharString>
          <CharString index="173">
            0 6 hhcurveto
            return
          </CharString>
          <CharString index="174">
            122 48 return
          </CharString>
          <CharString index="175">
            2 -8 hhcurveto
            -3 -3 0 -1 -3 hvcurveto
            return
          </CharString>
          <CharString index="176">
            -282 -160 67 692 67 hstem
            return
          </CharString>
          <CharString index="177">
            -329 -158 -21 835 -20 hstem
            return
          </CharString>
          <CharString index="178">
            -7 -7 -2 -2 -8 hvcurveto
            -70 -112 return
          </CharString>
          <CharString index="179">
            -11 65 hhcurveto
            34 19 3 6 12 hvcurveto
            return
          </CharString>
          <CharString index="180">
            -1 -4 -5 return
          </CharString>
          <CharString index="181">
            546 rmoveto
            return
          </CharString>
          <CharString index="182">
            7 hvcurveto
            endchar
          </CharString>
          <CharString index="183">
            -20 38 46 callgsubr
            return
          </CharString>
          <CharString index="184">
            -12 -5 -22 -22 vvcurveto
            -22 5 -23 return
          </CharString>
          <CharString index="185">
            hstemhm
            28 205 return
          </CharString>
          <CharString index="186">
            68 callgsubr
            -4 return
          </CharString>
          <CharString index="187">
            hstemhm
            82 145 return
          </CharString>
          <CharString index="188">
            1 -7 hhcurveto
            return
          </CharString>
          <CharString index="189">
            hhcurveto
            -14 -14 return
          </CharString>
          <CharString index="190">
            -3 vhcurveto
            -3 return
          </CharString>
          <CharString index="191">
            12 10 -1 return
          </CharString>
        <CharString name=".notdef">
          -462 endchar
        </CharString>
        <CharString name="A">
          82 0 144 107 123 326 -104 callsubr
          endchar
        </CharString>
        <CharString name="AE">
          345 -13 109 -109 203 -190 144 107 124 -110 188 -151 109 103 198 10 callsubr
          hstemhm
          431 143 hintmask 1000101010000000
          574 300 rmoveto
          113 4 rlineto
          -22 1 0 12 -7 vhcurveto
          -3 5 12 -7 26 hhcurveto
          24 11 6 7 8 hvcurveto
          21 17 2 18 28 vvcurveto
          51 -7 31 -13 23 -81 callgsubr
          hintmask 1000010110000000
          -1 -10 0 -14 vhcurveto
          -27 -44 1 -20 hhcurveto
          174 vlineto
          4 30 7 95 hhcurveto
          72 37 -4 -9 16 hvcurveto
          -3 -33 rlineto
          hintmask 0011001010000000
          -83 callsubr
          -113 20 -132 hhcurveto
          -88 -88 -9 -8 -90 hvcurveto
          -166 -231 -121 -246 -36 -82 rrcurveto
          5 -1 -15 3 -15 hhcurveto
          -15 -16 -3 -5 hvcurveto
          -10 -2 -6 -38 -34 vvcurveto
          -25 3 -22 8 -3 vhcurveto
          -74 callgsubr
          12 -1 10 -2 6 vhcurveto
          7 -7 9 -24 -12 -6 -2 -2 -6 vhcurveto
          6 35 11 24 36 65 rrcurveto
          -3 32 20 -1 33 hhcurveto
          16 21 0 1 21 hvcurveto
          2 -37 3 -48 4 -26 rrcurveto
          -44 callsubr
          -12 -10 -4 -33 -13 vvcurveto
          -23 13 -24 8 -8 vhcurveto
          hintmask 0101001010000000
          -92 callsubr
          hintmask 1001001010000000
          -17 -32 -52 -11 -50 hhcurveto
          -46 -45 9 20 -29 hvcurveto
          -138 437 rmoveto
          -11 -192 rlineto
          4 -15 -16 1 -17 hhcurveto
          -18 -19 -1 -3 -18 hvcurveto
          endchar
        </CharString>
        <CharString name="Aacute">
          -90 callsubr
          162 345 rmoveto
          10 -9 -24 15 -32 hhcurveto
          -4 -4 0 -1 -5 -59 callgsubr
          -2 2 5 -1 8 hhcurveto
          9 2 1 2 4 hvcurveto
          54 33 48 39 32 55 rrcurveto
          endchar
        </CharString>
        <CharString name="Acircumflex">
          -13 callsubr
          69 -20 179 -104 callsubr
          171 177 -103 callsubr
        </CharString>
        <CharString name="Adieresis">
          -13 callsubr
          69 82 callgsubr
          227 12 callgsubr
          vstem
          -107 callsubr
          -45 181 rmoveto
          -105 callgsubr
        </CharString>
        <CharString name="Agrave">
          -90 callsubr
          -122 345 -101 callgsubr
        </CharString>
        <CharString name="Aring">
          -9 callsubr
          347 -20 156 47 hstem
          271 51 128 40 vstem
          447 695 rmoveto
          26 19 17 34 48 vvcurveto
          56 -23 52 -64 -77 -55 -75 -63 -28 10 -26 19 -17 vhcurveto
          -15 -3 -192 -496 -10 -59 rrcurveto
          4 -2 -13 3 -16 hhcurveto
          -31 callsubr
          hvcurveto
          -106 callgsubr
          -51 197 24 callsubr
          endchar
        </CharString>
        <CharString name="Atilde">
          -13 callsubr
          67 76 callsubr
          hintmask 11111010
          -107 callsubr
          155 283 -74 callsubr
          hintmask 11110100
          -84 callgsubr
          hintmask 11111010
          -54 callgsubr
        </CharString>
        <CharString name="B">
          -9 -10 102 -77 -21 305 93 207 108 1 -20 hstemhm
          58 191 -143 143 205 135 -135 164 hintmask 1010110100000000
          255 664 rmoveto
          14 -1 16 -3 10 vhcurveto
          2 -21 -24 2 -24 hhcurveto
          -49 -49 -6 -19 -23 hvcurveto
          -2 -5 -1 -35 -19 vvcurveto
          -34 3 -22 3 -4 vhcurveto
          -3 20 17 -2 18 hhcurveto
          hintmask 0111001100000000
          -9 -70 -4 -112 -71 vvcurveto
          -60 3 -59 5 -58 78 callgsubr
          -4 hhcurveto
          -51 0 -36 -29 -21 3 -20 4 -19 hvcurveto
          -9 36 38 -3 32 hhcurveto
          62 17 0 37 hvcurveto
          hintmask 1011010010000000
          -37 41 115 -4 40 hhcurveto
          101 79 88 100 62 -30 63 -72 41 hvcurveto
          hintmask 1011010100000000
          51 46 22 58 55 vvcurveto
          101 -74 103 -106 -48 -69 -20 -23 -37 vhcurveto
          133 -365 rmoveto
          -3 callsubr
          300 vmoveto
          -3 callsubr
          endchar
        </CharString>
        <CharString name="C">
          10 -6 36 callgsubr
          478 36 callsubr
          41 136 hintmask 10001010
          177 342 rmoveto
          131 81 114 76 35 64 -23 -54 25 vhcurveto
          15 callgsubr
          hintmask 10010010
          -17 callsubr
          hintmask 10000110
          -38 callsubr
          hintmask 01010010
          41 callsubr
          -236 155 -114 138 13 callsubr
          hintmask 00110010
          -35 callsubr
          hintmask 01010010
          -32 callsubr
          hintmask 10010010
          61 callgsubr
          hvcurveto
          endchar
        </CharString>
        <CharString name="Ccedilla">
          10 27 callgsubr
          15 36 callgsubr
          32 -21 467 36 callsubr
          41 136 54 44 callsubr
          hintmask 1001100010010010
          351 -51 callsubr
          hintmask 1010100010011000
          -15 callgsubr
          hintmask 0110100010011000
          19 callgsubr
          hintmask 1010000110010100
          -25 callsubr
          1 24 15 -2 hvcurveto
          hintmask 1010010010011000
          8 7 -1 8 hhcurveto
          13 callsubr
          hintmask 1010001010011000
          -35 callsubr
          hintmask 1010010010011000
          -32 callsubr
          hintmask 1010100001011000
          61 callgsubr
          131 81 114 76 25 callsubr
          hintmask 1010100010011000
          -17 callsubr
          hintmask 1010100000111000
          -38 callsubr
          hintmask 1010100010010100
          41 callsubr
          -198 108 -112 116 -31 hvcurveto
          -3 -16 -2 -21 -19 8 callsubr
          hintmask 1001100010011000
          62 callgsubr
        </CharString>
        <CharString name="D">
          45 33 callsubr
          111 162 258 136 hintmask 10011100
          264 556 rmoveto
          7 callgsubr
          6 54 3 107 57 vvcurveto
          57 -3 88 -6 60 vhcurveto
          -143 -399 rmoveto
          hintmask 01101100
          -61 callsubr
          -8 -58 -4 -76 -56 vvcurveto
          -49 3 -88 7 -49 vhcurveto
          endchar
        </CharString>
        <CharString name="E">
          -42 callsubr
          hstemhm
          106 178 hintmask 10101100
          -102 callsubr
          hintmask 01110100
          -83 callsubr
          -114 20 -129 hhcurveto
          -92 -142 -10 -22 -47 hvcurveto
          -11 -15 -8 -18 -19 vvcurveto
          -14 4 -34 10 -14 vhcurveto
          -5 7 10 -2 11 hhcurveto
          13 15 3 2 9 hvcurveto
          -16 -66 -5 -95 -61 vvcurveto
          -61 5 -68 7 -52 vhcurveto
          -44 callsubr
          -16 -36 0 -14 -2 vvcurveto
          -48 6 -12 15 -19 vhcurveto
          -92 callsubr
          hintmask 10110100
          -27 callsubr
          endchar
        </CharString>
        <CharString name="Eacute">
          25 -13 119 161 -5 callgsubr
          0 75 161 -20 hstemhm
          106 178 hintmask 11010110
          -102 callsubr
          hintmask 11100110
          -83 callsubr
          -114 20 -129 hhcurveto
          -92 -142 -10 -22 -47 hvcurveto
          -11 -15 -8 -18 -19 vvcurveto
          -14 4 -34 10 -14 vhcurveto
          -5 7 10 -2 11 hhcurveto
          13 15 3 2 9 hvcurveto
          -16 -66 -5 -95 -61 vvcurveto
          -61 5 -68 7 -52 vhcurveto
          -44 callsubr
          -16 -36 0 -14 -2 vvcurveto
          -48 6 -12 15 -19 vhcurveto
          -92 callsubr
          -27 callsubr
          192 787 -91 callsubr
          hintmask 11001110
          -77 callsubr
        </CharString>
        <CharString name="Ecircumflex">
          -42 callsubr
          37 -20 179 -20 hstemhm
          106 178 hintmask 10101111
          -102 callsubr
          hintmask 01110111
          -83 callsubr
          -114 20 -129 hhcurveto
          -92 -142 -10 -22 -47 hvcurveto
          -11 -15 -8 -18 -19 vvcurveto
          -14 4 -34 10 -14 vhcurveto
          -5 7 10 -2 11 hhcurveto
          13 15 3 2 9 hvcurveto
          -16 -66 -5 -95 -61 vvcurveto
          -61 5 -68 7 -52 vhcurveto
          -44 callsubr
          -16 -36 0 -14 -2 vvcurveto
          -48 6 -12 15 -19 vhcurveto
          -92 callsubr
          hintmask 10110111
          -27 callsubr
          266 618 -103 callsubr
        </CharString>
        <CharString name="Edieresis">
          -42 callsubr
          43 75 callgsubr
          106 178 -80 67 callsubr
          115 hintmask 1010111010000000
          -102 callsubr
          hintmask 0111011010000000
          -83 callsubr
          -114 20 -129 hhcurveto
          -92 -142 -10 -22 -47 hvcurveto
          -11 -15 -8 -18 -19 vvcurveto
          -14 4 -34 10 -14 vhcurveto
          -5 7 10 -2 11 hhcurveto
          13 15 3 2 9 hvcurveto
          -16 -66 -5 -95 -61 vvcurveto
          -61 5 -68 7 -52 vhcurveto
          -44 callsubr
          -16 -36 0 -14 -2 vvcurveto
          -48 6 -12 15 -19 vhcurveto
          -92 callsubr
          hintmask 1011010110000000
          -27 callsubr
          50 628 rmoveto
          -105 callgsubr
        </CharString>
        <CharString name="Egrave">
          -42 callsubr
          234 -20 hstemhm
          106 178 hintmask 10101110
          -102 callsubr
          hintmask 01110110
          -83 callsubr
          -114 20 -129 hhcurveto
          -92 -142 -10 -22 -47 hvcurveto
          -11 -15 -8 -18 -19 vvcurveto
          -14 4 -34 10 -14 vhcurveto
          -5 7 10 -2 11 hhcurveto
          13 15 3 2 9 hvcurveto
          -16 -66 -5 -95 -61 vvcurveto
          -61 5 -68 7 -52 vhcurveto
          -44 callsubr
          -16 -36 0 -14 -2 vvcurveto
          -48 6 -12 15 -19 vhcurveto
          -92 callsubr
          hintmask 10110110
          -27 callsubr
          13 786 -101 callgsubr
        </CharString>
        <CharString name="Eth">
          46 33 callsubr
          112 161 259 136 hintmask 01101100
          122 157 rmoveto
          -61 callsubr
          -7 -50 -4 -64 -1 -52 -25 -3 rcurveline
          -44 callgsubr
          2 -3 10 -1 13 -2 1 -50 3 -65 6 -40 rrcurveto
          211 160 -49 callgsubr
          -20 4 -20 3 -19 2 -1 56 -3 74 -5 53 rrcurveto
          hintmask 10011100
          7 callgsubr
          4 42 3 73 1 58 20 2 20 3 20 6 rrcurveto
          endchar
        </CharString>
        <CharString name="Euro">
          82 -6 36 callgsubr
          281 186 -60 60 11 36 callsubr
          hintmask 10001010
          382 278 rmoveto
          57 callsubr
          -34 7 -73 3 -40 1 rrcurveto
          28 1 19 3 18 vhcurveto
          41 71 4 9 31 hvcurveto
          57 callsubr
          -29 6 -57 3 -42 1 rrcurveto
          81 29 56 55 53 hhcurveto
          25 callsubr
          hintmask 10010100
          -17 callsubr
          hintmask 10010001
          -38 callsubr
          hintmask 01010100
          40 -41 -71 4 -28 hhcurveto
          -136 -104 -93 -167 -36 hvcurveto
          -28 -2 -28 -2 -18 -2 rrcurveto
          35 callsubr
          34 -2 rrcurveto
          -2 -22 -1 -23 -30 vvcurveto
          -63 -6 rlineto
          35 callsubr
          35 -2 rrcurveto
          -165 24 129 -111 136 hhcurveto
          13 callsubr
          hintmask 00110100
          -35 callsubr
          hintmask 01010100
          -32 callsubr
          hintmask 10010100
          -36 -26 -64 -17 -35 hhcurveto
          -60 -61 48 79 -23 hvcurveto
          41 1 66 3 30 9 rrcurveto
          endchar
        </CharString>
        <CharString name="F">
          -23 -14 152 149 189 39 195 -117 117 hstemhm
          45 207 -143 143 -136 136 hintmask 11100100
          122 564 rmoveto
          -8 -111 -5 -90 -69 vvcurveto
          hintmask 11100010
          -43 2 -50 5 -64 vhcurveto
          -7 -9 33 callgsubr
          -10 -28 -3 -1 -7 hvcurveto
          hintmask 11011000
          -3 -3 -1 -7 -15 vvcurveto
          -31 4 -60 9 -12 vhcurveto
          -14 27 56 -6 58 hhcurveto
          76 29 10 15 19 hvcurveto
          2 0 46 2 33 -6 34 -4 5 hvcurveto
          3 -2 -13 1 -14 hhcurveto
          -15 -8 -1 -2 -6 hvcurveto
          -2 40 -3 90 59 vvcurveto
          90 hlineto
          -16 3 0 9 -12 vhcurveto
          -4 4 5 -2 24 hhcurveto
          29 23 3 4 5 hvcurveto
          10 10 9 44 42 vvcurveto
          31 -5 30 -13 15 vhcurveto
          7 -17 -18 3 -18 hhcurveto
          -18 0 -3 -4 -18 hvcurveto
          -6 -6 -4 -12 -17 vvcurveto
          -3 -1 -62 0 -24 hhcurveto
          5 43 8 64 13 46 rrcurveto
          5 2 81 -45 callsubr
          hintmask 11101000
          -18 9 24 -14 40 hhcurveto
          11 15 1 4 16 -71 callsubr
          -163 18 -132 hhcurveto
          -89 -83 -8 -22 -47 hvcurveto
          -7 -11 -6 -28 -28 vvcurveto
          -25 5 -23 11 -8 vhcurveto
          -2 3 4 0 5 hhcurveto
          14 20 6 3 11 hvcurveto
          endchar
        </CharString>
        <CharString name="G">
          15 -6 124 -104 -21 504 213 -118 118 8 -20 hstemhm
          42 136 310 133 hintmask 10010110
          370 388 rmoveto
          -5 -7 -5 -13 -15 vvcurveto
          -10 2 -10 5 -10 vhcurveto
          -12 2 101 -5 6 hhcurveto
          8 -20 4 -23 -23 vvcurveto
          -24 -4 -24 -8 -21 vhcurveto
          -36 -38 -42 -17 -41 hhcurveto
          -82 -95 66 164 138 68 106 103 39 44 -15 -31 47 hvcurveto
          -3 -9 -2 -6 -6 vvcurveto
          -9 4 -6 5 -4 vhcurveto
          hintmask 10100110
          -6 12 10 -3 29 hhcurveto
          33 30 4 6 3 hvcurveto
          14 39 7 52 40 vvcurveto
          22 -2 21 -5 20 vhcurveto
          hintmask 10001110
          13 -16 -22 4 -24 hhcurveto
          hintmask 10100110
          -24 -26 -4 -4 -22 hvcurveto
          -6 -17 4 -31 -8 hhcurveto
          25 -50 -49 12 -45 hhcurveto
          -157 -116 -149 -216 -265 174 -86 101 64 62 35 30 46 hvcurveto
          -16 2 -33 14 -5 vhcurveto
          hintmask 01100110
          -9 27 20 -3 14 hhcurveto
          21 14 6 10 14 hvcurveto
          9 46 3 54 49 vvcurveto
          105 -14 97 -11 25 vhcurveto
          22 -26 -70 12 -45 hhcurveto
          -41 -36 -10 -21 -14 hvcurveto
          endchar
        </CharString>
        <CharString name="H">
          87 20 -21 22 -21 305 123 271 -20 hstemhm
          50 242 -200 151 207 242 -199 153 hintmask 10111001
          504 74 callsubr
          -6 -45 -3 -44 -2 -44 rrcurveto
          8 -27 -36 7 -71 hhcurveto
          -47 -44 -3 -10 -22 hvcurveto
          -1 46 -3 36 -8 53 rrcurveto
          -1 6 5 66 callsubr
          14 6 -68 callsubr
          4 -9 -29 6 -45 hhcurveto
          -48 -54 -7 -21 -28 hvcurveto
          -53 callsubr
          10 -6 4 -1 11 -22 callgsubr
          hintmask 10110110
          -66 callgsubr
          -13 -2 -5 38 callgsubr
          hintmask 10111010
          -52 callgsubr
          -21 15 55 -7 52 hhcurveto
          48 34 6 4 9 -64 callgsubr
          -6 -67 callgsubr
          hintmask 10110101
          3 44 4 71 2 50 rrcurveto
          -6 24 46 -2 48 hhcurveto
          68 34 4 4 30 hvcurveto
          1 -47 4 -67 6 -47 rrcurveto
          -5 callsubr
          -13 -2 -5 38 callgsubr
          hintmask 01111010
          -52 callgsubr
          -16 -1 84 -11 65 hhcurveto
          34 19 3 6 12 -64 callgsubr
          -6 -67 callgsubr
          hintmask 10111001
          -85 callgsubr
          7 -30 -45 3 -33 hhcurveto
          -66 -50 -12 -16 1 hvcurveto
          hintmask 10111010
          -53 callsubr
          10 -6 4 -1 11 -22 callgsubr
          endchar
        </CharString>
        <CharString name="I">
          -309 25 -21 694 -102 callgsubr
          endchar
        </CharString>
        <CharString name="Iacute">
          27 callsubr
          89 161 -102 callgsubr
          219 376 -89 callsubr
        </CharString>
        <CharString name="Icircumflex">
          58 callsubr
          71 -20 179 -102 callgsubr
          233 207 -103 callsubr
        </CharString>
        <CharString name="Idieresis">
          58 callsubr
          77 75 callgsubr
          35 122 -50 144 -46 122 hintmask 11101000
          -105 callsubr
          17 217 rmoveto
          hintmask 11110100
          -105 callgsubr
        </CharString>
        <CharString name="Igrave">
          58 callsubr
          268 -102 callgsubr
          -70 375 -101 callgsubr
        </CharString>
        <CharString name="J">
          -67 -11 131 -115 220 335 139 hstemhm
          361 152 hintmask 01110000
          195 204 rmoveto
          9 -12 -64 5 callsubr
          30 -2 30 hhcurveto
          21 42 1 4 4 hvcurveto
          3 5 10 18 5 hvcurveto
          hintmask 10110000
          -34 50 44 -15 40 hhcurveto
          143 78 195 227 51 -4 52 -9 51 hvcurveto
          -3 6 8 -2 23 hhcurveto
          17 3 1 4 3 hvcurveto
          11 13 1 29 22 vvcurveto
          22 -1 15 -2 8 vhcurveto
          17 -20 -49 8 -86 hhcurveto
          -52 -47 -3 -5 -25 hvcurveto
          -16 -27 -4 -28 -25 -13 1 -6 -9 vvcurveto
          -10 7 15 -4 15 hhcurveto
          14 15 3 7 9 hvcurveto
          9 -41 6 -62 -68 vvcurveto
          -131 -22 -157 -84 -19 -21 8 17 -25 vhcurveto
          4 29 3 2 20 84 callgsubr
          6 -2 vhcurveto
          endchar
        </CharString>
        <CharString name="K">
          81 -4 156 139 134 118 157 -3 -20 hstemhm
          106 146 199 245 hintmask 11101100
          118 74 callsubr
          -73 callsubr
          19 callsubr
          -2 -18 -21 vvcurveto
          -28 4 -34 5 -10 vhcurveto
          -18 15 48 -10 58 hhcurveto
          40 45 5 11 40 hvcurveto
          5 9 2 18 21 vvcurveto
          29 -4 34 -8 15 10 callgsubr
          9 143 rlineto
          51 60 24 17 24 hvcurveto
          65 -49 47 -108 9 -35 rrcurveto
          -11 -16 -2 -11 -6 hvcurveto
          -6 -8 -2 -13 -14 vvcurveto
          -30 9 -36 13 -17 vhcurveto
          -9 9 36 -4 49 hhcurveto
          65 62 7 10 6 hvcurveto
          4 11 2 12 14 vvcurveto
          31 -9 35 -13 24 vhcurveto
          6 -6 -2 2 -25 hhcurveto
          -20 38 -79 139 -78 65 71 48 48 41 14 67 rrcurveto
          -2 5 6 2 callsubr
          14 16 5 10 8 hvcurveto
          6 16 6 27 25 vvcurveto
          19 -3 19 -9 11 vhcurveto
          15 -27 -61 10 -54 hhcurveto
          -30 -29 -3 -7 -18 hvcurveto
          -8 -19 -6 -28 -27 vvcurveto
          -19 3 -19 9 -14 vhcurveto
          -9 10 8 -5 12 hhcurveto
          3 4 0 1 4 hvcurveto
          -73 -22 -128 -53 -78 hhcurveto
          -6 -5 0 1 -5 hvcurveto
          -1 53 -3 15 -8 56 rrcurveto
          -1 5 4 -1 6 hhcurveto
          13 13 5 7 14 50 callsubr
          hintmask 11011100
          4 -8 -38 4 -43 hhcurveto
          -51 -59 -6 -20 -24 hvcurveto
          -5 -7 -2 -25 -25 vvcurveto
          -25 2 -25 5 -6 vhcurveto
          16 -10 23 0 19 -2 rrcurveto
          endchar
        </CharString>
        <CharString name="L">
          -26 -2 127 -127 214 362 133 hstemhm
          109 144 -130 130 hintmask 10110000
          59 698 rmoveto
          -7 -11 -7 -41 -34 vvcurveto
          -13 1 -14 4 -5 vhcurveto
          -4 11 13 -2 14 hhcurveto
          10 11 1 2 10 hvcurveto
          -6 -71 -4 -15 -63 vvcurveto
          hintmask 01101000
          -63 4 -99 10 -132 vhcurveto
          1 -9 -10 1 -10 hhcurveto
          -12 -11 -1 -5 -10 hvcurveto
          -8 -2 -2 -13 -15 vvcurveto
          -29 8 -35 4 -8 vhcurveto
          -22 47 83 -8 89 hhcurveto
          132 153 18 18 53 hvcurveto
          7 23 3 22 20 vvcurveto
          35 -9 33 -14 41 vhcurveto
          3 -13 -13 1 -12 hhcurveto
          -36 -33 -10 -21 -38 hvcurveto
          3 -43 rlineto
          hintmask 10110000
          -10 -15 -70 -3 -28 hhcurveto
          -32 -33 4 5 -1 hvcurveto
          -26 93 -7 116 103 vvcurveto
          39 1 53 2 38 vhcurveto
          -3 11 12 -1 11 hhcurveto
          22 19 4 4 11 hvcurveto
          4 4 2 12 15 vvcurveto
          30 -8 45 -7 12 vhcurveto
          6 -9 -77 3 -73 hhcurveto
          -73 -20 -3 -6 -22 hvcurveto
          endchar
        </CharString>
        <CharString name="M">
          153 0 152 -132 -21 700 -20 21 -20 hstemhm
          57 247 -203 132 -132 144 274 244 -192 144 hintmask 1001001010000000
          245 410 rmoveto
          -54 40 87 -77 36 hhcurveto
          37 86 78 54 40 hvcurveto
          -75 4 -117 8 -67 vhcurveto
          -16 -17 -4 -8 -15 hvcurveto
          hintmask 1001100100000000
          -11 77 callsubr
          11 -12 vhcurveto
          -18 17 36 -9 59 hhcurveto
          39 46 4 5 6 hvcurveto
          18 7 7 44 35 vvcurveto
          19 -2 16 -3 8 10 callgsubr
          hintmask 1001100010000000
          -69 callgsubr
          5 4 -1 6 hhcurveto
          13 13 5 7 14 hvcurveto
          7 12 5 24 24 vvcurveto
          21 -4 20 -8 10 vhcurveto
          16 -23 -60 13 -54 hhcurveto
          -42 -38 -8 -21 -16 -34 callgsubr
          5 -3 11 -3 11 -2 -31 -35 -81 -68 -32 -39 -32 39 -82 67 -31 35 11 1 11 4 13 6 rrcurveto
          4 7 2 10 12 vvcurveto
          29 -10 38 -7 17 vhcurveto
          hintmask 1010100100000000
          17 -14 -47 9 -47 hhcurveto
          -49 -50 -10 -18 -15 -34 callgsubr
          14 -9 19 4 15 -7 rrcurveto
          hintmask 1001010100000000
          -73 callsubr
          -18 -13 47 callgsubr
          -10 77 callsubr
          10 -12 vhcurveto
          hintmask 0101010100000000
          -13 7 62 -15 59 hhcurveto
          41 38 7 20 18 hvcurveto
          11 12 4 19 19 vvcurveto
          23 -6 24 -11 15 10 callgsubr
          hintmask 1001001100000000
          5 64 5 128 2 70 rrcurveto
          endchar
        </CharString>
        <CharString name="N">
          96 0 154 393 151 1 32 callgsubr
          hintmask 11010010
          -65 callgsubr
          hintmask 11001100
          -39 callgsubr
          hintmask 11010100
          4 callgsubr
          hintmask 11001100
          -61 callgsubr
          hintmask 10110010
          -39 callsubr
          hintmask 11010100
          7 callsubr
          endchar
        </CharString>
        <CharString name="Ntilde">
          96 0 154 393 151 1 -20 78 -20 38 65 -17 65 18 32 callgsubr
          hintmask 1101101100100000
          -65 callgsubr
          hintmask 1101101011000000
          -39 callgsubr
          hintmask 1101101101000000
          4 callgsubr
          hintmask 1101101011000000
          -61 callgsubr
          hintmask 1011101100100000
          -39 callsubr
          hintmask 1101101101000000
          7 callsubr
          32 323 -74 callsubr
          hintmask 1101010101000000
          -84 callgsubr
          hintmask 1101101101000000
          -54 callgsubr
        </CharString>
        <CharString name="O">
          -22 callsubr
          -82 callgsubr
          endchar
        </CharString>
        <CharString name="OE">
          254 -13 30 callgsubr
          203 -186 142 121 186 61 198 -118 118 hstemhm
          41 129 208 185 hintmask 10010111
          534 -20 callgsubr
          51 5 rlineto
          -11 3 -14 6 -5 vhcurveto
          -6 7 22 -1 15 hhcurveto
          21 -92 callgsubr
          -20 -57 callsubr
          2 12 53 8 44 hhcurveto
          31 27 -4 -10 12 hvcurveto
          -3 -33 rlineto
          hintmask 00111011
          -83 callsubr
          -65 20 -127 hhcurveto
          -69 -90 -6 -5 -64 hvcurveto
          -270 -37 -94 -200 -165 vvcurveto
          -246 209 -49 76 19 18 3 6 14 vhcurveto
          hintmask 01011011
          -15 60 107 -11 107 hhcurveto
          108 58 -87 callgsubr
          hintmask 10011011
          -13 -18 -25 -5 -28 hhcurveto
          -47 -53 14 15 -33 hvcurveto
          -152 18 rmoveto
          hintmask 00111011
          -5 -17 -16 -2 -15 hhcurveto
          -95 -69 80 108 119 85 111 151 hvcurveto
          -18 -90 -10 -107 -103 vvcurveto
          -32 1 -46 3 -33 vhcurveto
          endchar
        </CharString>
        <CharString name="Oacute">
          -22 callsubr
          0 85 161 -20 hstemhm
          -2 callsubr
          hintmask 11011100
          -98 callsubr
          256 800 -91 callsubr
          hintmask 10111100
          -77 callsubr
        </CharString>
        <CharString name="Ocircumflex">
          -22 callsubr
          47 -20 179 -20 -82 callgsubr
          278 631 -103 callsubr
        </CharString>
        <CharString name="Odieresis">
          -22 callsubr
          53 75 callgsubr
          38 149 92 12 callgsubr
          -7 138 hintmask 11111010
          -98 callsubr
          52 641 rmoveto
          -103 callgsubr
          hintmask 11111100
          -97 callsubr
        </CharString>
        <CharString name="Ograve">
          -22 callsubr
          244 -20 -82 callgsubr
          -45 799 -101 callgsubr
        </CharString>
        <CharString name="Oslash">
          77 -46 -21 57 -12 callgsubr
          57 -20 hstem
          -2 callsubr
          vstem
          449 702 rmoveto
          -242 -169 -236 -201 -94 37 -87 84 -50 hvcurveto
          -30 -84 rlineto
          -6 4 -9 16 -2 vhcurveto
          68 75 rlineto
          -11 37 46 -7 40 hhcurveto
          231 131 230 198 101 -34 92 -74 51 hvcurveto
          27 80 rlineto
          4 -6 11 -14 2 vhcurveto
          -22 -23 -22 -23 -20 -24 rrcurveto
          8 -26 -27 5 -35 hhcurveto
          -12 -138 rmoveto
          -86 -120 -73 -131 -61 -138 rrcurveto
          -21 28 -9 37 39 vvcurveto
          128 97 158 132 vhcurveto
          10 4 2 callsubr
          -100 -442 rmoveto
          -10 -9 0 1 -9 hvcurveto
          91 123 75 130 61 139 rrcurveto
          19 -26 9 -34 -37 vvcurveto
          -129 -106 -167 -121 vhcurveto
          endchar
        </CharString>
        <CharString name="Otilde">
          -22 callsubr
          55 76 callsubr
          -2 callsubr
          hintmask 11110111
          -98 callsubr
          252 747 -74 callsubr
          hintmask 11101011
          -84 callgsubr
          hintmask 11110111
          -54 callgsubr
        </CharString>
        <CharString name="P">
          -11 -1 131 88 125 176 -20 80 133 -6 -20 hstemhm
          38 229 -143 157 -157 248 110 152 hintmask 1110110010000000
          464 706 rmoveto
          -57 -68 -29 -27 -84 9 callgsubr
          hintmask 1111010010000000
          12 -17 -29 6 -34 hhcurveto
          -36 -42 -7 -14 -40 hvcurveto
          -10 -13 -5 -25 -27 vvcurveto
          -39 10 -43 16 -20 vhcurveto
          -4 18 20 -1 43 callsubr
          hintmask 1111000110000000
          -8 -45 -2 -101 -87 -88 2 -26 -44 vvcurveto
          1 -4 -5 0 -5 hhcurveto
          -15 -25 -5 -13 -8 hvcurveto
          -8 -11 -5 -19 -19 vvcurveto
          -17 4 -17 9 -10 vhcurveto
          -13 4 77 -7 86 hhcurveto
          86 36 26 callgsubr
          -29 37 callgsubr
          hintmask 1110101010000000
          5 40 1 8 22 vvcurveto
          22 -1 22 -1 5 vhcurveto
          -21 34 35 -9 40 hhcurveto
          160 86 146 131 118 -69 93 -101 hvcurveto
          hintmask 1111010010000000
          -197 -275 18 callsubr
        </CharString>
        <CharString name="Q">
          99 -148 -21 159 -12 callgsubr
          hstem
          38 157 399 53 callgsubr
          -230 -200 -149 94 -133 225 34 63 3 19 27 hvcurveto
          9 -18 9 -20 10 -19 rrcurveto
          -19 -31 -11 -21 -6 hvcurveto
          -1 -3 0 -4 -4 vvcurveto
          -30 22 -34 23 -10 vhcurveto
          -5 11 15 -2 16 hhcurveto
          64 93 31 33 34 hvcurveto
          2 6 0 8 8 vvcurveto
          31 -11 43 -17 11 vhcurveto
          3 -6 -7 81 callsubr
          -15 -16 -6 -10 -13 hvcurveto
          -8 31 -9 31 -9 31 rrcurveto
          61 66 45 92 132 vvcurveto
          168 -72 161 -200 vhcurveto
          -253 -410 rmoveto
          117 101 156 138 99 61 -81 -96 -139 -126 -127 -119 -95 -59 80 90 vhcurveto
          endchar
        </CharString>
        <CharString name="R">
          54 -1 131 -109 -21 515 190 -123 123 3 -20 hstemhm
          39 221 -132 150 -150 217 130 145 hintmask 1010010010000000
          449 705 rmoveto
          -47 -59 -22 -33 -104 9 callgsubr
          hintmask 1000110010000000
          10 -32 -36 4 -33 hhcurveto
          -29 -26 -3 -5 -17 hvcurveto
          -16 -11 -7 -38 -37 vvcurveto
          -42 9 -42 19 -4 vhcurveto
          hintmask 1010000110000000
          -8 8 16 -3 16 hhcurveto
          12 12 2 3 7 hvcurveto
          13 callgsubr
          -4 -9 0 -14 -24 vvcurveto
          -34 1 -5 3 -7 vhcurveto
          -13 4 17 -7 86 hhcurveto
          86 86 7 13 4 21 callsubr
          5 34 vvcurveto
          35 -1 5 -3 7 vhcurveto
          12 -11 -20 6 -18 hhcurveto
          -7 -7 -1 -2 -5 hvcurveto
          hintmask 0110001010000000
          3 14 2 17 18 vvcurveto
          17 -2 20 -3 15 vhcurveto
          5 -2 179 -4 46 -110 rrcurveto
          2 -6 -6 2 -7 hhcurveto
          -6 -6 -2 -4 -5 hvcurveto
          -8 -8 -3 -14 -14 vvcurveto
          -26 10 -26 14 -5 vhcurveto
          -11 32 29 -6 39 hhcurveto
          48 58 0 17 33 hvcurveto
          8 8 5 19 20 vvcurveto
          19 -5 20 -10 9 vhcurveto
          4 -10 -8 2 -8 hhcurveto
          -8 -6 -2 -2 -4 hvcurveto
          -4 21 -107 85 -83 58 rrcurveto
          62 34 79 66 99 vvcurveto
          76 -47 152 -124 vhcurveto
          hintmask 1001010010000000
          -189 -271 18 callsubr
        </CharString>
        <CharString name="S">
          -37 -10 125 -125 209 -198 -21 301 130 109 206 -141 125 55 callgsubr
          hintmask 0011101100000000
          60 185 rmoveto
          -14 callgsubr
          hintmask 1001011010000000
          -50 callsubr
          hintmask 1001101100000000
          -29 callsubr
          hintmask 1001011100000000
          -36 callsubr
          hintmask 0101101100000000
          14 callgsubr
          endchar
        </CharString>
        <CharString name="Scaron">
          -37 -10 125 -114 -21 219 82 0 130 0 109 -109 174 -65 206 -141 125 0 29 129 -20 55 callgsubr
          hintmask 0101000011101000
          460 864 -60 callgsubr
          -41 24 65 -84 49 hhcurveto
          54 63 80 callgsubr
          -400 -679 rmoveto
          -14 callgsubr
          hintmask 1010010011101000
          -50 callsubr
          hintmask 1001001001110000
          -29 callsubr
          hintmask 1010100101110000
          -36 callsubr
          14 callgsubr
          endchar
        </CharString>
        <CharString name="T">
          60 21 -21 504 184 -104 116 hstemhm
          234 204 -151 151 -151 204 hintmask 11000100
          241 28 rmoveto
          -17 10 29 -11 83 hhcurveto
          83 28 11 17 10 hvcurveto
          6 10 1 15 26 vvcurveto
          46 -3 11 -3 4 vhcurveto
          -7 4 -15 3 -13 2 rrcurveto
          2 -12 -10 1 -1 hhcurveto
          hintmask 10101000
          8 42 3 43 81 vvcurveto
          80 -3 122 -3 64 vhcurveto
          67 -2 38 -4 8 -5 17 -52 rcurveline
          hintmask 11010000
          -13 23 25 -4 26 hhcurveto
          28 18 5 5 25 hvcurveto
          5 19 2 17 27 vvcurveto
          43 -5 41 -9 27 vhcurveto
          hintmask 10110000
          3 -77 -120 9 -145 hhcurveto
          hintmask 11010000
          -146 -110 -9 -3 -77 hvcurveto
          -9 -27 -5 -41 -43 vvcurveto
          -27 2 -17 5 -19 vhcurveto
          -5 25 18 -5 28 hhcurveto
          26 25 4 13 23 hvcurveto
          17 52 rlineto
          hintmask 10101000
          8 5 38 4 67 2 rrcurveto
          -3 -64 -3 -122 -80 vvcurveto
          -81 3 -43 8 -42 vhcurveto
          -5 callsubr
          -14 -2 -14 38 callgsubr
          hintmask 11010000
          -4 -5 -2 -18 -37 vvcurveto
          -27 1 -15 6 -10 vhcurveto
          endchar
        </CharString>
        <CharString name="Thorn">
          -27 -1 131 32 109 248 -20 32 124 -124 173 hstemhm
          42 216 -132 218 151 118 hintmask 11101101
          257 609 rmoveto
          8 -1 62 -4 15 vhcurveto
          7 -18 -1 3 -35 hhcurveto
          -71 -54 -13 -24 -13 hvcurveto
          -12 -7 -6 -24 -28 vvcurveto
          -30 7 -33 16 -19 vhcurveto
          -4 18 21 -3 43 callsubr
          hintmask 11110011
          13 callgsubr
          -8 -11 -5 -19 -19 vvcurveto
          -17 4 -17 9 -10 vhcurveto
          -13 4 67 -7 86 hhcurveto
          86 26 26 callgsubr
          -23 37 callgsubr
          4 11 2 11 10 vvcurveto
          6 -1 6 -1 5 -2 callgsubr
          1 2 0 2 5 vvcurveto
          hintmask 11110101
          1 -241 18 callgsubr
        </CharString>
        <CharString name="U">
          -41 callgsubr
          20 callgsubr
          hintmask 11011100
          -100 callgsubr
          hintmask 11101100
          -100 callsubr
          endchar
        </CharString>
        <CharString name="Uacute">
          -41 callgsubr
          246 -89 callgsubr
          -142 357 -89 callsubr
        </CharString>
        <CharString name="Ucircumflex">
          -41 callgsubr
          47 -20 179 -20 20 callgsubr
          hintmask 11011111
          -100 callgsubr
          hintmask 11101111
          -100 callsubr
          -109 188 -103 callsubr
        </CharString>
        <CharString name="Udieresis">
          -41 callgsubr
          53 160 80 callsubr
          21 12 callgsubr
          7 147 hintmask 1101111110000000
          -100 callgsubr
          hintmask 1110111110000000
          -100 callsubr
          -335 198 rmoveto
          -105 callgsubr
        </CharString>
        <CharString name="Ugrave">
          -41 callgsubr
          244 -89 callgsubr
          -412 356 -101 callgsubr
        </CharString>
        <CharString name="V">
          106 17 -21 564 140 hstemhm
          4 234 -154 154 297 158 hintmask 11101000
          490 5 rmoveto
          30 13 171 479 2 69 rrcurveto
          -3 2 14 -3 17 59 callsubr
          3 7 hvcurveto
          11 11 6 29 28 vvcurveto
          23 -4 22 -8 11 vhcurveto
          9 -10 -65 3 -61 hhcurveto
          -78 -45 -5 -6 hvcurveto
          -16 -10 -6 -40 -30 vvcurveto
          -12 1 -10 2 -6 vhcurveto
          -7 10 -9 16 6 23 1 3 vhcurveto
          3 1 -4 -6 -56 -80 -264 -69 -115 hvcurveto
          -68 126 -80 258 51 vvcurveto
          6 1 4 3 vhcurveto
          -3 23 -1 6 16 10 9 7 vhcurveto
          2 6 1 10 12 vvcurveto
          30 -6 40 -16 10 vhcurveto
          6 -25 5 -78 -61 -85 -3 -9 -10 vhcurveto
          -10 -16 -5 -23 -22 vvcurveto
          -27 7 -27 13 -9 vhcurveto
          -3 8 8 -2 8 hhcurveto
          12 12 4 5 13 hvcurveto
          hintmask 11011000
          -1 -1 0 -2 -2 vvcurveto
          -57 170 -489 29 -12 vhcurveto
          -6 35 37 -3 36 hhcurveto
          35 33 3 6 31 hvcurveto
          endchar
        </CharString>
        <CharString name="W">
          248 20 -21 22 -21 549 147 3 -20 hstemhm
          155 235 136 234 hintmask 10101100
          456 486 rmoveto
          -46 -88 -182 -36 -39 hvcurveto
          -2 70 -51 177 -19 35 rrcurveto
          -1 3 4 0 4 hhcurveto
          16 20 5 6 8 50 callsubr
          4 -28 -34 3 -34 hhcurveto
          -53 -52 -7 -18 -22 -34 callgsubr
          16 -10 23 0 19 -2 7 -131 44 -137 59 -126 rrcurveto
          -11 -11 -6 -6 -6 hvcurveto
          -6 -6 -2 -20 -20 vvcurveto
          -28 4 -30 4 -9 vhcurveto
          -21 1 54 -7 60 hhcurveto
          50 28 5 5 10 8 callgsubr
          -13 6 -31 4 -11 1 31 35 61 77 32 39 32 -39 62 -78 31 -35 -11 -2 -31 -3 -5 -3 rrcurveto
          53 callsubr
          hintmask 01011100
          -17 1 63 -10 67 hhcurveto
          37 22 3 6 13 8 callgsubr
          -14 8 -2 -3 -19 5 59 119 43 149 8 134 rrcurveto
          -1 5 48 callgsubr
          15 18 5 7 15 hvcurveto
          3 5 1 10 12 vvcurveto
          36 -9 54 -15 12 vhcurveto
          2 -10 -71 8 -60 hhcurveto
          -36 -33 -3 -9 -13 hvcurveto
          -5 -6 -2 -20 -21 vvcurveto
          -30 4 -32 10 -8 vhcurveto
          20 -12 -5 -3 26 -9 -20 -56 -43 -148 -9 -75 rrcurveto
          38 -37 -91 181 -45 hhcurveto
          endchar
        </CharString>
        <CharString name="X">
          85 -4 131 455 121 hstemhm
          28 231 226 241 -228 228 hintmask 11110000
          373 293 rmoveto
          36 -45 75 -88 53 -33 rrcurveto
          -22 -7 -1 -8 -16 hvcurveto
          -5 -11 -2 -13 -13 vvcurveto
          -24 7 -24 9 -21 vhcurveto
          -11 28 32 -5 32 hhcurveto
          42 43 8 15 39 hvcurveto
          6 4 3 10 12 vvcurveto
          31 -17 46 -18 12 vhcurveto
          -7 -33 -1 -1 hhcurveto
          47 -116 139 -53 34 vhcurveto
          51 35 125 138 1 54 rrcurveto
          -3 10 22 0 14 hhcurveto
          14 15 7 25 24 vvcurveto
          15 -3 15 -4 11 vhcurveto
          15 -33 -35 6 -36 hhcurveto
          -28 -29 -4 -6 -27 hvcurveto
          hintmask 11101000
          -22 -18 -10 -22 -25 vvcurveto
          -13 3 -13 5 -14 vhcurveto
          -4 2 9 -2 9 hhcurveto
          7 8 1 1 3 hvcurveto
          -43 -30 -95 -100 -33 -39 -50 72 -87 88 -22 9 rrcurveto
          -1 6 48 callgsubr
          6 5 1 4 7 hvcurveto
          6 8 3 12 12 vvcurveto
          30 -16 36 -26 9 vhcurveto
          7 -18 -22 2 -21 hhcurveto
          -46 -49 -9 -11 -29 hvcurveto
          -3 -12 -1 -13 -12 vvcurveto
          -33 8 -31 18 -18 vhcurveto
          9 28 1 3 10 hvcurveto
          1 -54 115 -126 54 -35 rrcurveto
          -54 -34 -116 -137 -50 vvcurveto
          1 -11 -22 1 -13 hhcurveto
          -16 -23 -13 -30 -30 vvcurveto
          -11 2 -11 4 -11 vhcurveto
          -12 29 47 -10 43 hhcurveto
          24 24 3 8 18 hvcurveto
          21 27 15 22 36 83 callgsubr
          11 -2 11 vhcurveto
          5 -6 -8 1 -9 hhcurveto
          -5 -6 0 -1 -5 hvcurveto
          35 21 95 104 32 40 rrcurveto
          endchar
        </CharString>
        <CharString name="Y">
          17 20 -21 703 -87 callsubr
          endchar
        </CharString>
        <CharString name="Yacute">
          17 20 -21 703 -20 266 -87 callsubr
          -104 388 -89 callsubr
        </CharString>
        <CharString name="Ydieresis">
          17 20 -21 703 -20 43 82 callgsubr
          192 12 callgsubr
          vstem
          293 733 rmoveto
          -106 callsubr
          145 -199 -98 callgsubr
          endchar
        </CharString>
        <CharString name="Z">
          35 callgsubr
          26 -20 hstemhm
          23 227 -189 189 hintmask 10100010
          250 140 64 callsubr
          24 callgsubr
          hintmask 10011010
          -38 callgsubr
          hintmask 10100100
          23 callgsubr
          hintmask 10011100
          -40 callsubr
          hintmask 01100100
          23 callsubr
          hintmask 10100100
          -28 callsubr
          hintmask 01100010
          42 callsubr
        </CharString>
        <CharString name="Zcaron">
          35 callgsubr
          0 63 -37 -20 186 -20 hstemhm
          23 227 hintmask 10001011
          533 864 -48 callgsubr
          30 -59 32 -23 9 -18 callgsubr
          -37 22 64 -88 55 hhcurveto
          50 64 80 callgsubr
          -283 -724 64 callsubr
          hintmask 10100011
          24 callgsubr
          hintmask 10010111
          -38 callgsubr
          hintmask 10100011
          23 callgsubr
          hintmask 10010111
          -40 callsubr
          hintmask 01100011
          23 callsubr
          hintmask 10100011
          -28 callsubr
          hintmask 01100011
          42 callsubr
        </CharString>
        <CharString name="_0127">
          -665 endchar
        </CharString>
        <CharString name="a">
          -42 -8 108 -95 -21 391 138 -1 -37 callsubr
          hintmask 01101100
          -73 callgsubr
          hintmask 10101001
          -86 callsubr
          hintmask 10101010
          -95 callsubr
          hintmask 01011100
          -75 callsubr
          hintmask 10101100
          -88 callgsubr
          endchar
        </CharString>
        <CharString name="aacute">
          -52 callsubr
          21 74 161 -37 callsubr
          hintmask 0110011100000000
          -73 callgsubr
          hintmask 1010011001000000
          -86 callsubr
          hintmask 1010011010000000
          -95 callsubr
          hintmask 0101111100000000
          -75 callsubr
          hintmask 1010011100000000
          -88 callgsubr
          201 347 -91 callsubr
          hintmask 1001111100000000
          -77 callsubr
        </CharString>
        <CharString name="acircumflex">
          -52 callsubr
          226 -90 callgsubr
          235 188 -103 callsubr
        </CharString>
        <CharString name="acute">
          608 -21 161 -20 hstem
          572 722 -89 callsubr
        </CharString>
        <CharString name="adieresis">
          -52 callsubr
          93 160 47 callsubr
          44 122 18 -40 callgsubr
          -206 122 hintmask 0110111100000000
          -73 callgsubr
          hintmask 1010111001000000
          -86 callsubr
          hintmask 1010111010000000
          -95 callsubr
          hintmask 0101111100000000
          -75 callsubr
          hintmask 1010111100000000
          -88 callgsubr
          39 218 rmoveto
          -103 callgsubr
          hintmask 1010111000100000
          -97 callsubr
        </CharString>
        <CharString name="ae">
          167 -16 116 -116 141 -141 215 -188 -21 22 -21 30 -21 201 92 82 135 -104 104 2 -20 24 -20 hstemhm
          35 108 204 134 -134 163 150 108 hintmask 0010001100011010
          184 -16 rmoveto
          58 33 38 18 55 37 callsubr
          -4 -5 vvcurveto
          -4 callgsubr
          hintmask 0000101100011010
          -3 26 23 67 callgsubr
          27 26 3 5 28 hvcurveto
          hintmask 0001001100011010
          -5 23 27 -4 27 hhcurveto
          58 32 18 29 30 hvcurveto
          hintmask 0000011100011010
          -13 7 24 -24 29 hhcurveto
          29 16 37 41 4 34 rrcurveto
          hintmask 0010001100011010
          57 -9 -39 51 -24 hhcurveto
          hintmask 0100001010011010
          -29 -37 -74 -87 hhcurveto
          -56 -51 31 71 hvcurveto
          49 callsubr
          -109 -24 -24 -3 -6 -23 hvcurveto
          hintmask 1000001000111010
          9 -27 -28 6 -28 hhcurveto
          -33 -32 -9 -22 -27 hvcurveto
          1 -17 0 -17 -17 vvcurveto
          hintmask 0010001001010110
          -2 -21 78 -95 hhcurveto
          -139 -67 -167 -136 -119 52 -106 97 hvcurveto
          326 342 rmoveto
          hintmask 1000001010010110
          -70 callgsubr
          hintmask 1000001100011010
          -261 49 rmoveto
          48 61 -37 -25 hvcurveto
          -1 -31 -4 -45 -6 -106 rrcurveto
          -12 -1 -70 -19 -27 hhcurveto
          -46 -30 callgsubr
          endchar
        </CharString>
        <CharString name="agrave">
          -52 callsubr
          254 -90 callgsubr
          -78 346 -101 callgsubr
        </CharString>
        <CharString name="ampersand">
          45 -12 93 -75 -21 641 104 hstemhm
          35 103 -48 101 187 107 hintmask 10101100
          433 195 rmoveto
          -20 25 -58 67 -38 39 rrcurveto
          91 46 77 90 95 vvcurveto
          91 -72 82 -114 -127 -82 -102 -109 -53 19 -56 43 -46 vhcurveto
          hintmask 10110100
          -73 -40 -44 -90 -80 vvcurveto
          -87 52 -79 111 63 58 26 48 81 vhcurveto
          hintmask 01101100
          28 -31 34 -35 10 -11 98 70 rcurveline
          -9 8 -29 31 -24 26 37 35 5 -3 45 46 9 -14 9 -17 17 -7 rrcurveto
          4 2 84 69 8 vvcurveto
          -2 30 -97 101 -47 24 -28 -12 -45 -38 -22 -22 5 -9 24 -25 10 -9 -13 -31 -15 -8 -55 -45 rrcurveto
          -183 229 rmoveto
          -32 41 -27 21 44 vvcurveto
          52 39 44 62 56 30 -37 -43 -51 -42 -35 -86 -36 vhcurveto
          -29 -137 rmoveto
          49 -48 30 -47 41 -47 rrcurveto
          hintmask 10110100
          -41 -39 -57 -23 -34 hhcurveto
          -42 -31 34 39 44 40 50 43 39 hvcurveto
          endchar
        </CharString>
        <CharString name="aring">
          -52 callsubr
          73 46 136 47 47 callsubr
          80 51 53 -40 callgsubr
          -169 48 hintmask 0110111100010000
          372 794 rmoveto
          -77 -55 -75 -63 -48 32 -43 70 68 49 40 81 56 -23 52 -64 hvcurveto
          -81 -131 24 callsubr
          -100 -679 -58 callsubr
          hintmask 1010111110000000
          -4 callgsubr
          -2 10 73 67 callgsubr
          67 53 18 13 8 hvcurveto
          hintmask 1010111100100000
          -79 callsubr
          hintmask 1010111101000000
          -91 callgsubr
          hintmask 1010111100010000
          -2 -13 20 -107 vhcurveto
          hintmask 0101111101000000
          -48 -25 -4 -24 -28 hvcurveto
          1 -17 0 -37 -17 vvcurveto
          -75 callsubr
          hintmask 1010111110000000
          -88 callgsubr
          endchar
        </CharString>
        <CharString name="asciicircum">
          520 -21 159 -20 hstem
          454 503 rmoveto
          -25 50 -30 49 -44 42 rrcurveto
          9 -16 -15 5 -14 hhcurveto
          -13 -13 -4 -10 -13 hvcurveto
          -49 -47 -23 -47 -27 -47 rrcurveto
          -78 callgsubr
          46 56 23 29 21 -31 50 -85 callsubr
        </CharString>
        <CharString name="asciitilde">
          -70 185 63 callsubr
          557 279 -63 callgsubr
          -51 -14 -11 -11 -29 hhcurveto
          hintmask 01100000
          -60 -173 48 -86 hhcurveto
          -53 -26 -18 -76 -9 -64 callsubr
          56 13 17 5 21 hhcurveto
          hintmask 10010000
          66 175 -48 82 hhcurveto
          51 27 19 75 9 hvcurveto
          endchar
        </CharString>
        <CharString name="asterisk">
          -281 341 -21 190 -20 126 -20 hstem
          169 46 vstem
          192 414 rmoveto
          23 -49 30 -24 32 -21 rrcurveto
          7 5 1 6 3 hvcurveto
          -12 40 -14 48 -31 29 16 6 88 25 14 22 rrcurveto
          3 -7 9 -3 1 vhcurveto
          -53 -34 -10 -13 -41 hvcurveto
          55 -1 35 -13 35 vhcurveto
          2 -3 -3 2 -3 hhcurveto
          -3 -4 -2 -2 -2 hvcurveto
          -13 -35 -1 -35 -55 vvcurveto
          13 -41 -34 10 -53 hhcurveto
          -3 -1 -7 -9 -3 vvcurveto
          14 -22 88 -25 16 -6 -31 -29 -14 -48 -12 -40 rrcurveto
          -6 3 5 -1 4 hhcurveto
          35 21 30 24 23 49 rrcurveto
          endchar
        </CharString>
        <CharString name="at">
          245 -175 88 128 97 223 112 146 89 hstemhm
          39 94 105 101 149 109 -109 194 105 94 hintmask 1111111010000000
          425 361 rmoveto
          39 33 -30 -20 hvcurveto
          -1 -25 -3 -37 -5 -85 rrcurveto
          -10 -40 -16 -23 -39 -47 45 63 49 29 66 57 vhcurveto
          -66 -317 rmoveto
          46 55 25 21 25 hvcurveto
          -46 15 43 -3 41 hhcurveto
          141 156 79 222 216 -147 150 -220 -273 -202 -232 -279 -237 146 -135 237 100 88 24 31 68 hvcurveto
          -32 83 rlineto
          -31 -61 -76 -19 -80 hhcurveto
          -174 -122 89 205 238 165 174 205 159 125 -105 -180 -146 -82 -50 -71 -14 -16 2 5 -14 hvcurveto
          3 5 4 112 49 vvcurveto
          24 -1 16 -2 2 vhcurveto
          7 0 -1 14 hhcurveto
          29 15 4 11 20 hvcurveto
          hintmask 1111110110000000
          2 6 1 4 36 vvcurveto
          36 -1 3 -2 6 vhcurveto
          -2 -9 17 -89 -37 -22 -3 -20 -22 vhcurveto
          -58 vlineto
          -3 -12 80 -83 hhcurveto
          -109 -55 -137 -109 -95 42 -87 79 hvcurveto
          endchar
        </CharString>
        <CharString name="atilde">
          -52 callsubr
          83 65 -17 65 18 -37 callsubr
          hintmask 0110101110000000
          -73 callgsubr
          hintmask 1010101100100000
          -86 callsubr
          hintmask 1010101101000000
          -95 callsubr
          hintmask 0101101110000000
          -75 callsubr
          hintmask 1010101110000000
          -88 callgsubr
          219 294 -74 callsubr
          hintmask 1010010110000000
          -84 callgsubr
          hintmask 1010101110000000
          -54 callgsubr
        </CharString>
        <CharString name="b">
          -60 -8 135 -135 190 -161 -21 410 102 246 -20 hstemhm
          15 248 -125 125 -125 138 170 125 hintmask 0101100110000000
          395 -8 rmoveto
          113 63 151 111 123 -77 135 -143 -24 -26 -4 -8 -28 hvcurveto
          18 3 30 71 vvcurveto
          53 0 46 -5 10 vhcurveto
          24 -28 -77 6 -48 hhcurveto
          -91 -8 -21 2 hvcurveto
          hintmask 1001110010000000
          -3 -8 -1 -8 -40 vvcurveto
          -41 1 -8 3 -8 vhcurveto
          -15 26 60 -3 17 hhcurveto
          hintmask 0101101010000000
          6 6 0 1 4 hvcurveto
          -1 -112 -2 -103 -104 vvcurveto
          -37 0 -37 1 -38 vhcurveto
          3 -5 -15 1 -16 hhcurveto
          -28 -34 -3 -7 -11 hvcurveto
          -5 -4 -3 -42 -39 vvcurveto
          -23 1 -25 2 -8 vhcurveto
          hintmask 0011110010000000
          -15 9 37 -16 62 hhcurveto
          22 83 2 2 10 hvcurveto
          4 15 1 12 8 vvcurveto
          5 0 3 -1 1 vhcurveto
          hintmask 0101110010000000
          -17 54 35 -39 57 hhcurveto
          -39 418 rmoveto
          71 -5 19 -90 -51 vvcurveto
          hintmask 1001110010000000
          -86 -53 -51 -48 -33 -49 24 12 vhcurveto
          3 106 0 56 2 31 rrcurveto
          24 1 37 30 50 hhcurveto
          endchar
        </CharString>
        <CharString name="backslash">
          76 callgsubr
          21 702 rmoveto
          95 -303 154 -271 223 -235 rrcurveto
          16 2 4 9 6 vvcurveto
          -107 307 -146 277 -219 225 rrcurveto
          -14 -2 -6 -11 -4 vvcurveto
          endchar
        </CharString>
        <CharString name="bar">
          -476 -165 -21 908 -20 hstemhm
          59 51 -30 30 -30 50 hintmask 11100000
          110 -173 rmoveto
          hintmask 11001000
          12 162 8 163 160 vvcurveto
          hintmask 11010000
          138 41 callgsubr
          hintmask 11100000
          -15 -133 -6 -135 -138 vvcurveto
          -160 8 -165 13 -164 vhcurveto
          45 callgsubr
          rrcurveto
          endchar
        </CharString>
        <CharString name="braceleft">
          70 callgsubr
          -6 116 19 85 -52 52 -52 86 hintmask 11110000
          410 -124 rmoveto
          6 13 6 13 11 vvcurveto
          12 -6 11 -17 8 vhcurveto
          -16 -37 -34 -6 -29 hhcurveto
          -44 -41 14 35 hvcurveto
          hintmask 11100100
          31 34 81 41 81 -138 30 17 16 138 29 85 vvcurveto
          hintmask 11110000
          42 -34 79 34 vvcurveto
          30 27 24 50 29 38 -8 -21 46 vhcurveto
          9 13 7 12 12 vvcurveto
          10 -4 11 -12 10 vhcurveto
          23 -35 -53 15 -50 hhcurveto
          -72 -65 -32 -74 hvcurveto
          hintmask 11101000
          -52 33 -83 -43 vvcurveto
          -75 -102 -2 -43 vhcurveto
          -15 -12 -8 -19 -19 vvcurveto
          -24 12 -23 22 -10 vhcurveto
          88 -13 46 -9 -55 vvcurveto
          hintmask 11110000
          -46 -33 -81 -53 vvcurveto
          -74 66 -31 72 52 56 16 22 35 vhcurveto
          endchar
        </CharString>
        <CharString name="braceright">
          70 callgsubr
          187 86 -52 52 -52 85 19 116 hintmask 11001100
          25 -124 rmoveto
          -22 35 56 -16 52 hhcurveto
          72 66 31 74 hvcurveto
          hintmask 11100100
          53 -33 81 46 vvcurveto
          55 46 9 88 13 vhcurveto
          22 10 12 23 24 vvcurveto
          19 -8 19 -15 12 vhcurveto
          -43 -102 2 75 hvcurveto
          hintmask 11001100
          43 33 83 52 vvcurveto
          74 -65 32 -72 -50 -53 -15 -23 -35 vhcurveto
          -12 -10 -4 -11 -10 vvcurveto
          -12 7 -12 9 -13 vhcurveto
          21 46 38 8 29 hhcurveto
          50 27 -24 -30 hvcurveto
          hintmask 11100100
          -34 -34 -79 -42 -85 138 -29 -16 -17 -138 -30 -81 vvcurveto
          hintmask 11010100
          -41 34 -81 -31 vvcurveto
          -35 -41 -14 -44 -29 -34 6 16 -37 vhcurveto
          -17 -8 -6 -11 -12 vvcurveto
          -11 6 -13 6 -13 vhcurveto
          endchar
        </CharString>
        <CharString name="bracketleft">
          69 callsubr
          55 108 vstem
          375 -144 rmoveto
          1 4 1 4 4 vvcurveto
          13 -10 10 -3 3 vhcurveto
          8 -32 -32 5 -32 hhcurveto
          -28 -69 -4 -9 -29 hvcurveto
          14 111 7 143 110 vvcurveto
          110 -7 136 -14 108 vhcurveto
          -9 29 68 -4 29 hhcurveto
          33 34 5 8 33 hvcurveto
          5 6 2 6 6 vvcurveto
          6 -3 7 -4 7 vhcurveto
          12 -39 -38 4 -39 hhcurveto
          -52 -52 -7 -9 -51 hvcurveto
          -28 -132 -14 -131 -130 vvcurveto
          -135 15 -133 27 -133 vhcurveto
          -9 55 54 -7 53 hhcurveto
          40 38 4 12 38 hvcurveto
          endchar
        </CharString>
        <CharString name="bracketright">
          69 callsubr
          220 108 vstem
          8 -144 rmoveto
          -12 38 38 -4 40 hhcurveto
          53 54 7 9 55 hvcurveto
          27 133 15 133 135 vvcurveto
          130 -14 131 -28 132 vhcurveto
          9 -51 -52 7 -52 hhcurveto
          -39 -38 -4 -12 -39 hvcurveto
          -4 -7 -3 -7 -6 vvcurveto
          -6 2 -6 5 -6 vhcurveto
          -8 33 34 -5 33 hhcurveto
          29 68 4 9 29 hvcurveto
          -14 -108 -7 -136 -110 vvcurveto
          -110 7 -143 14 -111 vhcurveto
          9 -29 -69 4 -28 hhcurveto
          -32 -32 -5 -8 -32 hvcurveto
          -3 -3 -10 -10 -13 vvcurveto
          -4 1 -4 1 -4 vhcurveto
          endchar
        </CharString>
        <CharString name="brokenbar">
          -462 -143 -21 789 -20 hstem
          66 71 vstem
          124 621 rmoveto
          1 -2 -9 3 -12 hhcurveto
          -7 -9 -1 -3 -8 hvcurveto
          -8 -37 -3 -86 -36 vvcurveto
          -46 5 -76 6 -45 vhcurveto
          -3 7 -12 callsubr
          10 12 2 2 3 hvcurveto
          9 39 5 77 51 vvcurveto
          39 -3 85 -10 35 vhcurveto
          -781 vmoveto
          10 35 3 85 47 vvcurveto
          61 -5 47 -9 51 vhcurveto
          2 -3 -12 2 -10 hhcurveto
          -7 -7 -1 -3 -7 hvcurveto
          -6 -45 -5 -76 -46 vvcurveto
          -36 3 -86 8 -37 vhcurveto
          -3 8 9 2 callsubr
          12 9 3 1 2 hvcurveto
          endchar
        </CharString>
        <CharString name="bullet">
          -314 177 -21 304 -20 hstem
          273 194 rmoveto
          22 41 11 40 39 vvcurveto
          38 -10 38 -23 38 vhcurveto
          20 -33 -34 12 -32 hhcurveto
          -31 -33 -11 -21 -32 hvcurveto
          -24 -38 -10 -34 -36 vvcurveto
          -42 14 -43 20 -41 vhcurveto
          -27 32 30 -11 30 hhcurveto
          35 35 16 22 33 hvcurveto
          endchar
        </CharString>
        <CharString name="c">
          -55 -27 26 callsubr
          hintmask 10101000
          567 508 rmoveto
          -3 callgsubr
          hintmask 01011000
          42 callgsubr
          -132 122 -117 187 18 19 58 callgsubr
          hintmask 10101000
          -60 callsubr
          rlineto
          hintmask 01011000
          6 callgsubr
          hintmask 10101000
          -35 callgsubr
          endchar
        </CharString>
        <CharString name="ccedilla">
          -55 27 callgsubr
          -6 26 callsubr
          36 44 callsubr
          hintmask 1001011010010000
          322 -51 callsubr
          hintmask 1010011011000000
          -15 callgsubr
          hintmask 0110011011000000
          19 callgsubr
          hintmask 1010011010100000
          -25 callsubr
          0 21 15 -1 hvcurveto
          -2 19 19 -2 21 hhcurveto
          18 19 58 callgsubr
          hintmask 1000101011000000
          -60 callsubr
          rlineto
          hintmask 1010010111000000
          6 callgsubr
          hintmask 1010011011000000
          -24 callgsubr
          hintmask 1010010110100000
          42 callgsubr
          -106 77 -95 127 -35 hvcurveto
          -3 -15 -2 -21 -18 8 callsubr
          hintmask 1001011011000000
          62 callgsubr
        </CharString>
        <CharString name="cedilla">
          27 callgsubr
          30 -20 hstemhm
          252 44 callsubr
          hintmask 10011001
          372 -51 callsubr
          hintmask 10101100
          -15 callgsubr
          hintmask 01101100
          19 callgsubr
          hintmask 10101010
          -25 callsubr
          1 52 1 -5 hvcurveto
          -33 -6 0 -3 -3 hvcurveto
          -3 -16 -3 -23 -20 8 callsubr
          hintmask 10011100
          62 callgsubr
        </CharString>
        <CharString name="cent">
          -40 -85 -21 79 224 -188 -21 22 -21 349 203 -30 -20 151 -20 hstemhm
          28 134 89 71 -54 37 hintmask 1001101101000000
          302 -93 rmoveto
          6 82 rlineto
          hintmask 1010101101000000
          11 6 -1 15 hhcurveto
          14 20 58 callgsubr
          hintmask 1100101101000000
          -60 callsubr
          -13 -4 -22 -5 -18 -2 rlinecurve
          hintmask 1100101110000000
          3 58 2 64 66 47 -1 16 29 vvcurveto
          7 6 1 9 hhcurveto
          10 11 -1 -1 10 hvcurveto
          -6 -39 rlineto
          -24 callgsubr
          hintmask 1100011101000000
          1 -13 -12 0 -12 hhcurveto
          -13 -13 -1 -1 -12 hvcurveto
          -3 39 -5 41 -5 53 46 callsubr
          -14 -129 rcurveline
          -151 -36 -79 -121 -106 vvcurveto
          -114 91 -103 145 -25 vhcurveto
          8 -101 45 callgsubr
          rlinecurve
          -140 333 rmoveto
          hintmask 1100101110000000
          75 42 43 47 21 vhcurveto
          -75 vlineto
          -67 1 -56 4 -62 vhcurveto
          -56 12 -38 38 71 vvcurveto
          endchar
        </CharString>
        <CharString name="circumflex">
          570 -21 159 -20 hstem
          484 553 -103 callsubr
        </CharString>
        <CharString name="colon">
          -437 -5 160 175 82 callgsubr
          53 122 vstem
          154 3 rmoveto
          -107 callgsubr
          335 vmoveto
          -97 callsubr
        </CharString>
        <CharString name="comma">
          -451 -62 20 callsubr
          178 146 rmoveto
          -17 callgsubr
        </CharString>
        <CharString name="copyright">
          113 -1 95 100 91 -91 125 96 130 -88 88 -39 -20 55 -20 112 100 hstemhm
          37 112 87 79 124 79 122 97 hintmask 1101000111110000
          -58 callgsubr
          283 133 rmoveto
          -1 -1 -1 -2 -2 vvcurveto
          -10 23 -3 12 37 16 15 28 16 -2 47 -3 16 vhcurveto
          4 -5 -22 1 -14 hhcurveto
          hintmask 1100011111110000
          -14 -6 -1 -4 hhcurveto
          -2 -7 1 -33 -3 hhcurveto
          hintmask 1100100111110000
          28 -33 -28 11 -24 hhcurveto
          -66 -52 -87 -87 -88 53 -89 67 23 28 11 26 32 hvcurveto
          -27 1 -10 36 14 19 1 4 4 vhcurveto
          3 17 2 46 16 vvcurveto
          20 -3 0 -11 16 vhcurveto
          hintmask 1011000111110000
          4 -12 8 1 -62 hhcurveto
          -6 -1 -1 -1 -2 -5 1 -6 -1 vvcurveto
          hintmask 1100100111110000
          -12 -20 -19 -6 -16 hhcurveto
          -41 -21 44 43 43 20 42 39 17 20 -8 -16 21 hvcurveto
          endchar
        </CharString>
        <CharString name="currency">
          38 20 -21 78 113 290 117 53 -20 hstem
          92 131 263 104 vstem
          395 597 rmoveto
          -58 -57 -19 -31 -45 hvcurveto
          -12 16 -14 16 -12 13 -18 19 -30 23 -29 16 -14 -3 -12 -6 -9 -9 -9 -9 -7 -12 -4 -17 15 -29 12 -17 28 -29 17 -18 10 -8 16 -12 rrcurveto
          -46 -58 -25 -72 -67 vvcurveto
          -44 11 -43 24 -34 vhcurveto
          -14 -11 -12 -11 -11 -11 -23 -23 -18 -24 -14 -28 4 -17 7 -12 9 -9 9 -9 12 -6 14 -3 29 16 26 20 22 22 10 10 12 14 15 19 rrcurveto
          -15 32 41 -8 46 hhcurveto
          51 46 10 21 39 hvcurveto
          13 -18 15 -18 15 -15 22 -22 26 -20 29 -16 14 3 12 6 9 9 9 9 7 12 4 17 -15 30 -19 24 -21 21 -14 14 -16 13 -15 12 rrcurveto
          35 44 21 61 76 vvcurveto
          45 -7 43 -14 38 vhcurveto
          18 13 17 15 15 15 23 23 18 24 14 28 -4 17 -7 12 -9 9 -9 9 -12 6 -14 3 -29 -16 -27 -21 -21 -21 -5 -5 -15 -17 -9 -12 rrcurveto
          24 -29 -37 15 -52 hhcurveto
          -172 -295 rmoveto
          76 67 102 90 64 42 -52 -64 -91 -84 -83 -77 -63 -39 54 58 vhcurveto
          endchar
        </CharString>
        <CharString name="d">
          -59 0 127 -127 182 -169 -21 418 102 246 -20 hstemhm
          34 125 170 143 -130 130 -130 244 hintmask 0011111000000000
          210 -8 rmoveto
          57 35 39 17 54 hvcurveto
          -1 -1 0 -3 -5 vvcurveto
          -8 1 -12 4 -15 vhcurveto
          hintmask 0101110010000000
          -1 12 57 -3 36 hhcurveto
          67 35 10 21 16 hvcurveto
          -59 callsubr
          7 -11 -34 3 -28 hhcurveto
          -16 -15 -1 -3 -5 hvcurveto
          hintmask 1001111000000000
          2 41 1 40 44 99 -5 106 101 vvcurveto
          -1 4 6 66 callsubr
          hintmask 1001110010000000
          26 51 4 14 26 21 callsubr
          11 39 vvcurveto
          24 0 23 -4 9 vhcurveto
          -2 -8 21 -91 -48 -77 -6 -24 -28 vhcurveto
          hintmask 0011111000000000
          -5 -10 0 -46 -53 -71 3 -30 -18 vvcurveto
          8 -28 -26 4 -24 hhcurveto
          -143 -77 -135 -123 -111 63 -151 113 hvcurveto
          41 418 rmoveto
          41 45 -29 -25 hvcurveto
          hintmask 1001110100000000
          2 -31 0 -56 3 -106 rrcurveto
          -12 -49 -24 -33 -47 -54 50 88 52 19 93 73 vhcurveto
          endchar
        </CharString>
        <CharString name="dagger">
          -337 -165 -21 908 -20 hstem
          128 71 vstem
          287 -47 callsubr
          -30 6 -29 4 -29 1 rrcurveto
          141 41 callgsubr
          -15 -132 -6 -135 -135 vvcurveto
          -30 -2 -29 -3 -28 -4 rrcurveto
          -44 callgsubr
          -9 7 68 -3 12 hhcurveto
          2 -141 7 -142 12 -143 39 callsubr
          30 1 30 3 29 9 rrcurveto
          endchar
        </CharString>
        <CharString name="daggerdbl">
          -187 -165 -21 425 69 96 69 249 -20 hstem
          206 65 vstem
          447 -47 callsubr
          -31 6 -91 4 -51 1 rrcurveto
          34 0 30 -1 30 vhcurveto
          51 1 93 3 30 9 rrcurveto
          -66 callsubr
          -31 6 -95 4 -50 1 -3 83 -6 82 -8 83 46 callsubr
          -9 -78 -6 -79 -3 -79 -57 -1 -83 -5 -35 40 callsubr
          9 -7 20 -2 142 -5 rrcurveto
          -1 -32 0 -32 -32 vvcurveto
          -57 -1 -81 -5 -34 40 callsubr
          10 -7 16 -2 144 -5 2 -141 7 -142 12 -142 39 callsubr
          51 1 93 3 30 9 rrcurveto
          endchar
        </CharString>
        <CharString name="degree">
          -57 callgsubr
        </CharString>
        <CharString name="dieresis">
          505 82 callgsubr
          186 12 callgsubr
          vstem
          287 513 rmoveto
          -105 callgsubr
        </CharString>
        <CharString name="divide">
          -45 55 160 48 71 56 82 callgsubr
          257 122 vstem
          583 276 rmoveto
          6 9 3 9 7 vvcurveto
          10 -5 7 -4 5 39 callgsubr
          -3 -2 -5 -10 -12 vvcurveto
          -7 2 -9 6 -7 38 callsubr
          -225 -213 rmoveto
          -107 callgsubr
          335 vmoveto
          -97 callsubr
        </CharString>
        <CharString name="dollar">
          -47 -95 -21 96 219 321 206 66 -20 hstemhm
          47 141 71 98 -98 110 70 131 -131 146 hintmask 1111101010000000
          346 -7 rmoveto
          143 13 96 113 127 vvcurveto
          113 -75 32 -141 16 vhcurveto
          -1 59 -3 59 -5 59 24 -2 25 -4 22 -10 rrcurveto
          -10 0 -8 6 -15 vhcurveto
          15 callsubr
          hintmask 1111110100000000
          -50 callgsubr
          -27 14 -28 11 -28 5 -9 88 rcurveline
          -9 -1 -36 -5 -5 -7 -9 -69 rcurveline
          -122 -5 -111 -106 -134 vvcurveto
          -132 107 -31 105 -16 vhcurveto
          2 -56 4 -56 4 -56 -28 4 -27 11 -21 14 -1 14 1 7 -7 17 rrcurveto
          14 callgsubr
          -14 callgsubr
          14 callsubr
          28 -21 32 -11 33 -4 9 -107 rcurveline
          11 1 27 4 9 5 rrcurveto
          -148 591 rmoveto
          48 27 36 52 11 vhcurveto
          -4 -56 -4 -58 -1 -54 rrcurveto
          -56 9 -14 30 34 vvcurveto
          251 -266 rmoveto
          -38 -36 -38 -46 -18 vhcurveto
          4 51 3 51 2 51 rrcurveto
          52 -7 21 -24 -28 vvcurveto
          endchar
        </CharString>
        <CharString name="e">
          11 callsubr
          -9 callgsubr
          hintmask 11110100
          -101 callsubr
          hintmask 11101100
          -67 callsubr
          endchar
        </CharString>
        <CharString name="eacute">
          -106 -12 125 88 92 0 113 0 104 0 77 161 -20 -9 callgsubr
          hintmask 1101011010000000
          -101 callsubr
          hintmask 1010110110000000
          -67 callsubr
          236 396 -89 callsubr
        </CharString>
        <CharString name="ecircumflex">
          11 callsubr
          198 -78 callsubr
          270 227 -103 callsubr
        </CharString>
        <CharString name="edieresis">
          11 callsubr
          55 160 2 callgsubr
          -47 12 callgsubr
          -95 108 hintmask 1111100010000000
          -101 callsubr
          hintmask 1111010010000000
          -67 callsubr
          54 247 rmoveto
          hintmask 1111001100000000
          -105 callgsubr
        </CharString>
        <CharString name="egrave">
          11 callsubr
          236 -78 callsubr
          -53 395 -101 callgsubr
        </CharString>
        <CharString name="eight">
          -103 -10 116 233 118 159 96 hstemhm
          37 121 -77 111 163 121 -72 122 hintmask 11101100
          294 712 rmoveto
          -149 -64 -105 -92 -45 15 -36 47 -34 hvcurveto
          hintmask 11110010
          -67 -56 -39 -76 -82 vvcurveto
          -103 62 -93 149 175 103 129 129 74 -34 65 -71 54 vhcurveto
          hintmask 11110100
          37 38 18 45 42 vvcurveto
          78 -62 68 -120 vhcurveto
          -28 -606 rmoveto
          -75 -33 46 54 82 74 51 69 hvcurveto
          hintmask 11110010
          68 35 -49 -54 -62 -46 -68 -92 hvcurveto
          hintmask 11101100
          89 441 rmoveto
          -50 -46 -40 -53 -44 -20 28 32 45 40 54 53 39 31 -28 -41 vhcurveto
          endchar
        </CharString>
        <CharString name="ellipsis">
          1201 -5 82 callgsubr
          39 122 711 122 711 122 cntrmask 01110000
          140 3 rmoveto
          -107 callgsubr
          833 hmoveto
          -107 callgsubr
          833 hmoveto
          -97 callsubr
        </CharString>
        <CharString name="emdash">
          -12 238 71 -58 58 hstemhm
          hintmask 10000000
          595 -47 callsubr
          2 -39 -46 9 -134 hhcurveto
          -110 -164 -6 -5 -43 hvcurveto
          -44 callgsubr
          -8 9 232 -6 92 hhcurveto
          hintmask 01000000
          124 46 11 2 33 hvcurveto
          endchar
        </CharString>
        <CharString name="endash">
          -174 238 71 hstem
          434 31 callsubr
          -86 3 -36 hhcurveto
          -46 -126 -31 callgsubr
          -11 91 42 -3 68 hhcurveto
          78 63 4 9 34 hvcurveto
          endchar
        </CharString>
        <CharString name="equal">
          -120 238 71 94 71 hstem
          481 251 rmoveto
          -24 callsubr
          -9 68 61 -5 74 hhcurveto
          58 120 3 10 35 hvcurveto
          165 vmoveto
          -24 callsubr
          -11 87 51 -3 62 hhcurveto
          62 119 3 10 35 hvcurveto
          endchar
        </CharString>
        <CharString name="eth">
          -104 0 109 278 105 202 -20 hstem
          34 126 251 113 vstem
          340 657 rmoveto
          21 -17 15 -22 1 vhcurveto
          -21 -20 -17 -16 -26 -23 rrcurveto
          4 -29 -26 5 -28 hhcurveto
          -7 -8 0 -1 -8 hvcurveto
          -10 -3 -8 -18 -14 vvcurveto
          -6 2 -6 4 -3 vhcurveto
          25 -1 26 -5 20 -5 -12 -14 -17 -10 -14 -14 rrcurveto
          79 callsubr
          vvcurveto
          -18 22 -13 18 -2 vhcurveto
          23 18 24 22 22 18 33 -9 47 -42 11 -22 rrcurveto
          2 -14 -14 1 -13 hhcurveto
          -165 -106 -151 -134 -110 70 -97 157 167 96 109 168 157 -83 129 -132 56 hvcurveto
          12 15 2 1 17 22 rrcurveto
          -180 -440 rmoveto
          74 63 96 87 62 39 -50 -62 -89 -80 -77 -74 -60 -37 52 56 vhcurveto
          endchar
        </CharString>
        <CharString name="exclam">
          -409 16 -21 704 -20 hstemhm
          51 152 -107 75 hintmask 11100000
          166 690 rmoveto
          7 -15 -13 2 -11 hhcurveto
          -18 -12 -6 -3 -8 hvcurveto
          -26 -51 -12 -73 -76 vvcurveto
          -108 24 -116 38 -71 vhcurveto
          -1 7 5 0 5 hhcurveto
          8 6 1 3 7 hvcurveto
          35 82 17 91 90 vvcurveto
          78 -13 77 -24 74 vhcurveto
          -4 -690 rmoveto
          hintmask 11010000
          6 20 3 20 20 vvcurveto
          20 -3 19 -6 20 vhcurveto
          3 -12 -7 1 -8 hhcurveto
          -8 -9 -1 -3 -16 hvcurveto
          -4 -19 -2 -18 -20 vvcurveto
          -20 2 -21 4 -21 vhcurveto
          -4 12 9 -1 9 hhcurveto
          11 9 2 3 10 hvcurveto
          endchar
        </CharString>
        <CharString name="exclamdown">
          -427 -214 -21 704 -20 hstemhm
          43 152 -107 75 hintmask 11100000
          158 -226 rmoveto
          24 74 13 77 78 vvcurveto
          90 -17 91 -35 82 vhcurveto
          3 -7 -6 1 -8 hhcurveto
          -5 -5 0 -1 -7 hvcurveto
          -38 -71 -24 -116 -108 vvcurveto
          -76 12 -73 26 -51 vhcurveto
          -3 8 12 -6 18 hhcurveto
          11 13 2 7 15 hvcurveto
          -4 690 rmoveto
          3 -10 -9 2 -11 hhcurveto
          -9 -9 -1 -4 -12 hvcurveto
          hintmask 11010000
          -4 -21 -2 -21 -20 vvcurveto
          -20 2 -18 4 -19 vhcurveto
          -3 16 9 -1 8 hhcurveto
          8 7 1 3 12 hvcurveto
          6 20 3 19 20 vvcurveto
          20 -3 20 -6 20 vhcurveto
          endchar
        </CharString>
        <CharString name="f">
          -280 -3 179 187 136 144 114 hstemhm
          40 205 -136 249 hintmask 11101000
          418 600 51 callsubr
          16 -36 -27 10 -100 hhcurveto
          -122 -21 -15 -93 hvcurveto
          -35 3 -51 -68 77 callgsubr
          hintmask 11110000
          5 callgsubr
          -51 11 callgsubr
          -35 7 -10 vhcurveto
          -11 13 45 -5 50 hhcurveto
          59 75 7 11 22 hvcurveto
          2 16 4 35 36 vvcurveto
          31 -3 31 -10 12 vhcurveto
          4 -3 -12 2 -11 hhcurveto
          -16 -14 -4 -4 -7 hvcurveto
          -7 189 78 3 15 5 10 6 rlinecurve
          hintmask 11101000
          -27 callgsubr
        </CharString>
        <CharString name="five">
          -31 -12 121 -121 230 -201 -21 315 119 90 208 -140 96 37 -20 hstemhm
          64 118 288 125 hintmask 1001100110000000
          97 300 rmoveto
          50 79 11 78 hhcurveto
          94 72 -16 -78 -67 -54 -41 -70 -51 -55 21 35 -33 hvcurveto
          10 0 18 -6 15 vhcurveto
          hintmask 0101100110000000
          6 -15 -30 4 -32 hhcurveto
          -22 -22 -2 -4 -20 hvcurveto
          -8 -21 -4 -34 -37 vvcurveto
          -45 6 -47 10 -23 vhcurveto
          hintmask 0011100110000000
          -7 17 24 -2 21 hhcurveto
          21 19 2 4 10 hvcurveto
          14 11 10 8 7 18 rrcurveto
          hintmask 1001011110000000
          -35 42 49 -16 49 hhcurveto
          125 123 103 144 97 -56 98 -272 hvcurveto
          -27 -32 -1 -2 hhcurveto
          -17 6 -7 73 15 vvcurveto
          14 5 31 9 12 vhcurveto
          5 15 84 3 35 hhcurveto
          47 50 -5 -9 14 hvcurveto
          -2 -7 -1 -8 -7 vvcurveto
          -9 2 -9 4 -8 vhcurveto
          hintmask 1001100110000000
          -4 14 21 -2 21 hhcurveto
          21 21 2 8 14 hvcurveto
          19 11 7 33 42 vvcurveto
          83 -26 22 -3 2 vhcurveto
          3 -11 -15 2 -16 hhcurveto
          -23 -24 -4 -8 -15 hvcurveto
          -6 -15 -1 -5 -2 -22 rrcurveto
          hintmask 1001011110000000
          7 -26 -44 3 -41 hhcurveto
          -34 -32 -2 -4 -16 hvcurveto
          -1 13 -3 14 -4 1 rrcurveto
          8 -6 -38 7 -39 hhcurveto
          -30 -31 -4 -11 -18 hvcurveto
          -8 -57 -5 -63 -63 vvcurveto
          -79 8 -79 25 -65 vhcurveto
          endchar
        </CharString>
        <CharString name="florin">
          -304 -152 -21 170 -21 287 136 144 113 hstemhm
          26 202 -133 133 -133 249 hintmask 11110100
          404 500 51 callsubr
          15 -42 -51 10 -53 hhcurveto
          -83 -77 -24 -91 hvcurveto
          -18 3 -64 -64 77 callgsubr
          hintmask 11111000
          5 callgsubr
          -151 11 callgsubr
          -5 7 -10 vhcurveto
          -12 14 51 -4 52 hhcurveto
          26 28 1 2 22 hvcurveto
          56 -4 132 -2 245 vhcurveto
          78 3 15 5 10 6 rrcurveto
          hintmask 11110010
          -27 callgsubr
        </CharString>
        <CharString name="four">
          -101 -4 143 134 109 317 -20 hstemhm
          330 130 -130 192 hintmask 11101000
          446 686 rmoveto
          8 -26 -24 5 -22 hhcurveto
          -29 -27 -8 -15 -32 hvcurveto
          -122 -70 -80 -92 -55 -107 rrcurveto
          -7 -20 -9 -5 -36 vvcurveto
          -12 1 -45 5 -9 vhcurveto
          -3 12 25 -4 114 hhcurveto
          113 18 4 1 34 hvcurveto
          -3 -10 -2 -16 -32 vvcurveto
          -22 1 -32 5 -27 vhcurveto
          -25 -30 -1 -11 -23 hvcurveto
          -13 -12 -5 -25 -24 vvcurveto
          -24 5 -23 7 -8 vhcurveto
          -9 5 35 -6 68 hhcurveto
          63 59 5 7 28 hvcurveto
          7 5 5 26 28 vvcurveto
          23 -3 25 -10 12 vhcurveto
          7 -12 -14 3 -15 hhcurveto
          -7 -7 0 -2 -8 hvcurveto
          hintmask 11110000
          7 12 7 40 35 vvcurveto
          19 -2 18 -3 21 vhcurveto
          -1 9 8 0 7 hhcurveto
          10 17 1 4 2 hvcurveto
          3 6 6 19 21 vvcurveto
          16 -4 18 -11 16 vhcurveto
          1 -5 -8 1 -8 -8 -7 -1 -7 hhcurveto
          1 22 0 52 22 vvcurveto
          91 -3 83 -11 35 vhcurveto
          -332 -309 rmoveto
          31 42 146 140 45 34 rrcurveto
          -2 -41 -2 -136 -40 vvcurveto
          2 -17 -28 1 -19 hhcurveto
          -19 -119 -1 -1 -16 hvcurveto
          endchar
        </CharString>
        <CharString name="g">
          -79 -250 86 165 97 279 133 -133 184 hstemhm
          31 125 -26 170 28 143 -60 60 -60 117 hintmask 1101100010000000
          301 2 rmoveto
          -1 6 7 66 callsubr
          119 89 130 131 49 -13 50 -28 42 hvcurveto
          22 15 53 34 1 13 rrcurveto
          41 -93 55 -24 -16 -17 -24 -34 -22 vhcurveto
          hintmask 1110101000000000
          4 -16 -17 3 -24 hhcurveto
          -182 -121 -168 -146 -74 31 -69 72 -36 hvcurveto
          hintmask 1110011000000000
          -3 -10 -1 -9 -8 -101 198 26 -36 vvcurveto
          -27 -108 -12 -94 -4 vhcurveto
          -37 4 14 -49 38 hhcurveto
          76 213 38 94 hvcurveto
          85 -171 -17 47 84 callgsubr
          1 1 2 vhcurveto
          hintmask 1110100100000000
          -145 203 rmoveto
          74 60 98 92 65 38 -49 -63 -93 -83 -74 -74 -60 -38 49 58 vhcurveto
          endchar
        </CharString>
        <CharString name="germandbls">
          146 -68 -21 87 115 524 113 hstemhm
          29 228 -190 138 -122 122 293 132 21 126 hintmask 11100111
          83 41 rmoveto
          -16 -3 -27 -2 -6 -6 rrcurveto
          hintmask 11110011
          -3 -3 -2 -9 -33 vvcurveto
          -24 1 -23 4 -4 vhcurveto
          -14 15 29 -9 74 hhcurveto
          36 33 2 5 17 hvcurveto
          7 12 12 60 24 vvcurveto
          7 -1 6 -1 2 vhcurveto
          6 -4 -5 3 -27 hhcurveto
          hintmask 11101011
          -6 63 -8 86 111 vvcurveto
          279 50 60 101 92 50 -49 -69 -10 -1 -11 -3 -12 vhcurveto
          -27 -1 -25 -19 -11 -23 rrcurveto
          -56 34 -59 43 -8 vhcurveto
          19 3 18 10 10 14 rrcurveto
          68 -24 28 -33 -39 vvcurveto
          -79 -113 -59 -81 -11 -11 1 3 -10 vhcurveto
          -18 -18 -21 -21 -32 vvcurveto
          -14 4 -24 4 -1 vhcurveto
          -6 21 23 -3 23 hhcurveto
          149 167 127 145 81 -52 68 -138 27 hvcurveto
          30 37 13 36 34 vvcurveto
          110 -136 87 -143 -229 -55 -222 -216 vhcurveto
          hintmask 11100111
          -96 11 -86 5 -89 vhcurveto
          endchar
        </CharString>
        <CharString name="grave">
          612 -21 155 -20 hstem
          233 721 -101 callgsubr
        </CharString>
        <CharString name="greater">
          -107 83 -21 512 -20 hstem
          64 62 rmoveto
          162 55 152 70 133 97 rrcurveto
          13 11 8 11 12 vvcurveto
          11 -6 11 -15 12 vhcurveto
          -144 94 -148 82 -155 46 rrcurveto
          -1 -1 -6 -2 -9 vvcurveto
          -5 2 -8 5 -11 vhcurveto
          103 -103 172 -98 130 -18 -135 -24 -172 -99 -98 -97 rrcurveto
          -7 -10 -2 -7 -5 vvcurveto
          -10 8 -4 1 -1 vhcurveto
          endchar
        </CharString>
        <CharString name="guillemotleft">
          -226 45 callsubr
          242 477 rmoveto
          -43 callgsubr
          164 hmoveto
          -43 callgsubr
          endchar
        </CharString>
        <CharString name="guillemotright">
          -224 45 callsubr
          198 477 rmoveto
          -72 callgsubr
          -164 hmoveto
          -72 callgsubr
          endchar
        </CharString>
        <CharString name="guilsinglleft">
          -390 45 callsubr
          242 477 rmoveto
          -15 callsubr
          36 -97 55 -82 73 -65 rrcurveto
          -4 4 5 -2 5 -23 callsubr
          endchar
        </CharString>
        <CharString name="guilsinglright">
          -388 45 callsubr
          34 477 rmoveto
          -72 callgsubr
          endchar
        </CharString>
        <CharString name="h">
          52 0 148 260 102 100 140 hstemhm
          10 247 -126 138 81 callgsubr
          155 146 -146 205 hintmask 11100110
          131 144 rmoveto
          3 -13 -15 1 -11 hhcurveto
          hintmask 11110010
          -68 -14 -41 -44 -20 3 -7 6 -8 hvcurveto
          -25 19 44 -3 43 hhcurveto
          93 62 14 20 45 hvcurveto
          hintmask 11100110
          7 51 3 -1 -46 callsubr
          hintmask 11101001
          -2 52 -1 26 19 vvcurveto
          139 52 28 47 75 47 -70 -78 vhcurveto
          -11 -1 -92 66 callgsubr
          -9 -6 callsubr
          -13 -17 -5 -9 -17 vvcurveto
          -28 13 -52 10 -7 vhcurveto
          -12 34 37 -6 39 hhcurveto
          44 48 -13 callgsubr
          33 -3 15 -6 7 vhcurveto
          1 -4 -29 4 -13 hhcurveto
          -7 68 callgsubr
          -1 hvcurveto
          hintmask 11100110
          5 19 1 82 18 vvcurveto
          168 -86 60 -103 -63 -66 -22 -48 -64 vhcurveto
          2 5 1 12 57 vvcurveto
          125 -4 93 -6 10 vhcurveto
          3 -3 -62 5 -40 hhcurveto
          -44 -64 -6 -12 -19 hvcurveto
          0 callgsubr
          83 -3 5 13 5 1 9 hhcurveto
          -1 -3 -1 -24 -39 vvcurveto
          -52 0 -119 5 -230 vhcurveto
          endchar
        </CharString>
        <CharString name="hyphen">
          -305 238 71 hstem
          303 31 callsubr
          -36 3 -36 hhcurveto
          -46 -46 -31 callgsubr
          -11 32 89 -3 26 hhcurveto
          26 38 3 10 35 hvcurveto
          endchar
        </CharString>
        <CharString name="i">
          0 callsubr
          229 32 callsubr
          204 hintmask 11101000
          -75 callgsubr
          hintmask 11110000
          -71 callgsubr
          hintmask 11101000
          -70 callsubr
          hintmask 11110000
          -41 callsubr
          18 -2 23 hhcurveto
          16 5 1 5 3 hvcurveto
          8 12 2 40 20 -79 callgsubr
          75 185 -11 callgsubr
          endchar
        </CharString>
        <CharString name="iacute">
          0 callsubr
          0 76 161 32 callsubr
          123 hintmask 11010100
          -75 callgsubr
          hintmask 11011000
          -99 callsubr
          234 330 -91 callsubr
          hintmask 10111000
          -77 callsubr
        </CharString>
        <CharString name="icircumflex">
          0 callsubr
          197 -84 callsubr
          248 161 -103 callsubr
        </CharString>
        <CharString name="idieresis">
          0 callsubr
          64 160 78 callsubr
          -172 122 -73 123 -2 122 hintmask 11100100
          -97 callgsubr
          42 191 rmoveto
          hintmask 11101010
          -105 callgsubr
        </CharString>
        <CharString name="igrave">
          0 callsubr
          235 -84 callsubr
          -25 329 -101 callgsubr
        </CharString>
        <CharString name="j">
          -184 -220 132 -107 220 340 147 228 -20 hstemhm
          237 196 -163 108 -108 125 hintmask 01111000
          324 577 -11 callgsubr
          -221 -573 rmoveto
          9 -12 -44 5 callsubr
          29 -2 30 hhcurveto
          22 22 1 4 4 hvcurveto
          3 -1 6 13 6 19 rrcurveto
          hintmask 10110010
          -32 53 65 -29 57 hhcurveto
          123 29 133 152 hvcurveto
          hintmask 10110100
          101 -13 97 -4 95 vhcurveto
          -4 8 14 -3 13 hhcurveto
          10 10 2 4 6 hvcurveto
          8 11 6 53 28 vvcurveto
          16 -2 14 -4 8 vhcurveto
          17 -19 -65 8 -81 hhcurveto
          -49 -19 -3 -5 -26 hvcurveto
          -14 -3 -12 -61 -32 vvcurveto
          -13 2 -12 5 -7 vhcurveto
          -6 16 18 -5 16 hhcurveto
          10 9 2 5 6 hvcurveto
          5 -48 21 -109 -107 vvcurveto
          -107 -21 -89 -58 -30 -42 25 14 -20 vhcurveto
          4 25 2 1 12 83 callgsubr
          6 -1 vhcurveto
          endchar
        </CharString>
        <CharString name="k">
          -48 0 156 -136 -21 516 -20 37 -20 91 143 hstemhm
          97 129 128 179 -165 241 hintmask 10101101
          97 154 rmoveto
          1 -3 -5 33 callgsubr
          -15 -22 -5 -5 -7 hvcurveto
          -11 -6 -4 -21 -23 vvcurveto
          -33 8 -37 9 -14 vhcurveto
          -11 25 35 -1 42 hhcurveto
          84 27 4 10 38 hvcurveto
          7 6 3 24 25 vvcurveto
          38 -7 44 -10 5 vhcurveto
          4 -3 -10 1 -8 hhcurveto
          -18 -25 -6 -3 -5 hvcurveto
          8 45 -1 59 3 45 52 -19 123 -48 17 -92 rrcurveto
          2 -6 -5 33 callgsubr
          -6 -7 -1 -4 -6 hvcurveto
          -9 -13 -5 -28 -27 vvcurveto
          -23 4 -22 8 -12 vhcurveto
          hintmask 01101101
          -8 38 42 -8 41 hhcurveto
          33 32 5 13 28 hvcurveto
          10 15 5 24 28 vvcurveto
          17 -2 34 -15 7 vhcurveto
          3 -8 -8 3 -9 hhcurveto
          -6 -7 -1 -3 -6 hvcurveto
          31 -84 140 -145 60 vhcurveto
          84 66 59 70 1 12 rrcurveto
          -6 6 15 -2 12 hhcurveto
          5 5 0 1 3 hvcurveto
          hintmask 10011110
          17 5 7 23 21 vvcurveto
          10 -2 29 callgsubr
          15 -36 -37 7 -37 hhcurveto
          -36 -37 -7 -13 -39 hvcurveto
          -4 -2 -2 -6 -7 vvcurveto
          -17 10 -25 9 -6 vhcurveto
          9 13 4 3 3 hvcurveto
          7 -6 3 -5 -7 vvcurveto
          -34 -77 -45 -51 -38 vhcurveto
          -4 68 -5 69 -1 69 rrcurveto
          10 23 3 73 callgsubr
          8 9 5 27 26 vvcurveto
          24 -4 23 -9 9 vhcurveto
          10 -27 -37 4 -38 hhcurveto
          -43 -44 -5 -9 -33 hvcurveto
          -14 -9 -11 -28 -29 vvcurveto
          -19 5 -18 11 -15 vhcurveto
          -7 9 12 -4 13 hhcurveto
          11 13 3 5 11 hvcurveto
          -1 -41 -1 -32 -38 vvcurveto
          -67 3 -86 3 -193 vhcurveto
          endchar
        </CharString>
        <CharString name="l">
          -347 20 -21 755 -20 hstemhm
          48 187 -150 136 hintmask 11010000
          95 632 rmoveto
          -5 -59 -5 -114 -105 vvcurveto
          -81 3 -73 8 -48 vhcurveto
          -18 -23 -4 -8 -17 hvcurveto
          53 callsubr
          -17 10 58 -11 61 hhcurveto
          36 55 4 6 8 8 callgsubr
          8 -14 -18 3 -17 hhcurveto
          -6 -5 0 -1 -5 hvcurveto
          hintmask 11100000
          3 130 11 136 131 vvcurveto
          68 -3 65 -7 66 vhcurveto
          7 -19 -14 3 -42 hhcurveto
          -25 -17 -1 -9 -39 hvcurveto
          -15 -23 -6 -26 -27 vvcurveto
          -11 1 -11 1 -10 vhcurveto
          -4 16 13 0 16 hhcurveto
          endchar
        </CharString>
        <CharString name="less">
          -107 83 -21 512 -20 hstem
          494 62 rmoveto
          1 1 8 4 10 vvcurveto
          5 -2 7 -7 10 vhcurveto
          -98 97 -172 99 -135 24 130 18 172 98 103 103 rrcurveto
          5 11 2 8 5 vvcurveto
          9 -6 2 -1 1 vhcurveto
          -155 -46 -148 -82 -144 -94 rrcurveto
          -15 -12 -6 -11 -11 vvcurveto
          -12 8 -11 13 -11 vhcurveto
          133 -97 152 -70 162 -55 rrcurveto
          endchar
        </CharString>
        <CharString name="logicalnot">
          -142 273 -21 149 66 hstem
          41 454 rmoveto
          -5 -8 -3 -8 -8 vvcurveto
          -7 3 -7 5 -6 vhcurveto
          -6 26 79 -3 80 hhcurveto
          66 65 2 3 50 hvcurveto
          -1 -14 0 -14 -8 vvcurveto
          -23 2 -65 4 -23 vhcurveto
          -4 6 7 -3 7 hhcurveto
          8 8 3 4 8 hvcurveto
          4 24 3 65 23 vvcurveto
          19 -2 44 -5 18 vhcurveto
          11 -62 -87 4 -81 hhcurveto
          -90 -80 -5 -8 -15 hvcurveto
          endchar
        </CharString>
        <CharString name="m">
          399 -1 callgsubr
          188 152 30 callgsubr
          178 hintmask 1001010110000000
          620 411 rmoveto
          66 -30 -61 33 -64 hhcurveto
          -68 -69 -37 -71 -61 hvcurveto
          1 6 4 39 15 vvcurveto
          hintmask 1000110110000000
          33 -20 5 -70 -70 -22 -5 -13 -22 -32 callgsubr
          hintmask 1001001110000000
          -60 3 -60 1 -71 vhcurveto
          -16 callgsubr
          -26 2 -7 7 -9 vhcurveto
          -23 19 47 -6 44 hhcurveto
          69 76 -45 callgsubr
          hintmask 0101010110000000
          -1 15 -2 39 19 vvcurveto
          116 72 35 48 71 50 -77 -81 vhcurveto
          -11 -1 -37 66 callgsubr
          -19 -51 callgsubr
          hintmask 0011010110000000
          -12 34 27 -6 39 hhcurveto
          44 51 -13 callgsubr
          hintmask 0101010101000000
          33 -3 25 -6 7 vhcurveto
          4 -24 -29 1 -9 68 callgsubr
          -1 hhcurveto
          4 28 3 69 24 vvcurveto
          8 0 8 -1 7 vhcurveto
          38 23 46 22 34 hhcurveto
          59 59 -68 -89 hvcurveto
          -12 -47 callgsubr
          hintmask 0011010101000000
          -14 callsubr
          hintmask 0101010110000000
          -16 callsubr
          24 3 34 37 vvcurveto
          187 -79 55 -94 -68 -59 -29 -65 -62 vhcurveto
          endchar
        </CharString>
        <CharString name="macron">
          endchar
        </CharString>
        <CharString name="mu">
          101 -229 -21 249 127 -108 -21 333 1 callsubr
          hstemhm
          30 210 -121 121 204 223 -145 203 hintmask 1100101010000000
          667 346 rmoveto
          -1 5 5 -1 5 hhcurveto
          9 10 3 6 8 hvcurveto
          19 11 10 33 30 vvcurveto
          18 -4 17 -7 10 vhcurveto
          19 -18 -51 10 -54 hhcurveto
          -59 -61 -12 -23 -23 hvcurveto
          -12 -7 -5 -27 -27 vvcurveto
          -29 6 -28 11 -4 -19 callsubr
          hintmask 1101000101000000
          6 -24 2 -23 -18 vvcurveto
          -104 -71 -51 -70 -71 -70 51 98 20 3 19 5 22 vhcurveto
          -3 8 -2 -3 11 hhcurveto
          9 -62 callsubr
          hintmask 1100011010000000
          12 -35 -31 6 -32 hhcurveto
          -38 -38 -8 -12 -43 hvcurveto
          -8 -14 -5 -34 -32 vvcurveto
          hintmask 1101000110000000
          -29 4 -27 8 -14 -49 callsubr
          -5 -16 -2 -57 -72 -102 4 -135 -45 16 callgsubr
          -20 -39 -7 -11 -7 hvcurveto
          hintmask 1101001010000000
          -7 -17 -4 -26 -25 vvcurveto
          -17 2 -16 3 -13 vhcurveto
          -4 71 -14 59 42 36 7 23 1 vhcurveto
          5 10 0 46 53 vvcurveto
          52 -2 69 -1 19 vhcurveto
          -21 31 33 -9 38 hhcurveto
          62 68 23 38 54 hvcurveto
          -1 -6 -1 -7 -7 vvcurveto
          -10 2 -10 4 -11 vhcurveto
          hintmask 1011001001000000
          -9 12 18 -3 21 hhcurveto
          48 60 17 4 6 hvcurveto
          11 16 13 56 39 vvcurveto
          11 -1 11 -4 5 vhcurveto
          1 -5 -6 1 -6 65 callsubr
          -1 -11 hvcurveto
          hintmask 1101001010000000
          16 callsubr
          endchar
        </CharString>
        <CharString name="multiply">
          -200 146 -21 375 -20 hstem
          415 457 rmoveto
          -9 28 -1 5 -27 4 -31 -21 -29 -25 -19 -19 -10 -10 -40 -43 -15 -24 -17 30 -38 44 -15 15 -21 21 -27 22 -29 16 -30 -7 -4 -7 -7 -28 14 -29 15 -21 26 -25 rrcurveto
          25 -25 35 -28 32 -19 -27 -17 -32 -28 -22 -22 -23 -23 -21 -26 -18 -29 4 -32 2 -2 31 -3 31 18 26 23 18 18 24 24 27 33 19 27 17 -29 27 -30 23 -23 rrcurveto
          27 -27 17 -14 36 -24 rrcurveto
          20 6 21 13 22 vvcurveto
          -21 34 -21 27 -24 24 -21 21 -31 27 -29 14 27 16 34 28 18 18 17 18 34 39 12 25 rrcurveto
          endchar
        </CharString>
        <CharString name="n">
          59 -1 callgsubr
          30 callgsubr
          178 hintmask 1001001100000000
          -55 callsubr
          hintmask 0101010010000000
          -34 callsubr
          hintmask 0011010010000000
          -14 callsubr
          hintmask 0101010100000000
          -25 callgsubr
          hintmask 1000110100000000
          -10 callsubr
          hintmask 1001001100000000
          -60 3 -60 1 -71 vhcurveto
          endchar
        </CharString>
        <CharString name="nine">
          -33 -17 107 -82 -21 25 -21 269 113 225 113 hstemhm
          37 115 254 186 10 callsubr
          hintmask 01011110
          227 141 rmoveto
          9 -12 -51 18 -31 hhcurveto
          -5 -5 0 -1 -5 hvcurveto
          -34 -19 -35 -71 -45 vvcurveto
          -8 1 -6 1 -5 vhcurveto
          -14 11 35 -12 33 hhcurveto
          hintmask 00111110
          10 10 1 3 9 hvcurveto
          3 8 18 3 2 hvcurveto
          hintmask 10011101
          -20 45 43 -9 40 hhcurveto
          175 117 170 192 181 -105 185 -189 -162 -99 -136 -121 -103 71 -91 151 97 68 38 69 40 hvcurveto
          6 -17 3 -19 -19 vvcurveto
          -102 -81 -120 -111 -17 -20 3 6 -21 vhcurveto
          3 3 4 11 12 vvcurveto
          5 -1 6 -2 5 vhcurveto
          35 232 rmoveto
          -78 -32 45 52 81 77 47 72 hvcurveto
          hintmask 10011110
          69 36 -44 -50 -55 -43 -76 -101 hvcurveto
          endchar
        </CharString>
        <CharString name="ntilde">
          59 -7 callsubr
          125 46 callgsubr
          45 237 81 callgsubr
          175 30 callgsubr
          178 hintmask 1001010101100000
          -55 callsubr
          hintmask 0101010110010000
          -34 callsubr
          hintmask 0011010110010000
          -14 callsubr
          hintmask 0101010110100000
          -25 callgsubr
          hintmask 1000110110100000
          -10 callsubr
          hintmask 1001010101100000
          -60 3 -60 1 -71 vhcurveto
          374 545 -74 callsubr
          hintmask 1001001010100000
          -84 callgsubr
          hintmask 1001010110100000
          -54 callgsubr
        </CharString>
        <CharString name="numbersign">
          -34 18 204 -65 65 212 65 2 -20 155 -20 hstemhm
          hintmask 10101000
          149 223 rmoveto
          -107 -4 rlineto
          -4 -9 -1 -8 -7 vvcurveto
          -9 2 -8 3 -9 vhcurveto
          24 -3 45 -2 24 -1 -5 -37 -5 -56 -4 -36 rrcurveto
          -7 9 18 -9 12 hhcurveto
          4 64 callgsubr
          rlineto
          -1 41 61 -1 62 hhcurveto
          -13 -121 rlineto
          hintmask 10101000
          -9 6 19 -7 13 hhcurveto
          5 64 callgsubr
          45 2 66 4 46 6 rlinecurve
          1 4 1 11 11 vvcurveto
          8 0 9 -2 7 vhcurveto
          -136 6 13 66 9 81 11 61 rlinecurve
          107 4 rlineto
          3 11 1 8 7 vvcurveto
          7 -1 6 -3 11 vhcurveto
          -24 3 -45 2 -24 1 5 37 5 56 4 36 rrcurveto
          14 -7 -30 0 -12 hhcurveto
          -30 -137 rlineto
          hintmask 10011000
          1 -41 -61 1 -62 hhcurveto
          13 121 rlineto
          14 -11 -23 0 -15 hhcurveto
          hintmask 10101000
          -30 -137 -45 -2 -66 -4 -46 -6 rlinecurve
          -4 -4 -3 -11 -11 vvcurveto
          -10 2 -9 5 -5 vhcurveto
          136 -6 -13 -66 -9 -81 -11 -61 rlinecurve
          105 206 rmoveto
          69 54 1 34 hhcurveto
          -32 -203 rlineto
          -69 -54 -1 -34 hhcurveto
          endchar
        </CharString>
        <CharString name="o">
          -21 callsubr
          -77 callgsubr
          endchar
        </CharString>
        <CharString name="oacute">
          -21 callsubr
          0 77 161 -20 hstemhm
          28 callsubr
          hintmask 11011100
          -96 callsubr
          153 351 -91 callsubr
          hintmask 10111100
          -77 callsubr
        </CharString>
        <CharString name="ocircumflex">
          -21 callsubr
          218 -20 -77 callgsubr
          157 202 -103 callsubr
        </CharString>
        <CharString name="odieresis">
          -21 callsubr
          75 75 callgsubr
          35 143 -29 12 callgsubr
          -47 102 hintmask 11110010
          -96 callsubr
          -49 222 rmoveto
          hintmask 11101100
          -105 callgsubr
        </CharString>
        <CharString name="oe">
          228 -8 111 -102 -21 28 -21 214 92 100 116 -103 103 1 -20 hstemhm
          32 119 263 131 -131 161 150 108 hintmask 1001001110100000
          670 30 callsubr
          -79 -66 -32 -48 -48 hvcurveto
          hintmask 1001100110100000
          56 -48 -54 23 -57 hhcurveto
          -159 -127 -175 -148 -133 103 -61 108 84 89 36 67 51 hvcurveto
          hintmask 0011100110100000
          -65 32 61 -43 83 hhcurveto
          33 34 7 13 38 hvcurveto
          hintmask 0101001110100000
          -53 callgsubr
          -16 24 -72 callsubr
          -7 -11 -14 -3 -14 hhcurveto
          -51 -59 46 70 hvcurveto
          9 1 0 5 vvcurveto
          49 callsubr
          -108 hvcurveto
          -519 -295 rmoveto
          hintmask 1001100101100000
          77 67 101 90 65 41 -54 -60 -78 -68 -98 -90 -68 -37 55 57 vhcurveto
          424 111 rmoveto
          hintmask 1001010101100000
          -70 callgsubr
          endchar
        </CharString>
        <CharString name="ograve">
          -21 callsubr
          236 -20 -77 callgsubr
          -116 350 -101 callgsubr
        </CharString>
        <CharString name="one">
          -289 22 -21 698 -20 hstemhm
          32 248 -219 219 -146 146 hintmask 11001000
          146 547 rmoveto
          -73 callsubr
          -2 -1 0 -3 -20 hvcurveto
          -19 -3 -30 -2 -7 -4 rrcurveto
          hintmask 11010000
          -2 -3 -4 -6 -51 vvcurveto
          -25 1 -17 6 -11 vhcurveto
          -20 11 25 -7 115 hhcurveto
          62 15 2 11 11 hvcurveto
          18 18 9 58 31 vvcurveto
          10 -1 5 -21 callgsubr
          -16 -67 callgsubr
          6 39 8 162 137 vvcurveto
          97 -4 85 -10 21 63 callgsubr
          -12 5 -34 hhcurveto
          -110 -50 -52 -25 -12 hvcurveto
          hintmask 11100000
          -5 -10 -2 -10 -34 vvcurveto
          -34 2 -21 4 -4 vhcurveto
          50 5 25 10 33 23 rrcurveto
          endchar
        </CharString>
        <CharString name="onehalf">
          115 -11 84 -72 72 -60 -21 300 85 -66 66 328 -20 hstemhm
          29 176 -102 102 246 107 96 85 hintmask 1001010111000000
          507 595 -81 callsubr
          hintmask 1001011011000000
          -20 callsubr
          548 -353 rmoveto
          -60 -203 -22 -156 vvcurveto
          -11 1 -13 8 -17 vhcurveto
          -3 9 13 -2 9 hhcurveto
          13 27 4 2 6 hvcurveto
          1 2 1 6 3 vvcurveto
          hintmask 0101011011000000
          -2 18 21 -3 22 hhcurveto
          21 61 callsubr
          hintmask 0011011011000000
          -5 3 18 -1 17 hhcurveto
          16 17 1 1 1 -8 callsubr
          hintmask 1000111011000000
          -5 -11 -27 -3 -29 hhcurveto
          -17 -18 1 5 -10 hvcurveto
          69 181 -1 119 vvcurveto
          67 -8 callgsubr
          -13 -18 vvcurveto
          -23 3 -36 16 -14 vhcurveto
          -4 5 3 -1 8 hhcurveto
          15 11 4 5 8 hvcurveto
          35 3 36 16 35 hhcurveto
          30 24 -17 -21 hvcurveto
          endchar
        </CharString>
        <CharString name="onequarter">
          76 -2 215 -75 75 492 -20 hstemhm
          29 176 -102 102 368 104 hintmask 01110100
          670 387 -33 callgsubr
          -12 0 -10 -12 vvcurveto
          -9 0 -9 1 -9 vhcurveto
          -13 -1 -16 2 -13 -7 rrcurveto
          -6 -3 -2 -10 -10 vvcurveto
          -14 3 -25 2 -7 vhcurveto
          hintmask 10101100
          -5 4 35 -2 38 hhcurveto
          46 50 3 2 2 hvcurveto
          3 5 1 11 9 vvcurveto
          15 -26 callsubr
          8 7 3 11 13 22 callsubr
          -23 callgsubr
          45 383 -81 callsubr
          hintmask 10110100
          -20 callsubr
          endchar
        </CharString>
        <CharString name="onesuperior">
          -402 313 -21 413 -20 hstemhm
          26 176 -102 102 hintmask 11010000
          103 626 -88 callsubr
          hintmask 11100000
          -20 callsubr
          endchar
        </CharString>
        <CharString name="ordfeminine">
          -178 288 89 200 99 9 -20 hstemhm
          29 108 149 114 -114 153 hintmask 11010100
          288 320 rmoveto
          -2 -1 -3 -3 vvcurveto
          -5 2 -8 2 -6 vhcurveto
          -1 10 3 0 15 hhcurveto
          54 45 5 13 20 hvcurveto
          5 1 12 18 vvcurveto
          17 -1 36 -3 2 vhcurveto
          1 -7 -13 4 -10 hhcurveto
          -4 79 callsubr
          hvcurveto
          hintmask 10111000
          2 3 3 66 58 84 callgsubr
          39 -1 2 vhcurveto
          3 5 -1 5 hhcurveto
          9 13 3 8 4 hvcurveto
          3 4 1 18 26 vvcurveto
          25 -1 6 -3 4 vhcurveto
          11 -20 -5 8 -34 hhcurveto
          -32 -31 -7 -17 -21 hvcurveto
          1 -9 0 -11 -9 vvcurveto
          hintmask 11011000
          36 -27 -27 8 -29 hhcurveto
          -110 -74 -115 -105 -89 53 -79 107 34 37 8 24 28 hvcurveto
          -2 222 rmoveto
          -144 vlineto
          -14 -19 -22 -7 -21 hhcurveto
          -58 -29 51 49 58 39 42 42 29 39 -21 -14 hvcurveto
          endchar
        </CharString>
        <CharString name="ordmasculine">
          -57 callgsubr
        </CharString>
        <CharString name="oslash">
          -133 -25 -21 36 109 272 139 9 -20 hstemhm
          34 143 216 102 hintmask 11101100
          306 30 callsubr
          -180 -92 -148 -148 -67 19 -83 67 -44 hvcurveto
          -5 -13 -5 -13 -4 -14 rrcurveto
          -17 4 7 -9 12 hhcurveto
          8 9 4 11 13 hvcurveto
          24 26 rlineto
          -3 16 17 67 callgsubr
          146 111 92 183 65 -14 67 -32 46 hvcurveto
          6 18 7 19 6 20 rrcurveto
          hintmask 11011100
          12 -5 -8 7 -11 hhcurveto
          hintmask 11101100
          -8 -9 -3 -6 -12 hvcurveto
          -19 -20 rlineto
          12 -25 -23 8 -42 hhcurveto
          -58 -405 rmoveto
          49 70 43 73 35 76 rrcurveto
          12 -19 6 -23 -23 vvcurveto
          -52 -30 -108 -82 -12 -11 2 4 -10 vhcurveto
          49 266 rmoveto
          8 9 -1 -3 8 hvcurveto
          -48 -68 -40 -73 -36 -78 rrcurveto
          -13 21 -8 27 26 vvcurveto
          67 52 82 68 vhcurveto
          endchar
        </CharString>
        <CharString name="otilde">
          -21 callsubr
          85 46 callgsubr
          28 callsubr
          hintmask 11101110
          -96 callsubr
          150 318 -74 callsubr
          hintmask 11010110
          -84 callgsubr
          hintmask 11101110
          -54 callgsubr
        </CharString>
        <CharString name="p">
          25 callgsubr
          18 244 -129 142 170 125 hintmask 11100101
          387 30 callsubr
          -43 -49 -41 -15 -47 9 callgsubr
          hintmask 11001101
          2 -10 -83 2 -22 hhcurveto
          -62 -37 -16 -15 -9 hvcurveto
          -2 -8 -1 -25 -23 vvcurveto
          -39 3 -42 5 -4 vhcurveto
          hintmask 11100011
          -7 11 34 -3 28 hhcurveto
          16 15 1 3 5 hvcurveto
          -2 -40 0 -40 -39 -105 4 -104 -103 16 callgsubr
          hintmask 11100101
          -27 -54 -5 -13 -22 hvcurveto
          -3 -7 -1 -11 -38 vvcurveto
          -37 1 -7 3 -7 vhcurveto
          2 8 -21 91 48 77 6 24 28 vhcurveto
          hintmask 11100011
          5 10 0 40 53 71 -3 30 18 vvcurveto
          -8 28 26 -4 24 hhcurveto
          143 77 134 125 109 -59 152 -124 hvcurveto
          -36 -418 rmoveto
          -44 -40 31 23 hvcurveto
          hintmask 11010101
          -2 31 0 56 -3 106 rrcurveto
          12 49 24 33 45 56 -47 -92 -55 -20 -89 -74 vhcurveto
          endchar
        </CharString>
        <CharString name="paragraph">
          63 -167 -21 751 140 hstem
          189 142 144 143 vstem
          523 563 rmoveto
          -35 -93 -13 -94 -119 vvcurveto
          -154 22 -154 27 -111 vhcurveto
          -19 11 5 -7 6 hhcurveto
          7 8 12 14 16 hvcurveto
          21 126 20 173 167 vvcurveto
          91 -6 88 -15 79 vhcurveto
          29 2 28 5 27 7 rrcurveto
          9 16 6 6 16 vvcurveto
          13 -4 3 -11 13 vhcurveto
          8 -37 -35 3 -35 hhcurveto
          31 -66 -97 18 -69 hhcurveto
          -171 -146 -110 -114 -65 47 -65 117 -49 hvcurveto
          -164 22 -187 27 -111 vhcurveto
          -14 17 7 -10 7 hhcurveto
          6 5 7 17 11 hvcurveto
          20 126 20 174 173 vvcurveto
          103 -7 60 -21 89 vhcurveto
          endchar
        </CharString>
        <CharString name="parenleft">
          70 callsubr
          29 121 vstem
          332 -145 rmoveto
          -142 129 -40 103 148 vvcurveto
          143 37 113 113 81 vhcurveto
          14 17 9 16 14 vvcurveto
          15 -11 13 -26 9 vhcurveto
          -158 -99 -99 -149 -174 vvcurveto
          -190 118 -143 151 -80 vhcurveto
          20 12 11 23 2 hvcurveto
          endchar
        </CharString>
        <CharString name="parenright">
          70 callsubr
          186 121 vstem
          4 -145 rmoveto
          -23 2 12 -11 20 hhcurveto
          151 80 118 143 190 vvcurveto
          174 -99 149 -158 99 vhcurveto
          -26 -9 -11 -13 -15 vvcurveto
          -14 9 -16 14 -17 vhcurveto
          113 -81 37 -113 -143 vvcurveto
          -148 -40 -103 -142 -129 vhcurveto
          endchar
        </CharString>
        <CharString name="percent">
          209 -1 callsubr
          hintmask 1010101111000000
          -10 callgsubr
          96 92 73 113 75 117 42 127 73 112 rrcurveto
          hintmask 1010011111000000
          15 -12 -12 6 -13 hhcurveto
          hintmask 0110101111000000
          71 callsubr
          -93 -85 -71 -112 -72 -112 -50 -140 -28 callgsubr
          hintmask 1001101111000000
          -65 callsubr
          endchar
        </CharString>
        <CharString name="period">
          -465 -5 82 callgsubr
          39 122 vstem
          140 3 rmoveto
          -97 callsubr
        </CharString>
        <CharString name="periodcentered">
          -447 235 155 hstem
          42 134 vstem
          159 254 rmoveto
          11 21 6 20 21 vvcurveto
          19 -5 19 -12 19 vhcurveto
          11 -17 -17 6 -17 hhcurveto
          -16 -16 -5 -12 -16 hvcurveto
          -13 -19 -5 -18 -18 vvcurveto
          -21 7 -22 11 -21 vhcurveto
          -14 16 15 -5 15 hhcurveto
          18 18 8 11 17 hvcurveto
          endchar
        </CharString>
        <CharString name="perthousand">
          578 -1 callsubr
          44 84 159 83 hintmask 1010101111110000
          -10 callgsubr
          98 94 71 111 73 113 44 131 73 112 rrcurveto
          hintmask 1010011111110000
          15 -12 -12 6 -13 hhcurveto
          hintmask 0110101111110000
          71 callsubr
          -94 -87 -70 -110 -71 -111 -51 -141 -28 callgsubr
          hintmask 1001101111110000
          -65 callsubr
          453 6 rmoveto
          -65 callsubr
          endchar
        </CharString>
        <CharString name="plus">
          -126 88 -21 211 63 217 -20 hstem
          234 76 vstem
          504 289 rmoveto
          6 11 3 7 6 vvcurveto
          6 -3 5 -6 9 vhcurveto
          5 -34 -34 3 -35 hhcurveto
          -29 -45 -2 -6 -31 hvcurveto
          9 34 5 50 71 callgsubr
          -9 -7 3 -7 hhcurveto
          -10 -7 -5 -6 -8 72 callgsubr
          -51 9 -36 vhcurveto
          7 -31 -46 3 -33 hhcurveto
          -32 -33 -3 -7 -33 hvcurveto
          -11 -12 -5 -6 -5 vvcurveto
          -5 6 -4 10 -12 vhcurveto
          -8 32 32 -3 30 hhcurveto
          35 47 4 7 32 hvcurveto
          -8 -33 -3 -47 -31 vvcurveto
          -35 4 -34 7 -34 vhcurveto
          -6 9 7 -2 7 hhcurveto
          7 9 2 6 9 hvcurveto
          9 35 5 36 35 vvcurveto
          31 -4 46 -10 31 vhcurveto
          -9 31 45 -4 30 hhcurveto
          34 34 5 8 34 hvcurveto
          endchar
        </CharString>
        <CharString name="plusminus">
          -106 -10 81 292 73 203 -20 hstem
          238 86 vstem
          503 374 rmoveto
          5 7 5 10 11 vvcurveto
          8 -3 9 -7 9 vhcurveto
          5 -34 -34 3 -35 hhcurveto
          -29 -30 -2 -6 -31 hvcurveto
          9 34 5 35 71 callgsubr
          -12 -8 4 -8 hhcurveto
          -9 -8 -5 -7 -13 72 callgsubr
          -36 9 -36 vhcurveto
          7 -31 -52 3 -30 hhcurveto
          -35 -31 -4 -6 -14 hvcurveto
          -10 -13 -5 -7 -8 vvcurveto
          -7 5 -8 10 -11 vhcurveto
          -8 32 12 -3 30 hhcurveto
          35 52 4 7 32 hvcurveto
          -8 -33 -3 -52 -31 vvcurveto
          -35 4 -14 7 -34 vhcurveto
          -7 13 9 -2 7 hhcurveto
          8 8 3 6 13 hvcurveto
          10 30 4 22 33 vvcurveto
          33 -4 50 -10 31 vhcurveto
          -9 31 29 -4 32 hhcurveto
          32 45 4 9 24 hvcurveto
          6 -369 rmoveto
          12 9 5 7 9 vvcurveto
          10 -6 10 -11 12 vhcurveto
          7 -62 -43 2 -54 hhcurveto
          -121 -142 -10 -5 -41 hvcurveto
          -9 -11 -4 -8 -8 vvcurveto
          -8 4 -7 7 -11 vhcurveto
          -10 26 144 -3 68 hhcurveto
          95 97 6 9 35 hvcurveto
          endchar
        </CharString>
        <CharString name="q">
          25 callgsubr
          34 125 170 141 -128 128 -128 248 hintmask 1110011000000000
          210 30 callsubr
          -113 -63 -151 -111 -123 77 -135 143 24 26 4 8 28 hvcurveto
          -18 -3 -30 -71 vvcurveto
          -53 0 -40 5 -10 vhcurveto
          -24 28 77 -6 48 hhcurveto
          91 8 21 -2 hvcurveto
          hintmask 1110010010000000
          3 7 1 7 37 vvcurveto
          38 -1 29 callgsubr
          15 -26 -60 3 -17 hhcurveto
          -6 -6 29 callsubr
          hintmask 1110010100000000
          1 48 2 181 114 vvcurveto
          41 0 32 -1 15 vhcurveto
          -3 5 15 -1 16 hhcurveto
          28 34 3 7 11 hvcurveto
          5 4 3 42 39 vvcurveto
          23 -1 25 -2 8 vhcurveto
          hintmask 1100111000000000
          15 -9 -37 16 -62 hhcurveto
          -22 -83 -2 -2 -10 hvcurveto
          -4 -15 -1 -12 -8 vvcurveto
          -5 0 -3 1 -1 vhcurveto
          hintmask 1110011000000000
          17 -54 -35 39 -57 hhcurveto
          43 -418 rmoveto
          -74 -20 89 55 hvcurveto
          hintmask 1101010100000000
          92 56 47 45 33 49 -24 -12 vhcurveto
          -3 -106 0 -56 -2 -31 rrcurveto
          -23 -40 -31 -44 vhcurveto
          endchar
        </CharString>
        <CharString name="question">
          -117 16 -21 493 224 -77 77 hstemhm
          26 108 71 101 -101 113 57 143 hintmask 11011010
          518 540 rmoveto
          116 -113 56 -120 -83 -85 -27 -47 -48 vhcurveto
          -31 -30 -12 -34 -27 vvcurveto
          -34 18 -25 44 13 16 2 5 18 vhcurveto
          -1 7 0 8 9 vvcurveto
          hintmask 10111010
          47 17 69 111 100 13 -55 -49 -96 -50 -26 -111 -36 vhcurveto
          -6 -26 -3 -25 -42 vvcurveto
          -25 1 -30 13 -25 vhcurveto
          -3 10 -1 -2 18 hhcurveto
          13 23 1 4 15 hvcurveto
          4 17 5 26 28 vvcurveto
          19 -2 20 -7 17 vhcurveto
          109 27 112 70 116 vvcurveto
          -219 -530 rmoveto
          hintmask 11010110
          14 24 5 18 17 vvcurveto
          22 -9 18 -10 20 vhcurveto
          8 -19 -11 4 -11 hhcurveto
          -11 -10 -4 -8 -18 hvcurveto
          -9 -20 -4 -20 -20 vvcurveto
          -19 4 -20 9 -20 vhcurveto
          -11 16 11 -4 11 hhcurveto
          12 12 6 9 18 hvcurveto
          endchar
        </CharString>
        <CharString name="questiondown">
          -123 -245 77 -77 224 493 -20 hstemhm
          27 143 57 113 -101 101 71 108 hintmask 01111010
          27 -73 rmoveto
          -116 113 -56 120 83 85 27 47 48 vhcurveto
          31 30 12 34 27 vvcurveto
          34 -18 25 -44 -13 -16 -2 -5 -18 vhcurveto
          1 -7 0 -8 -9 vvcurveto
          hintmask 10110110
          -47 -17 -69 -111 -100 -13 55 49 96 50 26 111 36 vhcurveto
          6 26 3 25 42 vvcurveto
          25 -1 30 -13 25 vhcurveto
          3 -10 1 2 -18 hhcurveto
          -13 -23 -1 -4 -15 hvcurveto
          -4 -17 -5 -26 -28 vvcurveto
          -19 2 -20 7 -17 vhcurveto
          -109 -27 -112 -70 -116 vvcurveto
          219 530 rmoveto
          hintmask 10111010
          -14 -24 -5 -18 -17 vvcurveto
          -22 9 -18 10 -20 vhcurveto
          -8 19 11 -4 11 hhcurveto
          11 10 4 8 18 hvcurveto
          9 20 4 20 20 vvcurveto
          19 -4 20 -9 20 vhcurveto
          11 -16 -11 4 -11 hhcurveto
          -12 -12 -6 -9 -18 hvcurveto
          endchar
        </CharString>
        <CharString name="quotedbl">
          -311 419 -21 227 -20 hstem
          36 101 79 101 vstem
          36 554 rmoveto
          3 callgsubr
          180 hmoveto
          3 callgsubr
          endchar
        </CharString>
        <CharString name="quotedblbase">
          -285 -82 20 callsubr
          174 126 rmoveto
          -93 callsubr
          170 -19 callgsubr
        </CharString>
        <CharString name="quotedblleft">
          -280 -29 callgsubr
          48 callsubr
          -54 callsubr
          endchar
        </CharString>
        <CharString name="quotedblright">
          -281 418 20 callsubr
          366 626 rmoveto
          -93 callsubr
          -170 -19 callgsubr
        </CharString>
        <CharString name="quoteleft">
          -450 -29 callgsubr
          endchar
        </CharString>
        <CharString name="quoteright">
          -451 418 20 callsubr
          196 626 rmoveto
          -17 callgsubr
        </CharString>
        <CharString name="quotesinglbase">
          -455 -82 20 callsubr
          174 126 rmoveto
          -17 callgsubr
        </CharString>
        <CharString name="quotesingle">
          -515 410 -21 215 -20 hstem
          42 65 vstem
          104 597 rmoveto
          4 -18 -7 3 -8 hhcurveto
          -6 -7 -2 -5 -15 hvcurveto
          -1 -9 0 -9 -9 vvcurveto
          -56 10 -56 15 -57 vhcurveto
          3 -3 4 -5 6 -4 rrcurveto
          16 52 11 54 55 vvcurveto
          16 -1 15 -2 16 vhcurveto
          endchar
        </CharString>
        <CharString name="r">
          -149 1 167 196 148 -131 131 hstemhm
          40 203 -128 128 hintmask 11010000
          413 355 rmoveto
          29 2 52 24 10 66 rrcurveto
          39 -32 -42 26 -55 -96 -21 -78 -2 hhcurveto
          17 0 17 1 17 vhcurveto
          21 -27 -38 6 -35 hhcurveto
          -52 -49 -14 -3 -10 hvcurveto
          -4 -11 -2 -24 -23 vvcurveto
          -23 2 -22 4 -10 vhcurveto
          -13 10 21 -5 19 hhcurveto
          8 8 79 callgsubr
          hintmask 10101000
          -2 -4 -1 -19 -27 vvcurveto
          -65 5 -80 4 -10 vhcurveto
          5 -8 -14 2 -12 hhcurveto
          -17 -17 -3 -6 -5 hvcurveto
          -5 -4 -1 -40 -31 vvcurveto
          -31 1 -22 2 -8 vhcurveto
          -14 12 59 -8 66 hhcurveto
          41 45 3 8 37 hvcurveto
          15 13 8 37 35 vvcurveto
          25 -4 24 -8 13 vhcurveto
          5 -5 -17 2 -15 hhcurveto
          -14 -13 -2 -3 -1 hvcurveto
          -8 37 -3 32 25 vvcurveto
          89 40 37 59 20 20 -4 -22 31 vhcurveto
          endchar
        </CharString>
        <CharString name="registered">
          113 -1 95 115 167 93 62 -5 -20 127 100 hstemhm
          37 112 98 99 -73 73 107 71 116 97 hintmask 1101111011000000
          -58 callgsubr
          181 202 rmoveto
          10 62 callsubr
          3 -8 -9 1 -9 hhcurveto
          -22 -22 -7 -8 -6 hvcurveto
          -3 -9 -3 -11 -13 vvcurveto
          -13 3 -12 5 -6 vhcurveto
          -2 11 0 -1 11 hhcurveto
          hintmask 1110110111000000
          -4 -21 0 -45 -111 vvcurveto
          -16 -1 -1 -6 -4 hvcurveto
          hintmask 1110111011000000
          -2 -5 -3 -9 -10 vvcurveto
          -6 1 -8 4 -4 vhcurveto
          -5 3 26 -4 27 hhcurveto
          23 25 3 6 8 hvcurveto
          4 6 2 8 8 vvcurveto
          8 -2 7 -4 5 vhcurveto
          7 -7 -4 0 -12 hhcurveto
          6 55 rlineto
          34 88 -12 -49 3 hvcurveto
          -11 -1 -11 -2 -5 -4 rrcurveto
          -2 -3 -1 -5 -5 vvcurveto
          -11 4 -13 9 -4 vhcurveto
          -5 14 16 -3 30 hhcurveto
          18 15 1 4 8 hvcurveto
          5 6 4 11 9 vvcurveto
          7 -3 8 -4 5 vhcurveto
          2 -2 -11 2 -7 hhcurveto
          41 -36 39 -37 11 vhcurveto
          41 14 18 32 33 vvcurveto
          49 -40 52 -70 -31 -31 -10 -19 -22 vhcurveto
          84 -33 rmoveto
          22 17 -12 -23 -35 -40 -23 -32 -24 -11 13 17 27 30 36 38 hvcurveto
          endchar
        </CharString>
        <CharString name="s">
          -109 -6 93 -86 -21 221 95 115 96 14 69 callgsubr
          hintmask 10110110
          512 152 -46 callgsubr
          rrcurveto
          hintmask 10101110
          50 callgsubr
          hintmask 10110110
          55 callsubr
          -136 152 -8 89 -4 hvcurveto
          -33 callsubr
          rrcurveto
          hintmask 01110110
          51 callgsubr
          hintmask 10110110
          40 callgsubr
        </CharString>
        <CharString name="scaron">
          -109 -6 93 -86 -21 107 114 0 95 0 115 0 96 0 42 129 69 callgsubr
          hintmask 1000101111000000
          444 674 -42 callgsubr
          68 -522 -46 callgsubr
          50 callgsubr
          55 callsubr
          hvcurveto
          hintmask 0110010111000000
          -136 152 -8 89 -4 vhcurveto
          -33 callsubr
          51 callgsubr
          hintmask 1001010111000000
          40 callgsubr
        </CharString>
        <CharString name="section">
          -203 0 82 -62 -21 504 -20 64 75 8 -20 hstemhm
          58 97 -75 107 89 96 -52 95 hintmask 1011001100000000
          80 460 rmoveto
          -20 3 -13 4 -12 vhcurveto
          hintmask 1011010100000000
          -19 -34 -10 -34 -31 -142 218 49 -95 vvcurveto
          -30 -21 -16 -48 -38 -22 10 15 -12 vhcurveto
          -1 9 1 4 -5 11 rrcurveto
          5 -7 -30 1 -22 hhcurveto
          -19 -33 -8 -16 -39 vvcurveto
          -14 1 -15 3 -16 vhcurveto
          hintmask 0111010100000000
          -3 11 15 -2 14 hhcurveto
          9 9 1 2 7 hvcurveto
          6 6 7 5 5 11 rrcurveto
          hintmask 1011010100000000
          -16 22 24 -8 31 hhcurveto
          88 76 62 86 20 -4 22 -9 22 hvcurveto
          hintmask 1011001010000000
          32 36 24 28 43 134 -228 -56 94 vvcurveto
          30 24 26 47 19 23 -4 -11 26 vhcurveto
          -7 0 -4 4 -10 vhcurveto
          -6 8 13 -2 13 hhcurveto
          9 8 1 1 7 hvcurveto
          20 5 7 28 38 vvcurveto
          20 -2 17 52 callsubr
          hintmask 1010110100000000
          7 -5 -11 2 -12 82 callsubr
          -3 -4 -8 hvcurveto
          -5 -3 -11 -11 -4 -10 rrcurveto
          hintmask 1011001010000000
          15 -28 -30 8 -29 hhcurveto
          -81 -78 -62 -100 hvcurveto
          96 -96 rmoveto
          1 7 10 1 11 hhcurveto
          51 65 -24 -34 hvcurveto
          hintmask 1011010100000000
          -15 -13 -17 -31 -18 vhcurveto
          -1 -7 -7 0 -7 hhcurveto
          -47 -53 13 41 14 6 18 15 21 hvcurveto
          endchar
        </CharString>
        <CharString name="semicolon">
          -425 -62 -21 235 148 0 75 callgsubr
          74 122 hintmask 11010000
          179 146 rmoveto
          -93 callsubr
          -4 162 rmoveto
          -80 callsubr
          -80 callgsubr
          hintmask 10110000
          -99 callgsubr
          -104 callgsubr
          16 11 4 4 8 hvcurveto
          endchar
        </CharString>
        <CharString name="seven">
          -218 19 -21 530 182 -115 115 hstemhm
          hintmask 10100000
          131 583 rmoveto
          8 35 35 4 34 hhcurveto
          24 22 -2 -3 23 hvcurveto
          -86 -144 -76 -275 -44 -162 rrcurveto
          -8 3 39 -3 29 hhcurveto
          16 14 1 2 1 hvcurveto
          69 61 112 374 64 241 rrcurveto
          27 -39 -74 6 -72 hhcurveto
          -82 -109 -8 -10 -19 hvcurveto
          -28 -18 -8 -51 -34 vvcurveto
          -17 2 -22 3 -13 vhcurveto
          hintmask 11000000
          -6 8 17 -3 18 hhcurveto
          23 23 4 4 12 hvcurveto
          6 9 5 9 29 vvcurveto
          endchar
        </CharString>
        <CharString name="six">
          -17 -15 117 224 110 82 -20 108 105 -16 -20 24 -20 hstemhm
          40 30 callgsubr
          189 255 123 hintmask 1110011010000000
          425 545 rmoveto
          -9 12 51 -18 31 hhcurveto
          5 5 0 1 5 hvcurveto
          34 19 35 71 45 vvcurveto
          8 -1 6 -1 5 vhcurveto
          14 -11 -35 12 -33 hhcurveto
          hintmask 1110101010000000
          -10 -10 -1 -3 -9 hvcurveto
          -3 -8 -18 -3 -2 hvcurveto
          hintmask 1111001010000000
          25 -50 -48 12 -51 hhcurveto
          -194 -97 -177 -180 -183 101 -186 197 138 131 91 157 128 -86 75 -144 -99 -68 -35 -72 -42 hvcurveto
          -6 17 -3 19 19 vvcurveto
          101 79 121 110 24 28 -6 -13 29 vhcurveto
          -3 -3 -4 -11 -12 vvcurveto
          -5 1 -6 2 -5 vhcurveto
          -59 -219 rmoveto
          62 56 -39 -54 -47 -44 -84 -99 hvcurveto
          hintmask 1111000110000000
          -70 -42 42 53 61 55 68 82 hvcurveto
          endchar
        </CharString>
        <CharString name="slash">
          76 callgsubr
          512 702 rmoveto
          4 -6 11 -14 2 vhcurveto
          -219 -225 -146 -277 -107 -307 rrcurveto
          -6 4 -9 16 -2 vhcurveto
          223 235 154 271 95 303 rrcurveto
          endchar
        </CharString>
        <CharString name="space">
          -462 endchar
        </CharString>
        <CharString name="sterling">
          -4 -12 118 -118 173 -148 -21 336 107 214 108 hstemhm
          112 133 hintmask 00111100
          245 328 rmoveto
          56 2 66 5 20 4 rrcurveto
          9 16 6 -4 16 vvcurveto
          13 -4 33 -11 13 vhcurveto
          -22 5 -58 3 -50 1 rrcurveto
          141 26 41 73 116 hhcurveto
          43 36 -10 -6 30 hvcurveto
          6 9 7 18 21 vvcurveto
          17 -5 19 -16 16 vhcurveto
          16 -53 -48 8 -42 hhcurveto
          -172 -80 -137 -187 -25 hvcurveto
          -27 -2 -25 -3 -18 -2 rrcurveto
          -9 -13 -4 -33 -13 vvcurveto
          -16 5 4 8 -16 vhcurveto
          16 -3 22 -2 23 -2 rrcurveto
          -124 -3 -62 -43 -106 vhcurveto
          -27 14 43 -21 31 hhcurveto
          9 10 2 4 11 hvcurveto
          2 2 11 13 14 25 rrcurveto
          1 7 8 0 8 hhcurveto
          hintmask 01011100
          84 118 -51 88 hhcurveto
          50 41 16 51 20 hvcurveto
          47 -5 -35 59 -28 hhcurveto
          -4 -3 -1 -2 -3 hvcurveto
          hintmask 10011100
          -44 -11 -3 -8 -26 hhcurveto
          -44 -155 23 15 -79 hvcurveto
          4 25 2 98 61 vvcurveto
          endchar
        </CharString>
        <CharString name="t">
          -245 -8 120 266 126 2 -20 212 -20 hstemhm
          76 134 hintmask 11011000
          302 135 rmoveto
          6 -21 rlineto
          -1 -6 -3 -1 -21 hhcurveto
          -63 -5 9 104 hvcurveto
          46 1 46 62 vvcurveto
          25 28 -1 25 hhcurveto
          24 24 1 3 23 hvcurveto
          4 4 2 11 13 vvcurveto
          28 -8 40 -7 12 vhcurveto
          -10 6 -45 5 -71 3 -10 190 rcurveline
          2 -23 -18 2 -20 hhcurveto
          -20 -21 -2 -2 -26 hvcurveto
          hintmask 10111000
          -188 -22 vlineto
          -14 -15 0 -3 -18 hvcurveto
          -4 -4 -2 -11 -13 vvcurveto
          -28 8 -40 7 -12 vhcurveto
          9 -5 12 -5 28 -3 13 -229 -15 -99 42 -38 rrcurveto
          -16 18 39 -8 55 hhcurveto
          44 56 5 9 63 hvcurveto
          9 12 4 40 30 vvcurveto
          15 -1 27 -9 26 vhcurveto
          endchar
        </CharString>
        <CharString name="thorn">
          -79 -220 135 102 109 260 124 248 -20 hstemhm
          -16 215 -135 209 160 118 hintmask 11111010
          194 455 rmoveto
          1 1 0 190 18 vvcurveto
          8 -1 62 -4 15 vhcurveto
          6 -14 -19 3 -22 hhcurveto
          -49 -59 -14 -22 -29 hvcurveto
          -9 -19 -5 -26 -24 vvcurveto
          -29 7 -27 12 -16 vhcurveto
          -4 18 21 -3 43 callsubr
          hintmask 11110110
          -2 -47 -8 -55 -303 -151 2 -46 -59 9 callsubr
          -9 -13 -5 -18 -18 vvcurveto
          -17 4 -16 10 -11 vhcurveto
          -17 20 56 -7 56 hhcurveto
          62 63 9 15 16 hvcurveto
          4 14 2 15 16 vvcurveto
          16 -2 18 -4 14 vhcurveto
          11 -7 -23 37 callgsubr
          hintmask 11111010
          6 17 2 25 26 vvcurveto
          18 -1 19 -3 14 -2 callgsubr
          2 -232 18 callgsubr
        </CharString>
        <CharString name="three">
          -111 -21 119 425 167 -110 110 hstemhm
          259 243 -122 122 -110 110 hintmask 11000100
          419 354 rmoveto
          57 51 26 58 58 vvcurveto
          118 -110 51 -103 -32 -31 -5 -9 -28 vhcurveto
          -8 8 -36 -1 -32 -29 -9 -16 rlinecurve
          -33 3 35 -82 37 hhcurveto
          15 35 10 11 5 hvcurveto
          -6 22 rlineto
          hintmask 10100100
          10 19 19 4 18 hhcurveto
          54 45 -37 -41 -22 -13 -23 -32 -18 hvcurveto
          1 -12 -16 3 -15 hhcurveto
          -13 -12 -2 -8 -8 hvcurveto
          hintmask 11010000
          -8 -15 -4 -21 -23 vvcurveto
          -29 7 -30 16 -20 vhcurveto
          -4 10 9 -1 9 hhcurveto
          9 7 1 2 8 hvcurveto
          hintmask 11001000
          33 -25 13 -27 -29 vvcurveto
          -67 -67 -47 -62 -24 -24 7 15 -19 vhcurveto
          8 8 13 3 1 6 -1 23 -29 43 -22 10 -96 -24 -46 -40 -4 -17 rrcurveto
          -1 -4 73 callsubr
          vvcurveto
          -24 19 -32 19 -18 vhcurveto
          3 11 4 7 14 hvcurveto
          -55 46 59 -22 61 hhcurveto
          133 136 108 117 51 -25 53 -63 46 hvcurveto
          endchar
        </CharString>
        <CharString name="threequarters">
          129 -2 215 -75 75 90 70 268 68 -13 -20 hstemhm
          227 83 264 184 -132 101 hintmask 10110110
          279 22 callgsubr
          hintmask 10101110
          -11 callsubr
          hintmask 01110110
          -4 callsubr
          -3 -5 -1 -21 -10 vvcurveto
          -14 -62 callgsubr
          276 82 -69 callsubr
          165 -205 -33 callgsubr
          -10 -1 -10 -10 vvcurveto
          -10 0 -10 2 -11 vhcurveto
          -16 -2 -18 1 -11 -1 rrcurveto
          -4 -3 -1 -8 -16 vvcurveto
          -14 3 -25 2 -7 vhcurveto
          hintmask 10110110
          -5 4 35 -2 38 hhcurveto
          47 48 3 2 3 hvcurveto
          2 1 2 13 12 vvcurveto
          14 -26 callsubr
          6 4 5 12 15 22 callsubr
          hintmask 10110101
          -23 callgsubr
          endchar
        </CharString>
        <CharString name="threesuperior">
          -321 303 70 268 68 -13 -20 hstemhm
          154 149 -83 83 hintmask 11001000
          272 22 callgsubr
          hintmask 10110000
          -11 callsubr
          hintmask 11001000
          -4 callsubr
          hintmask 11010000
          -3 -7 -1 -16 -11 vvcurveto
          -16 -62 callgsubr
          endchar
        </CharString>
        <CharString name="tilde">
          525 63 callsubr
          465 619 -74 callsubr
          hintmask 01100000
          -84 callgsubr
          hintmask 10010000
          -54 callgsubr
        </CharString>
        <CharString name="trademark">
          197 290 74 -52 -21 230 107 hstemhm
          52 212 -77 77 -77 211 46 76 143 143 -114 82 hintmask 1011001010000000
          609 408 rmoveto
          16 14 49 35 18 16 rrcurveto
          -34 2 -42 2 -31 vhcurveto
          -6 -13 -4 -2 -7 hvcurveto
          hintmask 1011001100000000
          -5 -5 -2 -9 -9 vvcurveto
          -12 3 -13 4 -6 vhcurveto
          -11 11 11 -5 36 hhcurveto
          27 24 3 5 11 hvcurveto
          10 11 6 11 13 vvcurveto
          8 -2 8 -4 10 vhcurveto
          3 -6 -9 68 callsubr
          hintmask 1011001010000000
          2 36 4 29 35 vvcurveto
          24 -2 33 -4 24 vhcurveto
          11 10 0 4 11 hvcurveto
          21 -4 29 -6 22 vhcurveto
          6 -13 -16 2 -16 hhcurveto
          -27 -28 -6 -11 -20 52 callgsubr
          2 -2 7 0 4 -1 -14 -18 -42 -35 -18 -11 -18 11 -41 35 -16 18 rrcurveto
          6 5 1 3 6 hvcurveto
          21 -2 30 -7 21 vhcurveto
          3 -9 -23 2 -23 hhcurveto
          -28 -28 -3 -11 -9 52 callgsubr
          -4 7 11 0 10 hhcurveto
          -4 -29 -2 -28 -30 vvcurveto
          -30 2 -30 4 -30 vhcurveto
          -5 -17 -4 -2 -6 hvcurveto
          -4 -4 -1 -6 -7 vvcurveto
          -15 4 -13 1 -9 vhcurveto
          -10 7 36 -4 35 hhcurveto
          30 0 3 3 12 hvcurveto
          6 14 4 16 16 vvcurveto
          5 62 callsubr
          3 -6 -8 68 callsubr
          2 32 2 47 1 31 20 -16 47 -35 17 -14 rrcurveto
          -442 -102 rmoveto
          hintmask 0111001100000000
          -10 10 24 -5 24 hhcurveto
          24 24 5 10 10 hvcurveto
          3 6 1 10 10 vvcurveto
          11 -1 11 -3 6 vhcurveto
          3 -8 -8 3 -13 hhcurveto
          8 4 2 54 44 vvcurveto
          45 -2 47 -1 4 vhcurveto
          10 34 0 -7 8 hvcurveto
          8 -29 rlineto
          -6 11 13 -1 13 hhcurveto
          13 12 1 4 12 hvcurveto
          hintmask 1010011100000000
          2 7 1 12 17 vvcurveto
          16 -1 27 -4 12 vhcurveto
          4 -55 -55 3 -55 hhcurveto
          -56 -56 -3 -4 -57 hvcurveto
          hintmask 1011001100000000
          -4 -12 -3 -25 -21 vvcurveto
          -12 1 -14 2 -7 vhcurveto
          -4 12 14 -1 13 hhcurveto
          12 13 1 6 10 hvcurveto
          8 29 3 3 23 3 29 1 rlinecurve
          hintmask 1010101100000000
          -1 -32 -4 -28 -34 vvcurveto
          -29 3 -48 7 -27 vhcurveto
          -2 -6 -1 -1 -4 hvcurveto
          -16 -3 4 0 -6 -1 rrcurveto
          -2 -2 0 -7 -10 vvcurveto
          -13 1 -16 1 -6 vhcurveto
          endchar
        </CharString>
        <CharString name="two">
          -18 -25 208 -184 115 380 200 -100 116 hstemhm
          34 167 -147 147 266 128 -128 141 hintmask 10101010
          321 391 rmoveto
          -220 -24 -67 -240 -123 vvcurveto
          -9 0 -8 1 -7 vhcurveto
          -3 9 24 -2 26 hhcurveto
          31 33 3 9 7 44 callgsubr
          hintmask 01101010
          -2 36 50 -4 49 hhcurveto
          60 59 6 24 29 hvcurveto
          1 -8 9 -36 0 vvcurveto
          hintmask 10101001
          -7 2 24 -3 26 hhcurveto
          25 26 3 2 10 hvcurveto
          3 2 26 32 84 vvcurveto
          43 -7 21 -20 11 vhcurveto
          6 -10 -17 4 -18 hhcurveto
          -19 -17 -4 -6 -10 hvcurveto
          -6 -12 -8 -8 -12 vvcurveto
          -2 0 -2 1 -3 vhcurveto
          hintmask 01010110
          -14 -36 -35 -6 -35 hhcurveto
          -34 -95 6 8 -39 hvcurveto
          -2 10 0 9 8 vvcurveto
          111 111 10 63 5 vhcurveto
          160 14 60 70 103 vvcurveto
          125 -89 117 -153 -55 -56 -15 -31 -49 vhcurveto
          -7 18 6 -3 -14 11 rrcurveto
          hintmask 10100110
          3 -3 -10 1 -13 hhcurveto
          -32 -49 -7 -9 -11 hvcurveto
          -4 -12 -2 -29 -29 vvcurveto
          -63 9 -43 32 -7 vhcurveto
          5 2 -1 11 hhcurveto
          23 41 4 7 10 hvcurveto
          6 15 0 8 10 vvcurveto
          hintmask 10011010
          39 21 43 17 48 hhcurveto
          91 71 -63 -64 -59 -59 -8 -87 -9 hvcurveto
          endchar
        </CharString>
        <CharString name="twosuperior">
          -283 292 84 -72 72 238 66 hstemhm
          43 107 96 85 hintmask 10111000
          246 568 rmoveto
          -40 -203 -44 -139 vvcurveto
          -20 1 -11 8 -17 vhcurveto
          -3 9 12 -2 13 hhcurveto
          16 16 3 6 11 hvcurveto
          1 1 0 2 1 5 rrcurveto
          hintmask 01111000
          -2 18 21 -3 20 hhcurveto
          23 61 callsubr
          -5 3 17 -1 17 hhcurveto
          17 16 1 1 2 -8 callsubr
          -5 -11 -28 -3 -27 hhcurveto
          -19 -17 1 5 -10 hvcurveto
          69 181 0 117 vvcurveto
          68 -8 callgsubr
          -14 -15 vvcurveto
          -33 7 -35 12 -8 vhcurveto
          -3 5 48 callgsubr
          12 13 4 5 8 hvcurveto
          1 6 0 3 3 vvcurveto
          21 3 38 18 34 hhcurveto
          28 24 -13 -33 hvcurveto
          endchar
        </CharString>
        <CharString name="u">
          60 -10 132 -101 -21 330 171 -157 157 -1 -37 callgsubr
          hintmask 1001010100000000
          -94 callgsubr
          hintmask 1010010010000000
          -86 callgsubr
          hintmask 1000110100000000
          -56 callsubr
          hintmask 1010001100000000
          -76 callsubr
          hintmask 0110010010000000
          -76 callgsubr
          hintmask 1010010100000000
          16 callsubr
          endchar
        </CharString>
        <CharString name="uacute">
          28 callgsubr
          122 208 0 1 callsubr
          21 86 161 -37 callgsubr
          hintmask 1000100110100000
          -94 callgsubr
          hintmask 0110011110010000
          -86 callgsubr
          -56 callsubr
          -55 callgsubr
          hintmask 1001000101100000
          -68 callgsubr
          hintmask 0101000110010000
          -76 callgsubr
          hintmask 1000011110100000
          16 callsubr
          -123 376 -89 callsubr
        </CharString>
        <CharString name="ucircumflex">
          -6 callgsubr
          248 -93 callgsubr
          -69 227 -103 callsubr
        </CharString>
        <CharString name="udieresis">
          -6 callgsubr
          75 160 1 callgsubr
          -27 12 callgsubr
          -90 204 -138 237 hintmask 1001011000100000
          -94 callgsubr
          hintmask 1010011000010000
          -86 callgsubr
          hintmask 1000111001000000
          -56 callsubr
          hintmask 1010010101000000
          -76 callsubr
          hintmask 0110011000010000
          -76 callgsubr
          hintmask 1010011000100000
          16 callsubr
          -135 217 rmoveto
          hintmask 1010010011000000
          -107 callgsubr
          -170 hmoveto
          -97 callsubr
        </CharString>
        <CharString name="ugrave">
          -6 callgsubr
          266 -93 callgsubr
          -372 375 -101 callgsubr
        </CharString>
        <CharString name="underscore">
          65 -212 71 hstem
          658 -199 rmoveto
          6 11 2 9 7 vvcurveto
          12 -6 6 -2 2 39 callgsubr
          -4 -5 -4 -5 -10 vvcurveto
          -7 2 -9 6 -11 38 callsubr
          endchar
        </CharString>
        <CharString name="uni00AD">
          -294 232 71 hstem
          56 290 rmoveto
          -1 -2 -3 -9 -12 vvcurveto
          -7 1 -9 3 -8 vhcurveto
          -8 37 46 -3 36 hhcurveto
          46 46 5 6 45 21 callsubr
          7 7 vvcurveto
          10 -2 12 -2 3 vhcurveto
          10 -37 -62 4 -40 hhcurveto
          -35 -47 -3 -10 -35 hvcurveto
          endchar
        </CharString>
        <CharString name="v">
          -64 21 -21 502 -20 hstem
          522 336 rmoveto
          54 callsubr
          rrcurveto
          51 -50 -64 24 -87 hhcurveto
          -4 -3 -34 -70 -1 -8 5 -14 36 -10 15 -1 -22 -76 -41 -109 -45 -67 -33 55 -63 147 -12 50 rrcurveto
          11 42 14 12 3 hvcurveto
          14 -31 54 -8 12 vhcurveto
          -72 -6 -69 -21 -60 -48 57 callgsubr
          4 -67 58 -92 40 -59 rrcurveto
          -8 -34 -28 -7 -6 hvcurveto
          -32 23 -32 24 -11 vhcurveto
          -6 15 42 -2 45 hhcurveto
          56 61 3 5 23 hvcurveto
          24 6 22 45 1 24 -10 13 -22 17 -16 5 38 66 54 71 10 81 rrcurveto
          endchar
        </CharString>
        <CharString name="w">
          242 21 -21 501 -20 hstem
          279 hmoveto
          45 83 152 85 46 hvcurveto
          -85 47 83 -152 45 hhcurveto
          32 32 0 8 32 hvcurveto
          25 20 24 23 32 vvcurveto
          -10 13 -22 17 -16 5 19 34 81 127 2 34 54 callsubr
          -53 53 -45 26 -113 18 -42 -23 4 -61 -1 -18 rrcurveto
          -10 45 -15 11 -1 vhcurveto
          -7 -39 -46 -90 -25 -40 -52 52 -30 125 -25 78 rrcurveto
          11 -16 -17 6 -17 hhcurveto
          -17 -17 -6 -11 -14 hvcurveto
          -21 -44 -59 -157 -58 -44 -33 60 -38 60 -7 39 rrcurveto
          11 42 14 12 3 hvcurveto
          32 -10 52 -29 18 vhcurveto
          -113 -18 -51 -27 -47 -52 57 callgsubr
          2 -32 71 -116 29 -47 rrcurveto
          -8 -34 -28 -7 -6 hvcurveto
          -17 20 -44 28 -14 vhcurveto
          -2 5 13 -6 79 hhcurveto
          endchar
        </CharString>
        <CharString name="x">
          15 -4 105 289 112 -1 -20 hstemhm
          hintmask 11000000
          339 193 rmoveto
          44 -17 41 -41 20 -37 rrcurveto
          2 -5 -7 81 callsubr
          -11 -12 -3 -8 -7 hvcurveto
          -24 16 -50 22 -11 vhcurveto
          -5 29 51 -4 32 hhcurveto
          38 39 6 15 36 hvcurveto
          5 vlineto
          28 -7 37 -21 16 vhcurveto
          2 -7 -9 3 -11 hhcurveto
          -6 -7 -1 -3 -6 hvcurveto
          -21 50 -56 57 -48 41 51 35 45 57 39 54 rrcurveto
          -3 7 9 -5 8 hhcurveto
          4 4 2 3 4 hvcurveto
          19 19 8 40 28 vvcurveto
          14 -34 -41 6 -41 hhcurveto
          -29 -51 -3 -6 -28 hvcurveto
          -14 -14 -24 -54 -17 vvcurveto
          -6 3 10 -3 15 hhcurveto
          6 18 0 2 7 hvcurveto
          -28 -34 -40 -34 -47 -29 -58 29 -30 43 -26 25 rrcurveto
          -1 5 16 -1 6 hhcurveto
          10 12 3 6 10 hvcurveto
          21 -25 62 -14 2 vhcurveto
          hintmask 10100000
          5 -28 -51 3 -31 hhcurveto
          -39 -39 -5 -14 -36 hvcurveto
          1 -31 7 -31 20 -25 rrcurveto
          18 9 1 2 9 hvcurveto
          25 -54 58 -57 54 -35 -51 -39 -45 -61 -33 -51 rrcurveto
          2 -6 -11 1 -9 hhcurveto
          -7 -6 0 -1 -5 hvcurveto
          -23 -30 -6 -28 -28 vvcurveto
          -15 34 38 -6 39 hhcurveto
          32 62 4 5 30 hvcurveto
          14 2 24 71 1 14 rrcurveto
          6 -5 -10 2 -10 -9 -19 -2 -6 hhcurveto
          22 29 27 44 55 22 rrcurveto
          endchar
        </CharString>
        <CharString name="y">
          34 callgsubr
          54 callgsubr
          hintmask 01111100
          -94 callsubr
          hintmask 10111010
          -95 callgsubr
          endchar
        </CharString>
        <CharString name="yacute">
          49 -250 121 101 27 0 139 200 163 0 86 161 -20 54 callgsubr
          hintmask 1101011100000000
          -94 callsubr
          hintmask 1010111010000000
          -95 callgsubr
          351 774 -89 callsubr
        </CharString>
        <CharString name="ydieresis">
          34 callgsubr
          74 75 callgsubr
          81 136 -15 12 callgsubr
          -99 230 -152 152 hintmask 0111110010000000
          -94 callsubr
          hintmask 1011110001000000
          -95 callgsubr
          159 635 rmoveto
          hintmask 1011101001000000
          -103 callgsubr
          hintmask 1011110100000000
          -80 callsubr
          hintmask 1011110001000000
          -80 callgsubr
          -99 callgsubr
          hintmask 1011110100000000
          -104 callgsubr
          hintmask 1011110001000000
          16 11 4 4 8 hvcurveto
          endchar
        </CharString>
        <CharString name="yen">
          60 -1 248 -58 58 27 58 370 -20 hstemhm
          hintmask 10110000
          566 286 rmoveto
          49 callgsubr
          -1 12 vvcurveto
          7 -1 9 52 callsubr
          -22 4 -50 4 -46 1 105 69 44 85 33 48 -96 callgsubr
          87 -125 91 -59 -49 -2 -54 -4 -26 -3 65 callgsubr
          -7 -7 vvcurveto
          -8 1 -3 3 -4 vhcurveto
          8 -9 110 -2 18 -1 rrcurveto
          -9 0 -10 1 -9 vhcurveto
          -52 -2 -58 -4 -27 -3 65 callgsubr
          3 -30 callsubr
          10 -10 109 -1 20 -1 1 -28 0 -26 1 -15 -82 callsubr
          hintmask 01110000
          2 14 0 26 1 28 49 2 58 3 22 7 rrcurveto
          -48 callsubr
          -1 52 callsubr
          -23 5 -56 3 -48 1 rrcurveto
          10 0 9 1 8 vhcurveto
          48 2 56 4 22 6 rrcurveto
          endchar
        </CharString>
        <CharString name="z">
          -40 0 112 -112 218 -198 -21 309 192 -105 105 -1 -20 hstemhm
          hintmask 10001000
          232 123 -7 callgsubr
          hintmask 10000100
          56 callsubr
          hintmask 10001000
          56 callgsubr
          hintmask 10010000
          4 callsubr
          hintmask 01001000
          -26 callgsubr
          hintmask 00110000
          6 callsubr
          hintmask 01010000
          3 callsubr
          hintmask 10010000
          43 callgsubr
        </CharString>
        <CharString name="zcaron">
          -40 0 112 -92 -21 309 192 -105 105 0 39 129 -20 hstemhm
          hintmask 10001100
          463 664 -42 callgsubr
          -231 -541 -7 callgsubr
          56 callsubr
          hintmask 10010100
          56 callgsubr
          hintmask 10100100
          4 callsubr
          hintmask 10010100
          -26 callgsubr
          hintmask 01100100
          6 callsubr
          3 callsubr
          hintmask 10100100
          43 callgsubr
        </CharString>
        <CharString name="zero">
          -22 callsubr
          hstem
          38 161 377 53 callgsubr
          -236 -198 -159 109 -119 183 258 114 235 191 154 -74 132 -180 hvcurveto
          -108 -83 callgsubr
          endchar
        </CharString>
      <CharString index="0">
        -80 callsubr
        -80 callgsubr
        -99 callgsubr
        -104 callgsubr
        16 11 4 4 8 hvcurveto
        return
      </CharString>
      <CharString index="1">
        -74 callgsubr
        24 0 20 -32 -10 -13 -2 -2 83 callsubr
        1 -1 2 6 vvcurveto
        17 9 38 18 60 vhcurveto
        -3 31 50 -1 33 hhcurveto
        32 46 1 3 31 hvcurveto
        16 -53 11 -43 -18 vvcurveto
        -6 -1 -4 -3 vhcurveto
        3 -23 1 -6 -28 -1 -18 -17 -33 4 -45 18 -11 vhcurveto
        -6 25 -5 78 61 85 3 9 10 vhcurveto
        8 4 3 17 36 vvcurveto
        58 -8 17 -39 -17 -14 -3 -5 vhcurveto
        -9 55 -194 497 -14 7 rrcurveto
        -74 -119 rmoveto
        21 -52 28 -78 26 -76 rrcurveto
        3 -27 -29 1 -21 hhcurveto
        -21 -27 -1 -2 -25 hvcurveto
        26 75 28 78 21 52 rrcurveto
        return
      </CharString>
      <CharString index="2">
        -106 callsubr
        endchar
      </CharString>
      <CharString index="3">
        -16 -23 -6 -22 -22 vvcurveto
        -26 8 -26 14 -25 vhcurveto
        -6 19 14 -2 11 hhcurveto
        return
      </CharString>
      <CharString index="4">
        -107 callgsubr
        48 callsubr
        return
      </CharString>
      <CharString index="5">
        -20 hstem
        107 144 vstem
        -105 callsubr
        return
      </CharString>
      <CharString index="6">
        rmoveto
        32 -55 48 -39 54 -33 rrcurveto
        -2 4 2 -1 9 hhcurveto
        8 5 1 2 2 hvcurveto
        -21 53 -23 53 -42 45 31 callgsubr
        -4 0 -4 hhcurveto
        -32 -24 -15 -10 -9 hvcurveto
        endchar
      </CharString>
      <CharString index="7">
        684 565 rmoveto
        -2 6 -12 callsubr
        15 17 5 9 10 hvcurveto
        10 17 6 14 14 vvcurveto
        15 -6 16 -12 19 vhcurveto
        23 -27 -45 8 -46 hhcurveto
        -50 -53 -10 -14 -35 hvcurveto
        -11 -17 -6 -20 -21 vvcurveto
        -19 5 -20 12 -18 vhcurveto
        -7 3 9 -3 9 hhcurveto
        12 14 5 7 6 hvcurveto
        4 -19 2 -23 -38 vvcurveto
        -204 -57 -130 -90 -86 -87 117 202 38 3 26 5 21 vhcurveto
        return
      </CharString>
      <CharString index="8">
        6 -15 -13 2 -11 hhcurveto
        -19 -14 -6 -2 -7 hvcurveto
        return
      </CharString>
      <CharString index="9">
        rmoveto
        -96 callgsubr
        88 -126 92 -59 7 -44 1 -122 2 -44 -82 callsubr
        5 41 -2 128 9 41 107 69 44 86 33 48 rrcurveto
        return
      </CharString>
      <CharString index="10">
        -75 callgsubr
        hintmask 11110000
        -99 callsubr
        return
      </CharString>
      <CharString index="11">
        17 callgsubr
        19 22 4 35 5 29 rrcurveto
        51 -50 -74 46 -87 hhcurveto
        -6 -4 -32 -69 -1 -10 1 -4 11 -6 13 -6 rrcurveto
        -8 17 -12 callsubr
        -8 -27 -95 -134 -35 -21 -37 39 -102 115 -9 28 rrcurveto
        7 10 2 7 14 hvcurveto
        13 6 12 6 5 vvcurveto
        15 -30 53 -9 14 vhcurveto
        -113 -18 -79 -51 -19 -28 7 -39 3 -11 18 -36 17 callsubr
        5 -18 return
      </CharString>
      <CharString index="12">
        5 -18 3 -16 -19 vvcurveto
        -91 -69 -64 -81 -71 -35 49 84 25 3 23 9 27 vhcurveto
        -3 9 7 -2 8 hhcurveto
        6 7 1 5 8 hvcurveto
        13 17 6 22 23 vvcurveto
        26 -8 27 -16 20 vhcurveto
        12 -34 -42 5 -33 hhcurveto
        -42 -41 -8 -11 -45 hvcurveto
        -10 -17 -4 -27 -26 vvcurveto
        -26 4 -25 9 -19 vhcurveto
        -1 9 19 -6 14 hhcurveto
        5 5 1 2 4 hvcurveto
        -4 -17 -2 -18 -24 vvcurveto
        -160 86 -118 132 57 62 22 49 59 vhcurveto
        3 -11 4 -26 -26 vvcurveto
        -123 -92 -13 -89 -66 -39 7 39 -53 vhcurveto
        1 4 2 7 7 vvcurveto
        5 -1 6 -3 2 vhcurveto
        return
      </CharString>
      <CharString index="13">
        580 346 rmoveto
        -1 5 3 -1 16 hhcurveto
        16 12 1 8 32 hvcurveto
        23 13 4 28 36 vvcurveto
        26 -2 7 -7 9 vhcurveto
        23 -19 -47 6 -44 hhcurveto
        -69 -76 -15 -20 -41 hvcurveto
        -7 -51 -3 -9 -22 vvcurveto
        -34 8 -6 2 vhcurveto
        -4 3 10 -1 9 hhcurveto
        17 9 4 3 5 hvcurveto
        return
      </CharString>
      <CharString index="14">
        -37 callgsubr
        hintmask 1001011010000000
        -94 callgsubr
        hintmask 1010011001000000
        -86 callgsubr
        hintmask 1000111010000000
        -56 callsubr
        hintmask 1010010110000000
        -76 callsubr
        hintmask 0110011001000000
        -76 callgsubr
        hintmask 1010011010000000
        16 callsubr
        return
      </CharString>
      <CharString index="15">
        21 2 5 6 hvcurveto
        15 15 6 30 32 vvcurveto
        36 -8 39 -12 20 -81 callgsubr
        -3 -1 return
      </CharString>
      <CharString index="16">
        4 6 5 75 64 vvcurveto
        29 -1 18 -2 4 85 callgsubr
        8 -1 8 hhcurveto
        23 54 7 11 5 21 callsubr
        11 39 vvcurveto
        38 -1 29 callgsubr
        return
      </CharString>
      <CharString index="17">
        -37 callsubr
        hintmask 0110111000000000
        -73 callgsubr
        hintmask 1010110010000000
        -86 callsubr
        hintmask 1010110100000000
        -95 callsubr
        hintmask 0101111000000000
        -75 callsubr
        hintmask 1010111000000000
        -88 callgsubr
        return
      </CharString>
      <CharString index="18">
        -20 20 callgsubr
        hintmask 11011110
        -100 callgsubr
        hintmask 11101110
        -100 callsubr
        return
      </CharString>
      <CharString index="19">
        75 391 rmoveto
        47 42 -36 -26 hvcurveto
        -12 vlineto
        -1 -19 -4 -45 -6 -106 rrcurveto
        -12 -2 -47 -19 -28 hhcurveto
        -47 -30 callgsubr
        return
      </CharString>
      <CharString index="20">
        11 32 56 hvcurveto
        5 25 5 27 25 vvcurveto
        28 -6 27 -17 22 vhcurveto
        4 -16 -14 2 -12 hhcurveto
        -28 -22 -11 -22 -33 hvcurveto
        3 -33 rlineto
        return
      </CharString>
      <CharString index="21">
        1 -15 2 -39 -19 vvcurveto
        -116 -72 -35 -48 -71 -50 77 81 vhcurveto
        11 1 37 7 vvcurveto
        -3 8 9 -2 10 hhcurveto
        10 -62 callsubr
        return
      </CharString>
      <CharString index="22">
        -69 callgsubr
        6 5 66 callsubr
        14 16 -68 callsubr
        return
      </CharString>
      <CharString index="23">
        -26 -50 48 -56 hhcurveto
        -34 -33 -18 -76 -8 -64 callsubr
        43 9 18 18 17 hhcurveto
        return
      </CharString>
      <CharString index="24">
        -580 rmoveto
        -84 -57 62 98 123 91 160 147 94 45 -66 -83 -121 -97 -173 -139 hvcurveto
        return
      </CharString>
      <CharString index="25">
        hstem
        -2 callsubr
        vstem
        -98 callsubr
        return
      </CharString>
      <CharString index="26">
        63 callgsubr
        -26 3 -23 82 callsubr
        73 callsubr
        hvcurveto
        -6 -11 -3 -6 -10 vvcurveto
        -2 0 -4 1 -3 vhcurveto
        return
      </CharString>
      <CharString index="27">
        23 -6 24 -15 23 vhcurveto
        return
      </CharString>
      <CharString index="28">
        84 callgsubr
        34 -2 vhcurveto
        10 -51 14 -74 -40 -68 -4 -3 -16 vhcurveto
        -6 -24 -1 -1 -5 -26 -4 -21 -2 -15 -1 -21 rrcurveto
        -4 16 33 0 16 hhcurveto
        return
      </CharString>
      <CharString index="29">
        -3 9 6 -1 5 hhcurveto
        6 4 2 2 6 hvcurveto
        36 16 return
      </CharString>
      <CharString index="30">
        hstem
        28 callsubr
        vstem
        -96 callsubr
        return
      </CharString>
      <CharString index="31">
        -33 20 -5 70 70 22 5 13 22 vhcurveto
        9 12 14 69 36 -18 callsubr
        3 vhcurveto
        1 -9 -7 3 -8 -10 -49 -5 -8 hhcurveto
        return
      </CharString>
      <CharString index="32">
        120 392 rmoveto
        -8 -18 -2 -31 -54 vvcurveto
        -54 2 -41 4 -42 vhcurveto
        -1 -39 0 -2 -12 hvcurveto
        -8 -1 -13 -3 -9 -5 rrcurveto
        return
      </CharString>
      <CharString index="33">
        -9 10 85 -3 61 hhcurveto
        78 25 5 6 hvcurveto
        16 10 6 40 30 vvcurveto
        return
      </CharString>
      <CharString index="34">
        191 -16 -58 callsubr
        -4 callgsubr
        return
      </CharString>
      <CharString index="35">
        8 -87 49 -83 89 -68 -87 -57 -38 -81 -15 -90 rrcurveto
        -15 8 11 -7 10 hhcurveto
        3 5 1 5 7 hvcurveto
        37 26 93 119 33 99 -40 85 -49 82 -72 71 rrcurveto
        3 -3 -16 13 -14 hhcurveto
        -8 -7 -4 -12 -4 hvcurveto
        return
      </CharString>
      <CharString index="36">
        -4 -5 -2 -18 -35 vvcurveto
        -36 2 -9 5 -9 vhcurveto
        -17 10 33 -12 131 hhcurveto
        53 15 2 10 10 hvcurveto
        return
      </CharString>
      <CharString index="37">
        43 65 37 37 38 10 -39 -15 -36 -59 -23 -43 -25 -23 8 25 vhcurveto
        return
      </CharString>
      <CharString index="38">
        6 74 6 74 78 vvcurveto
        56 -3 59 -9 61 vhcurveto
        -1 return
      </CharString>
      <CharString index="39">
        -3 -23 -3 -35 -36 vvcurveto
        -187 79 -55 93 77 64 37 71 62 vhcurveto
        -1 -6 -4 -39 -15 vvcurveto
        return
      </CharString>
      <CharString index="40">
        2 -14 hhcurveto
        -6 -5 0 -1 -6 hvcurveto
        return
      </CharString>
      <CharString index="41">
        -73 callsubr
        -5 callsubr
        return
      </CharString>
      <CharString index="42">
        525 74 callsubr
        -8 -59 -4 -119 -58 vvcurveto
        -66 69 -168 138 -44 33 rrcurveto
        -2 7 48 callgsubr
        12 11 4 9 13 hvcurveto
        5 14 4 22 23 vvcurveto
        30 -7 29 -22 11 vhcurveto
        6 -12 -19 3 -34 hhcurveto
        -65 -74 -11 -16 1 -34 callgsubr
        -10 10 5 -4 14 hhcurveto
        6 7 79 callgsubr
        return
      </CharString>
      <CharString index="43">
        hvcurveto
        8 13 15 70 29 vvcurveto
        8 -1 6 -21 callgsubr
        return
      </CharString>
      <CharString index="44">
        rmoveto
        13 -8 -19 24 -18 hhcurveto
        -5 -4 -2 -2 -4 hvcurveto
        return
      </CharString>
      <CharString index="45">
        2 -17 6 -8 vhcurveto
        -2 5 7 -1 8 hhcurveto
        7 7 79 callgsubr
        11 -10 5 -12 -13 vvcurveto
        -35 -38 -32 -36 -11 -10 3 9 -9 vhcurveto
        3 3 5 7 1 3 -24 37 rcurveline
        -47 -11 -29 -43 -3 -9 rrcurveto
        -14 8 -17 10 -10 vhcurveto
        2 5 2 3 7 hvcurveto
        -25 23 30 -8 35 hhcurveto
        84 84 47 83 29 -10 24 -26 24 hvcurveto
        return
      </CharString>
      <CharString index="46">
        5 59 5 122 1 65 77 -60 126 -134 73 -48 60 callsubr
        33 callgsubr
        -13 -3 -5 -9 -13 hvcurveto
        -11 -7 -4 -19 -24 vvcurveto
        -24 4 -29 11 -11 vhcurveto
        -19 17 29 -7 59 hhcurveto
        49 40 5 4 9 hvcurveto
        17 13 14 42 33 vvcurveto
        17 -4 15 -7 9 vhcurveto
        10 -10 -15 3 -14 hhcurveto
        -9 1 -1 -2 -8 hvcurveto
        return
      </CharString>
      <CharString index="47">
        -48 callgsubr
        29 -46 26 -36 16 -18 callgsubr
        return
      </CharString>
      <CharString index="48">
        hvcurveto
        -42 -45 -23 -53 -21 -53 rrcurveto
        return
      </CharString>
      <CharString index="49">
        458 733 rmoveto
        -248 -173 -238 -204 -154 98 -138 224 211 167 122 269 176 -72 167 -207 hvcurveto
        -309 -433 rmoveto
        145 127 188 167 107 90 -78 -151 -175 -120 -135 -166 -149 -56 109 97 vhcurveto
        return
      </CharString>
      <CharString index="50">
        -234 305 78 229 83 hstem
        28 87 205 80 vstem
        252 695 rmoveto
        -132 -92 -128 -107 -82 55 -73 118 110 89 64 143 95 -39 88 -109 hvcurveto
        -137 -225 rmoveto
        61 55 81 71 50 29 -41 -49 -73 -66 -66 -60 -47 -32 41 46 vhcurveto
        endchar
      </CharString>
      <CharString index="51">
        rmoveto
        -71 -24 -55 -54 -56 -25 58 69 68 24 56 56 55 24 -55 -70 vhcurveto
        return
      </CharString>
      <CharString index="52">
        -33 3 -25 6 -7 -49 callsubr
        return
      </CharString>
      <CharString index="53">
        29 52 -48 51 hhcurveto
        39 29 27 67 75 callsubr
      </CharString>
      <CharString index="54">
        7 -13 3 -13 20 -1 29 16 67 31 4 34 -9 49 return
      </CharString>
      <CharString index="55">
        -4 -4 -2 -24 -26 vvcurveto
        -27 2 -27 4 -5 vhcurveto
        return
      </CharString>
      <CharString index="56">
        -6 callsubr
        -12 -16 -6 -22 -19 vvcurveto
        -29 13 -52 10 -7 vhcurveto
        return
      </CharString>
      <CharString index="57">
        32 7 9 23 63 vvcurveto
        29 -2 49 -4 12 vhcurveto
        10 -10 -27 8 -27 hhcurveto
        -17 -18 -3 -7 -13 hvcurveto
        -14 -11 -3 -11 -4 -20 return
      </CharString>
      <CharString index="58">
        rmoveto
        -66 callsubr
        return
      </CharString>
      <CharString index="59">
        rmoveto
        3 -7 -5 1 -5 hhcurveto
        -5 -6 -1 -3 -8 hvcurveto
        -34 -18 -50 -22 -21 -31 -23 return
      </CharString>
      <CharString index="60">
        -1 -37 66 callgsubr
        -9 -51 callgsubr
        return
      </CharString>
      <CharString index="61">
        rmoveto
        136 -133 5 -91 3 vhcurveto
        -75 3 -34 25 36 vvcurveto
        38 36 13 41 40 43 -13 -18 15 vhcurveto
        -1 -4 -1 -4 -3 -2 1 -3 -2 vvcurveto
        -26 21 28 -9 32 hhcurveto
        7 7 0 1 7 hvcurveto
        53 32 15 58 3 53 return
      </CharString>
      <CharString index="62">
        15 20 41 hvcurveto
        7 51 3 9 -46 callsubr
        return
      </CharString>
      <CharString index="63">
        -3 -7 -1 -7 -30 callsubr
        return
      </CharString>
      <CharString index="64">
        -15 callsubr
        33 -100 95 -120 35 -24 rrcurveto
        -5 7 5 -1 3 -23 callsubr
        return
      </CharString>
      <CharString index="65">
        -60 callgsubr
        -37 22 64 -88 55 hhcurveto
        50 64 80 callgsubr
        return
      </CharString>
      <CharString index="66">
        106 -1 152 390 -20 29 152 -140 140 return
      </CharString>
      <CharString index="67">
        134 21 callgsubr
        -120 222 return
      </CharString>
      <CharString index="68">
        -73 callsubr
        1 -5 -5 33 callgsubr
        -13 -4 -5 -9 -15 hvcurveto
        -11 -5 -4 -21 -23 vvcurveto
        -27 6 -28 9 -9 vhcurveto
        -16 -1 74 72 callsubr
        return
      </CharString>
      <CharString index="69">
        2 -26 -45 1 -38 hhcurveto
        -54 -61 -2 -2 -51 hvcurveto
        1 4 49 callgsubr
        vvcurveto
        3 -1 4 -1 4 vhcurveto
        8 -9 -42 2 -38 hhcurveto
        -38 -33 -2 -3 -13 hvcurveto
        -13 -18 -5 -31 -32 vvcurveto
        -37 7 -58 11 -22 vhcurveto
        return
      </CharString>
      <CharString index="70">
        -20 1 callgsubr
        175 204 -138 237 return
      </CharString>
      <CharString index="71">
        -43 callsubr
        -236 return
      </CharString>
      <CharString index="72">
        -10 37 42 -9 39 hhcurveto
        22 12 3 8 20 hvcurveto
        26 11 3 46 29 vvcurveto
        33 -4 24 -2 16 vhcurveto
        return
      </CharString>
      <CharString index="73">
        hvcurveto
        -6 -9 -2 -23 -24 vvcurveto
        -24 2 -24 6 -9 vhcurveto
        return
      </CharString>
      <CharString index="74">
        rmoveto
        8 -5 -34 5 -32 hhcurveto
        -25 -23 -3 -6 -14 hvcurveto
        -59 -32 -69 -87 -25 -53 rrcurveto
        -2 -14 -1 6 -16 vvcurveto
        -17 1 -19 2 -17 vhcurveto
        -2 6 55 -2 28 hhcurveto
        20 62 1 2 19 hvcurveto
        -1 return
      </CharString>
      <CharString index="75">
        vhcurveto
        -9 -12 -14 -69 -36 vvcurveto
        -10 1 -8 3 -3 vhcurveto
        -1 9 7 -3 8 10 49 5 8 hhcurveto
        return
      </CharString>
      <CharString index="76">
        -5 -6 -45 hvcurveto
        -44 callgsubr
        return
      </CharString>
      <CharString index="77">
        -60 54 79 59 34 83 72 hvcurveto
        return
      </CharString>
      <CharString index="78">
        418 20 callsubr
        24 403 rmoveto
        -54 callsubr
        return
      </CharString>
      <CharString index="79">
        -73 -112 rrcurveto
        -16 11 11 -6 12 hhcurveto
        7 8 2 3 9 hvcurveto
        26 491 -56 callgsubr
        569 -294 rmoveto
        return
      </CharString>
      <CharString index="80">
        9 12 4 50 31 vvcurveto
        15 -1 7 -3 3 vhcurveto
        3 -17 -16 1 -19 -19 -22 -1 -26 hhcurveto
        9 -1 46 11 vvcurveto
        62 34 17 46 6 6 0 -1 6 vhcurveto
        -6 -21 rlineto
        endchar
      </CharString>
      <CharString index="81">
        26 53 47 15 39 hhcurveto
        29 25 -8 -19 18 hvcurveto
        -91 -55 -282 -197 -1 -87 rrcurveto
        -18 32 72 -11 72 hhcurveto
        69 130 10 30 39 hvcurveto
        1 -16 2 -15 4 -1 rrcurveto
        return
      </CharString>
      <CharString index="82">
        -16 callsubr
        23 3 35 37 vvcurveto
        187 -79 55 -93 -77 -64 -37 -71 -62 vhcurveto
        1 6 4 39 15 vvcurveto
        return
      </CharString>
      <CharString index="83">
        -35 callgsubr
        -3 callgsubr
        return
      </CharString>
      <CharString index="84">
        2 14 1 57 22 vvcurveto
        22 -1 31 -6 24 vhcurveto
        -208 -175 rmoveto
        14 19 76 76 24 19 rrcurveto
        -22 -1 -74 -18 vvcurveto
        -14 8 1 -51 -51 0 -1 -5 hhcurveto
        return
      </CharString>
      <CharString index="85">
        -2 rrcurveto
        -2 84 callsubr
        1 hhcurveto
        return
      </CharString>
      <CharString index="86">
        -2 3 vhcurveto
        9 -18 return
      </CharString>
      <CharString index="87">
        135 rmoveto
        4 38 7 94 32 vvcurveto
        return
      </CharString>
      <CharString index="88">
        hmoveto
        -17 callgsubr
      </CharString>
      <CharString index="89">
        rrcurveto
        2 -6 -4 2 -6 hhcurveto
        -5 -6 -1 -3 -9 hvcurveto
        return
      </CharString>
      <CharString index="90">
        -93 callsubr
        endchar
      </CharString>
      <CharString index="91">
        59 callgsubr
        -7 hhcurveto
        -7 -39 -1 -8 -22 hvcurveto
        -23 -13 -4 -28 -36 vvcurveto
        return
      </CharString>
      <CharString index="92">
        -8 -13 -2 -14 -14 vvcurveto
        -13 2 -13 3 -13 vhcurveto
        -2 7 -12 callsubr
        return
      </CharString>
      <CharString index="93">
        -13 -24 -6 -30 -30 vvcurveto
        -35 8 -46 13 -25 vhcurveto
        -11 12 24 -4 24 hhcurveto
        return
      </CharString>
      <CharString index="94">
        8 12 45 hvcurveto
        7 11 3 41 33 vvcurveto
        return
      </CharString>
      <CharString index="95">
        132 443 137 return
      </CharString>
      <CharString index="96">
        rmoveto
        48 28 61 26 53 vvcurveto
        36 -29 20 -27 -18 -26 -9 -12 -12 vhcurveto
        12 -23 -20 3 -11 hhcurveto
        -22 -8 -11 -17 -34 33 -55 54 -40 hvcurveto
        return
      </CharString>
      <CharString index="97">
        356 485 12 callsubr
        -107 -491 rmoveto
        71 112 return
      </CharString>
      <CharString index="98">
        2 callgsubr
        150 108 return
      </CharString>
      <CharString index="99">
        -57 44 -60 -26 -46 -8 -18 -23 vhcurveto
        -1 8 -2 5 -2 6 rrcurveto
        3 -11 -9 81 callsubr
        -12 -8 -3 -6 -13 hvcurveto
        -3 -5 -2 return
      </CharString>
      <CharString index="100">
        rmoveto
        28 20 261 148 61 149 rrcurveto
        31 -41 -79 29 -95 hhcurveto
        -53 -57 -9 -22 -59 hvcurveto
        -1 16 -2 5 -4 1 rrcurveto
        return
      </CharString>
      <CharString index="101">
        28 callgsubr
        330 1 callsubr
        return
      </CharString>
      <CharString index="102">
        186 61 198 10 callsubr
        return
      </CharString>
      <CharString index="103">
        -11 4 -13 3 -8 vhcurveto
        return
      </CharString>
      <CharString index="104">
        24 -38 -29 9 -40 hhcurveto
        -19 -19 -2 -4 -20 hvcurveto
        -8 -25 rlineto
        return
      </CharString>
      <CharString index="105">
        vhcurveto
        -11 38 33 -5 33 hhcurveto
        171 81 132 127 119 -72 115 -137 -54 -37 -18 -37 -57 hvcurveto
        return
      </CharString>
      <CharString index="106">
        -7 callsubr
        hstemhm
        45 237 81 callgsubr
        175 return
      </CharString>
      <CharString index="107">
        -9 -12 -4 -50 -31 vvcurveto
        -15 1 -7 3 -3 vhcurveto
        -1 7 return
      </CharString>
      <CharString index="108">
        hstemhm
        23 178 10 callsubr
        return
      </CharString>
      <CharString index="109">
        hstemhm
        32 124 -124 156 return
      </CharString>
      <CharString index="110">
        -10 23 -114 12 -20 vhcurveto
        27 -12 rlineto
        23 61 16 56 40 vvcurveto
        48 -24 22 -27 -27 -23 -22 -49 vhcurveto
        return
      </CharString>
      <CharString index="111">
        16 8 13 47 36 vvcurveto
        17 -3 14 -6 7 vhcurveto
        8 -9 -8 4 -17 hhcurveto
        -8 -7 -1 -1 -6 hvcurveto
        return
      </CharString>
      <CharString index="112">
        0 callgsubr
        30 -3 5 14 11 1 2 hhcurveto
        -70 2 return
      </CharString>
      <CharString index="113">
        -6 -23 -30 -7 -28 hhcurveto
        -61 -66 34 92 109 93 48 87 84 callsubr
        -1 10 hvcurveto
        -6 -39 rlineto
        return
      </CharString>
      <CharString index="114">
        10 20 22 4 21 hhcurveto
        115 89 -121 -120 -126 -97 -80 -107 -21 -22 3 7 -20 hvcurveto
        return
      </CharString>
      <CharString index="115">
        hvcurveto
        9 17 15 53 35 -18 callsubr
        6 vhcurveto
        return
      </CharString>
      <CharString index="116">
        hvcurveto
        1 1 0 3 5 vvcurveto
        8 -1 12 -4 15 vhcurveto
        return
      </CharString>
      <CharString index="117">
        vhcurveto
        7 -14 -13 4 -15 hhcurveto
        -4 -5 29 callsubr
        return
      </CharString>
      <CharString index="118">
        1 -66 78 callgsubr
        -4 hhcurveto
        -9 -10 -3 -6 -10 hvcurveto
        -19 -11 -10 -41 -37 vvcurveto
        -20 3 return
      </CharString>
      <CharString index="119">
        67 callsubr
        122 return
      </CharString>
      <CharString index="120">
        -8 -45 -2 -101 -87 -88 2 -26 -44 9 callsubr
        return
      </CharString>
      <CharString index="121">
        10 -35 -22 4 -16 hhcurveto
        -23 -12 -7 -7 -22 hvcurveto
        return
      </CharString>
      <CharString index="122">
        -2 -3 -1 -7 -6 vvcurveto
        -3 0 -4 1 -2 vhcurveto
        return
      </CharString>
      <CharString index="123">
        vvcurveto
        1 -4 -6 0 -6 hhcurveto
        return
      </CharString>
      <CharString index="124">
        14 -7 12 -5 16 -3 return
      </CharString>
      <CharString index="125">
        rmoveto
        90 75 73 70 59 33 -51 -54 -88 -86 -67 -66 -46 -39 32 65 vhcurveto
        endchar
      </CharString>
      <CharString index="126">
        6 8 1 7 hhcurveto
        4 1 2 19 3 vvcurveto
        return
      </CharString>
      <CharString index="127">
        80 callsubr
        320 147 return
      </CharString>
      <CharString index="128">
        -120 120 return
      </CharString>
      <CharString index="129">
        30 callsubr
        22 22 9 24 27 vvcurveto
        73 -66 53 -65 -22 -20 -6 -12 -19 vhcurveto
        return
      </CharString>
      <CharString index="130">
        -7 25 20 -2 20 hhcurveto
        24 23 3 5 27 hvcurveto
        8 13 0 10 5 18 rrcurveto
        return
      </CharString>
      <CharString index="131">
        3 -4 -33 1 -32 hhcurveto
        -46 -46 -2 -8 -3 hvcurveto
        -5 -2 -2 -5 -2 -14 rrcurveto
        return
      </CharString>
      <CharString index="132">
        -60 -229 -21 240 102 228 190 -135 135 -8 -20 hstemhm
        return
      </CharString>
      <CharString index="133">
        7 13 4 hvcurveto
        11 12 4 18 17 vvcurveto
        20 -6 20 -9 6 vhcurveto
        11 -7 return
      </CharString>
      <CharString index="134">
        -249 51 -29 -21 141 86 -54 54 return
      </CharString>
      <CharString index="135">
        60 -10 132 -101 -21 return
      </CharString>
      <CharString index="136">
        11 -3 7 vhcurveto
        return
      </CharString>
      <CharString index="137">
        119 -119 return
      </CharString>
      <CharString index="138">
        rrcurveto
        1 -5 return
      </CharString>
      <CharString index="139">
        -20 hstemhm
        59 240 -196 143 216 249 -198 144 return
      </CharString>
      <CharString index="140">
        1 -6 hhcurveto
        return
      </CharString>
      <CharString index="141">
        49 -250 121 -121 222 27 139 200 163 return
      </CharString>
      <CharString index="142">
        82 -24 236 -213 132 359 214 -160 132 return
      </CharString>
      <CharString index="143">
        144 -144 241 -230 -21 return
      </CharString>
      <CharString index="144">
        7 -20 hhcurveto
        -6 -16 29 callsubr
        return
      </CharString>
      <CharString index="145">
        -3 -7 -4 rrcurveto
        return
      </CharString>
      <CharString index="146">
        vhcurveto
        2 -39 -45 9 -128 hhcurveto
        -95 -188 -5 -6 -51 hvcurveto
        return
      </CharString>
      <CharString index="147">
        -12 35 43 -6 52 hhcurveto
        100 132 22 136 hvcurveto
        endchar
      </CharString>
      <CharString index="148">
        -6 136 -14 136 vhcurveto
        46 callsubr
        rrcurveto
        return
      </CharString>
      <CharString index="149">
        1 -13 -12 0 -12 hhcurveto
        -213 -112 -147 -127 return
      </CharString>
      <CharString index="150">
        -36 -29 -70 -17 -56 hhcurveto
        -26 -22 4 7 -14 hvcurveto
        endchar
      </CharString>
      <CharString index="151">
        hvcurveto
        4 1 3 4 1 13 rrcurveto
        return
      </CharString>
      <CharString index="152">
        13 1 15 7 2 5 return
      </CharString>
      <CharString index="153">
        65 -17 60 callgsubr
        return
      </CharString>
      <CharString index="154">
        -4 -8 -17 hvcurveto
        return
      </CharString>
      <CharString index="155">
        6 -1 6 hhcurveto
        return
      </CharString>
      <CharString index="156">
        1 2 3 return
      </CharString>
      <CharString index="157">
        -20 36 -38 10 -40 4 -7 -2 -18 -15 -8 -15 rrcurveto
        return
      </CharString>
      <CharString index="158">
        20 -36 38 -10 40 -4 7 2 8 15 8 15 rrcurveto
        return
      </CharString>
      <CharString index="159">
        hvcurveto
        -3 -6 -1 -9 -9 vvcurveto
        -11 2 -21 2 -8 vhcurveto
        return
      </CharString>
      <CharString index="160">
        126 vstem
        -43 callsubr
        return
      </CharString>
      <CharString index="161">
        hstemhm
        81 136 178 230 -152 152 return
      </CharString>
      <CharString index="162">
        hstemhm
        51 141 251 131 -131 146 return
      </CharString>
      <CharString index="163">
        -9 2 -8 -53 -50 vvcurveto
        -40 5 -28 12 -4 vhcurveto
        return
      </CharString>
</ttFont>
